<?xml version="1.0" encoding="UTF-8"?>
<svg xmlns="http://www.w3.org/2000/svg" width="48" height="48" viewBox="1.5 1.5 7 7"><path d="M2.188,5C2.188,7.813 2.188,7.813 5,7.813C7.813,7.813 7.813,7.813 7.813,5C7.813,2.188 7.813,2.188 5,2.188C2.188,2.188 2.188,2.188 2.188,5Z" fill-opacity="0.3" fill="#dddddd"/><path d="M4.691,2.975C4.757,3.09 4.783,3.2 4.819,3.305C4.88,3.297 4.949,3.313 5.017,3.318C5.095,3.333 5.157,3.34 5.215,3.331C5.251,3.166 5.282,3.083 5.353,2.968C5.321,2.99 5.255,2.997 5.228,3.037C5.189,3.002 5.158,3.024 5.138,3.061C5.145,3.031 5.136,3.006 5.098,3.003C5.12,2.961 5.085,2.939 5.048,2.958C5.047,2.92 5.017,2.92 5.015,2.9C5.01,2.923 4.984,2.912 4.988,2.968C4.958,2.944 4.928,2.96 4.94,3.001C4.904,3.001 4.894,3.031 4.898,3.069C4.873,3.011 4.826,3.028 4.81,3.049C4.781,2.991 4.758,3.028 4.692,2.975L4.691,2.975Z" fill-opacity="1" fill-rule="evenodd" fill="#ffffff"/><path d="M5.273,3.269C5.231,3.342 5.212,3.347 5.028,3.318C4.883,3.303 4.751,3.262 4.745,3.394C4.794,3.4 4.864,3.405 4.894,3.509L4.804,3.586C4.741,3.595 4.642,3.68 4.577,3.601C4.559,3.675 4.626,3.696 4.698,3.693C4.747,3.688 4.763,3.674 4.855,3.656L4.88,3.683C5.019,3.695 5.092,3.895 4.865,4.013C4.856,4.04 4.871,4.073 4.892,4.077C4.826,4.171 4.717,4.287 4.679,4.211C4.67,4.22 4.644,4.283 4.694,4.318C4.656,4.365 4.642,4.42 4.644,4.482C4.495,4.458 4.397,4.433 4.43,4.293C4.589,4.3 4.632,4.108 4.609,4.01C4.517,3.62 4.016,3.307 3.652,3.297C3.671,3.403 3.737,3.48 3.811,3.551C3.714,3.503 3.602,3.457 3.484,3.482C3.498,3.566 3.543,3.663 3.734,3.821C3.596,3.74 3.47,3.659 3.426,3.595C3.406,3.621 3.395,3.731 3.512,3.811C3.474,3.796 3.291,3.797 3.236,3.837C3.269,3.914 3.423,4.048 3.549,4.09C3.429,4.072 3.317,4.024 3.215,3.937C3.2,3.951 3.215,4.093 3.343,4.149C3.301,4.152 3.161,4.192 3.125,4.237C3.198,4.335 3.386,4.422 3.479,4.422C3.353,4.439 3.213,4.413 3.156,4.395C3.157,4.428 3.13,4.559 3.477,4.537C3.354,4.596 3.166,4.719 3.136,4.827C3.257,4.881 3.472,4.836 3.584,4.801C3.254,5.004 3.202,5.025 3.141,5.011C3.221,5.181 3.414,5.066 3.58,4.971C3.375,5.247 3.342,5.387 3.347,5.583C3.512,5.563 3.751,5.325 3.878,5.122C3.731,5.428 3.643,5.673 3.482,5.745C3.665,5.818 3.823,5.587 3.934,5.341C3.891,5.496 3.874,5.826 3.928,5.906C4.093,5.794 4.219,5.543 4.303,5.256C4.274,5.397 4.253,5.539 4.201,5.681C4.308,5.7 4.362,5.508 4.398,5.396C4.401,5.402 4.405,5.407 4.416,5.417C4.55,5.318 4.593,5.09 4.603,5.002C4.725,5.037 4.78,4.992 4.81,4.969C4.837,5.007 4.839,5.064 4.847,5.072C4.713,4.963 4.571,5.072 4.565,5.255C4.55,5.33 4.511,5.418 4.41,5.485C4.416,5.493 4.43,5.497 4.448,5.496C4.43,5.527 4.415,5.553 4.385,5.581C4.393,5.586 4.402,5.586 4.412,5.588C4.389,5.626 4.352,5.661 4.315,5.68C4.324,5.689 4.328,5.692 4.356,5.699C4.331,5.731 4.291,5.762 4.252,5.778C4.326,5.822 4.381,5.827 4.426,5.823C4.398,5.881 4.351,5.91 4.306,5.935C4.32,5.948 4.337,5.951 4.351,5.947C4.31,5.99 4.266,6.024 4.227,6.037C4.234,6.042 4.239,6.05 4.265,6.048C4.237,6.083 4.203,6.117 4.142,6.133C4.154,6.155 4.179,6.152 4.2,6.152C4.183,6.188 4.132,6.2 4.079,6.211C4.119,6.222 4.145,6.244 4.122,6.238C4.106,6.257 4.09,6.267 4.056,6.273C4.022,6.278 3.896,6.233 3.846,6.25C3.832,6.221 3.797,6.201 3.76,6.201C3.714,6.201 3.668,6.231 3.665,6.273C3.658,6.268 3.628,6.264 3.633,6.3C3.644,6.321 3.645,6.339 3.711,6.365C3.722,6.37 3.735,6.372 3.751,6.372C3.775,6.37 3.802,6.359 3.822,6.341C3.855,6.348 3.892,6.354 3.912,6.362C3.859,6.366 3.84,6.395 3.811,6.416C3.798,6.416 3.788,6.412 3.776,6.41C3.769,6.409 3.762,6.408 3.755,6.408C3.718,6.41 3.679,6.453 3.675,6.502C3.675,6.512 3.677,6.521 3.681,6.53V6.538C3.669,6.552 3.674,6.563 3.685,6.571C3.732,6.588 3.758,6.578 3.775,6.575C3.817,6.57 3.852,6.535 3.852,6.496C3.902,6.487 3.95,6.473 3.978,6.453C3.979,6.456 3.98,6.459 3.98,6.463C3.963,6.473 3.934,6.49 3.92,6.54C3.915,6.54 3.911,6.54 3.907,6.54C3.85,6.54 3.836,6.579 3.837,6.611C3.837,6.642 3.849,6.663 3.866,6.675C3.863,6.695 3.865,6.711 3.885,6.717C3.952,6.728 3.969,6.692 3.982,6.693C3.982,6.684 3.983,6.678 3.986,6.672C4.007,6.662 4.021,6.654 4.023,6.615C4.025,6.592 4.021,6.577 4.013,6.567H4.015C4.076,6.514 4.116,6.472 4.142,6.436C4.166,6.442 4.22,6.44 4.245,6.431V6.441C4.22,6.465 4.236,6.522 4.269,6.52C4.268,6.525 4.268,6.53 4.269,6.536C4.29,6.549 4.329,6.54 4.359,6.547C4.375,6.545 4.382,6.535 4.378,6.514C4.402,6.499 4.418,6.473 4.414,6.441C4.414,6.396 4.38,6.361 4.336,6.357C4.29,6.352 4.246,6.385 4.255,6.314C4.382,6.163 4.554,5.935 4.602,5.909C4.598,5.904 4.596,5.898 4.593,5.891C4.611,5.941 4.682,5.993 4.757,5.988C4.743,5.963 4.728,5.94 4.723,5.871C4.734,5.887 4.753,5.895 4.777,5.9C4.742,5.74 4.794,5.607 4.901,5.487C4.892,5.642 4.873,5.798 4.779,5.956C4.827,5.971 4.89,5.922 4.899,5.892C4.908,6.031 4.777,6.211 4.674,6.125C4.61,6.268 4.763,6.337 4.859,6.254C4.842,6.341 4.776,6.391 4.703,6.411C4.629,6.431 4.553,6.4 4.602,6.282C4.592,6.276 4.444,6.272 4.44,6.433C4.444,6.526 4.508,6.562 4.513,6.563C4.303,6.722 4.515,6.9 4.687,6.866C4.823,6.845 4.902,6.733 4.951,6.652C4.936,6.711 4.874,6.897 5.032,7.1C5.189,6.854 5.122,6.689 5.118,6.663C5.241,6.853 5.363,6.867 5.434,6.863C5.557,6.865 5.73,6.672 5.509,6.547C5.622,6.494 5.63,6.269 5.471,6.258C5.503,6.346 5.434,6.4 5.358,6.393C5.282,6.386 5.211,6.342 5.185,6.243C5.335,6.315 5.404,6.172 5.353,6.096C5.225,6.202 5.164,6.031 5.147,5.929C5.18,5.954 5.208,5.963 5.263,5.955C5.159,5.821 5.134,5.64 5.125,5.471C5.197,5.584 5.266,5.722 5.264,5.859C5.281,5.851 5.295,5.849 5.324,5.789C5.327,5.891 5.315,5.904 5.281,5.947C5.337,5.971 5.41,5.925 5.445,5.865C5.554,6.012 5.672,6.164 5.785,6.282C5.81,6.308 5.819,6.333 5.773,6.342C5.626,6.288 5.61,6.442 5.672,6.463C5.667,6.477 5.666,6.492 5.67,6.507C5.698,6.516 5.758,6.492 5.773,6.491C5.78,6.484 5.78,6.47 5.78,6.456C5.795,6.456 5.805,6.447 5.812,6.435C5.841,6.441 5.868,6.444 5.905,6.414L6.014,6.523C6.02,6.526 6.008,6.538 6.024,6.54C6.012,6.613 6.04,6.621 6.063,6.64C6.058,6.71 6.162,6.67 6.172,6.674C6.183,6.667 6.184,6.66 6.182,6.652C6.194,6.639 6.188,6.633 6.184,6.624C6.236,6.544 6.162,6.484 6.122,6.491C6.078,6.443 6.048,6.423 6.013,6.394C6.084,6.421 6.194,6.452 6.226,6.475C6.238,6.556 6.309,6.522 6.361,6.526C6.377,6.503 6.369,6.496 6.361,6.488C6.43,6.398 6.285,6.326 6.224,6.378C6.187,6.344 6.156,6.339 6.123,6.324C6.137,6.311 6.165,6.3 6.232,6.296C6.261,6.315 6.29,6.322 6.32,6.301C6.333,6.328 6.357,6.322 6.366,6.317C6.388,6.292 6.388,6.254 6.394,6.219C6.388,6.206 6.379,6.198 6.362,6.199C6.318,6.122 6.232,6.169 6.227,6.203C6.152,6.209 6.086,6.219 6.008,6.25C5.982,6.258 5.957,6.23 5.936,6.213C5.955,6.205 5.973,6.196 5.972,6.179C5.941,6.176 5.91,6.179 5.873,6.14L5.883,6.115C5.854,6.106 5.825,6.085 5.787,6.026C5.795,6.021 5.802,6.013 5.809,6C5.766,5.99 5.732,5.967 5.704,5.934C5.714,5.929 5.724,5.921 5.733,5.907C5.693,5.883 5.656,5.862 5.579,5.762V5.761C5.66,5.774 5.743,5.767 5.791,5.73C5.752,5.719 5.683,5.697 5.652,5.637C5.667,5.636 5.675,5.633 5.685,5.63C5.626,5.59 5.61,5.569 5.594,5.536C5.607,5.537 5.625,5.531 5.631,5.523C5.592,5.505 5.575,5.481 5.562,5.455C5.577,5.455 5.594,5.458 5.607,5.449C5.455,5.381 5.476,5.022 5.312,5.022C5.239,5.028 5.226,5.043 5.188,5.062C5.199,5.031 5.218,5.003 5.238,4.975C5.327,5.016 5.398,4.993 5.422,4.972C5.434,5.116 5.48,5.27 5.579,5.347C5.596,5.337 5.617,5.325 5.629,5.311C5.646,5.444 5.696,5.621 5.808,5.606C5.756,5.477 5.757,5.348 5.751,5.219C5.798,5.596 5.914,5.816 6.009,5.882C6.052,5.824 6.085,5.549 6.064,5.383C6.158,5.553 6.262,5.711 6.349,5.71C6.389,5.71 6.432,5.677 6.459,5.669C6.323,5.614 6.229,5.361 6.146,5.204C6.304,5.452 6.491,5.563 6.579,5.58C6.582,5.503 6.599,5.289 6.403,4.992C6.753,5.178 6.827,5.058 6.848,4.994C6.69,5.05 6.477,4.845 6.334,4.78L6.332,4.774C6.541,4.869 6.746,4.902 6.874,4.822C6.765,4.652 6.659,4.591 6.544,4.547C6.771,4.572 6.845,4.495 6.85,4.41C6.767,4.437 6.691,4.442 6.592,4.426C6.808,4.383 6.848,4.29 6.846,4.281C6.791,4.237 6.686,4.189 6.591,4.18C6.852,4.085 6.769,3.996 6.759,3.968C6.678,4.044 6.536,4.099 6.511,4.097C6.632,4.033 6.738,3.865 6.731,3.846C6.67,3.815 6.544,3.817 6.493,3.831C6.543,3.776 6.611,3.679 6.549,3.599C6.49,3.684 6.433,3.728 6.378,3.773C6.429,3.708 6.488,3.633 6.509,3.481C6.432,3.491 6.363,3.484 6.264,3.55C6.321,3.478 6.356,3.408 6.363,3.323C6.022,3.347 5.622,3.527 5.429,3.977C5.372,4.109 5.417,4.333 5.592,4.307C5.62,4.421 5.546,4.489 5.383,4.484C5.38,4.447 5.391,4.371 5.346,4.332C5.385,4.329 5.393,4.309 5.401,4.292C5.295,4.267 5.312,4.233 5.332,4.044C5.346,4.05 5.362,4.046 5.373,4.035C5.33,3.994 5.344,3.919 5.366,3.683C5.37,3.581 5.35,3.529 5.327,3.511C5.341,3.504 5.35,3.493 5.343,3.467C5.391,3.458 5.37,3.399 5.351,3.379C5.341,3.406 5.299,3.416 5.26,3.386C5.308,3.364 5.308,3.309 5.271,3.271L5.273,3.269ZM5.471,5.806C5.471,5.806 5.474,5.81 5.476,5.812C5.474,5.81 5.473,5.809 5.471,5.807V5.806ZM4.471,5.813C4.466,5.831 4.475,5.88 4.476,5.911C4.492,5.919 4.521,5.911 4.553,5.898C4.551,5.898 4.549,5.9 4.548,5.9C4.523,5.909 4.494,5.919 4.476,5.911L4.47,5.839C4.469,5.831 4.469,5.822 4.471,5.812L4.471,5.813ZM4.459,5.816C4.459,5.816 4.453,5.818 4.451,5.818C4.454,5.818 4.457,5.817 4.459,5.816ZM5.491,5.825C5.528,5.852 5.573,5.852 5.588,5.848C5.588,5.846 5.59,5.844 5.591,5.842C5.591,5.844 5.59,5.847 5.589,5.849C5.556,5.854 5.522,5.849 5.491,5.825ZM5.173,6.472C5.206,6.508 5.338,6.605 5.489,6.558C5.502,6.645 5.429,6.677 5.372,6.666C5.315,6.654 5.231,6.609 5.173,6.473V6.472ZM4.871,6.494C4.821,6.588 4.74,6.668 4.667,6.687C4.595,6.706 4.527,6.67 4.553,6.574C4.711,6.627 4.838,6.533 4.871,6.493V6.494Z" fill-opacity="1" fill-rule="evenodd" fill="#ffffff"/><path d="M4.146,4.746C4.093,4.683 4.101,4.644 4.103,4.621C4.044,4.576 4.059,4.559 4.049,4.541C4.07,4.577 4.09,4.601 4.111,4.604C4.149,4.64 4.188,4.652 4.227,4.674C3.99,4.544 4.055,4.385 4.058,4.339C4.022,4.34 3.994,4.333 3.974,4.318C3.981,4.253 4.015,4.202 4.086,4.166C4.077,4.169 4.068,4.173 4.059,4.175C4.051,4.173 4.031,4.12 4.056,4.085C4.071,4.076 4.111,4.072 4.151,4.088C4.175,4.039 4.206,3.997 4.27,3.98C4.286,3.997 4.313,4.045 4.294,4.131C4.321,4.141 4.346,4.153 4.367,4.185C4.36,4.212 4.354,4.22 4.347,4.226C4.451,4.228 4.461,4.081 4.345,4.066C4.364,3.929 4.189,3.847 4.113,4.017C3.972,3.979 3.935,4.088 3.988,4.175C3.971,4.188 3.832,4.29 3.964,4.437C3.964,4.51 3.982,4.581 4.08,4.643C4.108,4.726 4.126,4.726 4.147,4.744V4.746H4.146Z" fill-opacity="1" fill-rule="evenodd" fill="#dfdde2"/><path d="M5.885,3.979L5.904,3.943C6.031,3.923 6.107,4.008 6.058,4.108C6.16,4.196 6.103,4.31 6.042,4.332C6.115,4.277 6.075,4.26 6.063,4.261C6.067,4.259 6.073,4.256 6.078,4.252C6.074,4.204 6.055,4.158 5.982,4.103C6.018,4.062 6.014,4.025 6.009,3.998C5.969,3.987 5.933,3.991 5.901,4.007L5.886,3.977L5.885,3.979Z" fill-opacity="1" fill-rule="evenodd" fill="#dfdde2"/><path d="M5.71,4.227C5.716,4.207 5.721,4.175 5.757,4.145C5.746,4.153 5.733,4.163 5.719,4.175C5.674,4.156 5.644,4.114 5.637,4.088C5.665,4.052 5.732,4.058 5.741,4.06C5.721,3.986 5.747,3.931 5.765,3.91C5.825,3.916 5.857,3.947 5.881,3.975L5.899,3.942C5.882,3.89 5.832,3.852 5.773,3.864C5.723,3.869 5.666,3.912 5.688,4.015C5.538,4.075 5.602,4.221 5.709,4.226L5.71,4.227Z" fill-opacity="1" fill-rule="evenodd" fill="#dfdde2"/><path d="M5.384,4.485C5.378,4.54 5.367,4.581 5.355,4.619C5.559,4.588 5.862,4.535 5.821,4.31C5.783,4.336 5.747,4.341 5.709,4.342C5.703,4.311 5.699,4.276 5.71,4.231C5.677,4.277 5.637,4.295 5.595,4.305C5.78,4.387 5.517,4.535 5.407,4.485H5.383L5.384,4.485Z" fill-opacity="1" fill-rule="evenodd" fill="#f1eef0"/><path d="M4.646,4.569C4.652,4.633 4.672,4.71 4.691,4.783C4.678,4.762 4.638,4.637 4.646,4.569Z" fill-opacity="1" fill-rule="evenodd" fill="#e8e6eb"/><path d="M5.254,4.524C5.204,4.721 5.422,4.702 5.27,4.5C5.418,4.592 5.321,4.728 5.313,4.759C5.289,4.654 5.199,4.627 5.254,4.524Z" fill-opacity="1" fill-rule="evenodd" fill="#c3bdc9"/><path d="M4.27,3.985L4.196,4.203C4.178,4.195 4.16,4.188 4.137,4.16C4.137,4.084 4.204,3.991 4.269,3.985H4.27Z" fill-opacity="1" fill-rule="evenodd" fill="#ffffff"/><path d="M4.329,4.41L4.196,4.204C4.217,4.204 4.241,4.204 4.27,4.197C4.31,4.234 4.352,4.329 4.33,4.41H4.329Z" fill-opacity="1" fill-rule="evenodd" fill="#c3bdc9"/><path d="M4.291,4.134C4.33,4.145 4.358,4.172 4.363,4.188L4.269,4.197C4.278,4.177 4.285,4.156 4.291,4.134Z" fill-opacity="1" fill-rule="evenodd" fill="#ffffff"/><path d="M4.058,4.176C4.041,4.15 4.041,4.098 4.058,4.087L4.137,4.16C4.116,4.165 4.078,4.167 4.057,4.176H4.058Z" fill-opacity="1" fill-rule="evenodd" fill="#ffffff"/><path d="M3.976,4.317L4.195,4.204C4.195,4.204 4.164,4.167 4.137,4.16C4.078,4.152 3.981,4.226 3.976,4.317Z" fill-opacity="1" fill-rule="evenodd" fill="#ffffff"/><path d="M4.158,4.318C4.045,4.643 4.532,4.694 4.662,4.703L4.646,4.621C4.411,4.61 4.191,4.559 4.224,4.381C4.181,4.354 4.172,4.342 4.158,4.317V4.318Z" fill-rule="evenodd" fill="transparent"/><path d="M4.158,4.317C4.133,4.33 4.095,4.336 4.058,4.341C3.964,4.736 4.573,4.767 4.69,4.782C4.672,4.745 4.667,4.726 4.662,4.703C4.353,4.683 4.068,4.566 4.158,4.317Z" fill-rule="evenodd" fill="transparent"/><path d="M5.768,3.912C5.801,3.983 5.838,4.066 5.863,4.145C5.878,4.123 5.892,4.101 5.922,4.076C5.906,4.002 5.868,3.923 5.766,3.911L5.768,3.912Z" fill-opacity="1" fill-rule="evenodd" fill="#c3bdc9"/><path d="M5.767,3.911C5.802,3.984 5.842,4.07 5.864,4.145L5.781,4.133C5.732,4.079 5.72,3.972 5.767,3.911Z" fill-opacity="1" fill-rule="evenodd" fill="#ffffff"/><path d="M5.64,4.087C5.662,4.062 5.707,4.055 5.744,4.062C5.752,4.082 5.766,4.111 5.78,4.133L5.639,4.088H5.64V4.087Z" fill-opacity="1" fill-rule="evenodd" fill="#c3bdc9"/><path d="M6.006,4.001L5.922,4.077L5.977,4.106C6.022,4.068 6.009,4.001 6.007,4.002H6.006V4.001Z" fill-opacity="1" fill-rule="evenodd" fill="#c3bdc9"/><path d="M5.922,4.076C5.908,4.079 5.862,4.145 5.865,4.144L6.075,4.252C6.075,4.216 6.043,4.125 5.922,4.076Z" fill-opacity="1" fill-rule="evenodd" fill="#c3bdc9"/><path d="M5.864,4.144L5.711,4.342C5.808,4.338 5.848,4.294 5.881,4.241L5.863,4.145L5.864,4.144Z" fill-opacity="1" fill-rule="evenodd" fill="#c3bdc9"/><path d="M6.006,4.002C5.973,3.991 5.93,3.995 5.9,4.011C5.91,4.032 5.917,4.059 5.922,4.078L6.006,4.002Z" fill-opacity="1" fill-rule="evenodd" fill="#ffffff"/><path d="M5.864,4.144L6.076,4.253C6.038,4.285 5.915,4.255 5.882,4.241L5.864,4.144Z" fill-opacity="1" fill-rule="evenodd" fill="#ffffff"/><path d="M5.864,4.144L5.78,4.132C5.688,4.171 5.704,4.329 5.711,4.341L5.864,4.144Z" fill-opacity="1" fill-rule="evenodd" fill="#ffffff"/><path d="M5.779,4.133L5.64,4.087C5.647,4.121 5.688,4.16 5.719,4.173C5.726,4.167 5.757,4.138 5.779,4.133Z" fill-opacity="1" fill-rule="evenodd" fill="#ffffff"/><path d="M5.884,4.241C5.859,4.28 5.851,4.29 5.822,4.308C5.871,4.537 5.545,4.594 5.356,4.621C5.354,4.653 5.344,4.679 5.335,4.704C5.369,4.702 6.039,4.689 5.884,4.241Z" fill-opacity="1" fill-rule="evenodd" fill="#ffffff"/><path d="M5.888,4.244C5.978,4.576 5.684,4.671 5.336,4.702C5.327,4.723 5.319,4.745 5.311,4.769C5.784,4.736 6.03,4.583 5.966,4.263C5.935,4.258 5.911,4.251 5.888,4.244Z" fill-rule="evenodd" fill="transparent"/><path d="M3.684,6.572C3.722,6.59 3.769,6.578 3.794,6.57C3.808,6.583 3.79,6.635 3.83,6.672C3.807,6.682 3.681,6.643 3.683,6.572H3.684Z" fill-opacity="1" fill-rule="evenodd" fill="#ffffff"/><path d="M3.631,6.299C3.647,6.35 3.691,6.355 3.709,6.365C3.709,6.384 3.66,6.383 3.658,6.453C3.625,6.45 3.577,6.371 3.631,6.3V6.299Z" fill-opacity="1" fill-rule="evenodd" fill="#ffffff"/><path d="M3.883,6.717C3.945,6.727 3.966,6.694 3.98,6.692C3.987,6.712 4.015,6.739 4.042,6.753C4.029,6.798 3.88,6.789 3.883,6.717Z" fill-opacity="1" fill-rule="evenodd" fill="#ffffff"/><path d="M4.357,6.548C4.353,6.54 4.283,6.548 4.27,6.537C4.261,6.548 4.258,6.583 4.233,6.597C4.25,6.628 4.367,6.618 4.357,6.547V6.548Z" fill-opacity="1" fill-rule="evenodd" fill="#ffffff"/><path d="M4.491,5.917C4.502,5.915 4.512,5.913 4.52,5.911C4.479,5.961 4.41,6.049 4.34,6.122C4.271,6.196 4.208,6.269 4.231,6.335C4.183,6.288 4.226,6.24 4.291,6.162C4.362,6.078 4.441,5.981 4.491,5.917ZM4.404,6.451C4.404,6.485 4.375,6.517 4.307,6.514C4.384,6.429 4.228,6.423 4.265,6.388C4.368,6.323 4.412,6.424 4.404,6.451ZM4.331,6.526C4.353,6.531 4.367,6.503 4.372,6.517C4.382,6.544 4.331,6.549 4.331,6.526ZM3.809,6.231C3.793,6.231 3.798,6.295 3.704,6.292C3.702,6.292 3.693,6.292 3.688,6.301C3.677,6.322 3.715,6.365 3.75,6.363C3.78,6.361 3.805,6.344 3.821,6.322C3.828,6.318 3.877,6.29 3.873,6.302C3.815,6.331 3.83,6.349 3.922,6.356C3.98,6.347 4.03,6.296 4.05,6.286C3.991,6.296 3.864,6.256 3.836,6.256C3.832,6.245 3.823,6.236 3.809,6.231ZM3.705,6.557C3.703,6.562 3.7,6.566 3.696,6.569C3.713,6.58 3.756,6.577 3.761,6.573C3.756,6.573 3.72,6.571 3.704,6.557H3.705ZM4.14,6.293C4.06,6.332 4.006,6.472 3.81,6.453C3.805,6.47 3.794,6.474 3.784,6.479C3.744,6.479 3.696,6.488 3.697,6.514C3.697,6.545 3.746,6.564 3.777,6.561C3.81,6.557 3.844,6.526 3.844,6.495C3.844,6.495 3.847,6.49 3.849,6.49C4.066,6.443 4.1,6.331 4.14,6.292L4.14,6.293ZM4.174,6.297C4.165,6.35 3.994,6.508 3.986,6.559C3.977,6.552 3.964,6.548 3.937,6.548C3.952,6.628 3.887,6.652 3.869,6.638C3.869,6.674 3.921,6.689 3.954,6.682C3.994,6.674 4.027,6.613 4.004,6.576C4.009,6.511 4.095,6.492 4.13,6.407C4.162,6.407 4.167,6.357 4.206,6.348C4.198,6.322 4.165,6.356 4.173,6.295L4.174,6.297ZM3.669,6.297C3.674,6.328 3.688,6.342 3.712,6.361C3.693,6.353 3.675,6.349 3.655,6.331C3.673,6.337 3.66,6.292 3.669,6.297ZM4.079,6.212C4.116,6.22 4.163,6.224 4.227,6.22C4.134,6.253 4.091,6.242 4.079,6.212ZM4.198,6.152C4.198,6.157 4.19,6.167 4.183,6.173C4.229,6.173 4.273,6.163 4.305,6.127C4.275,6.141 4.241,6.152 4.198,6.152V6.152ZM4.262,6.048C4.259,6.054 4.247,6.067 4.239,6.076C4.276,6.08 4.35,6.063 4.383,6.026C4.353,6.04 4.306,6.047 4.262,6.047V6.048ZM4.349,5.947C4.342,5.954 4.321,5.976 4.313,5.983C4.35,5.987 4.435,5.957 4.467,5.921C4.437,5.935 4.393,5.947 4.35,5.947L4.349,5.947ZM4.47,5.836C4.468,5.879 4.453,5.907 4.437,5.926C4.45,5.922 4.463,5.919 4.476,5.913C4.475,5.889 4.473,5.861 4.469,5.837L4.47,5.836Z" fill-opacity="1" fill-rule="evenodd" fill="#dfdde2"/><path d="M5.674,6.505C5.711,6.514 5.757,6.49 5.778,6.489C5.788,6.509 5.792,6.531 5.834,6.545C5.806,6.576 5.703,6.586 5.674,6.504V6.505Z" fill-opacity="1" fill-rule="evenodd" fill="#ffffff"/><path d="M6.09,6.675C6.076,6.689 6.062,6.703 6.035,6.719C6.081,6.761 6.176,6.714 6.172,6.672C6.163,6.656 6.137,6.691 6.089,6.675H6.09Z" fill-opacity="1" fill-rule="evenodd" fill="#ffffff"/><path d="M6.272,6.526C6.272,6.581 6.266,6.596 6.259,6.615C6.286,6.633 6.354,6.59 6.362,6.525C6.355,6.509 6.326,6.536 6.272,6.526Z" fill-opacity="1" fill-rule="evenodd" fill="#ffffff"/><path d="M6.398,6.218C6.378,6.223 6.39,6.29 6.367,6.311C6.386,6.321 6.399,6.346 6.412,6.369C6.455,6.336 6.453,6.242 6.398,6.218Z" fill-opacity="1" fill-rule="evenodd" fill="#ffffff"/><path d="M5.721,6.499C5.742,6.493 5.765,6.482 5.773,6.485C5.785,6.44 5.756,6.466 5.721,6.499ZM5.691,6.463C5.732,6.463 5.789,6.47 5.804,6.415C5.868,6.446 5.934,6.387 5.919,6.333C5.919,6.333 5.898,6.426 5.768,6.368C5.741,6.364 5.705,6.381 5.707,6.398C5.709,6.421 5.754,6.441 5.691,6.464V6.463ZM6.039,6.417C6.072,6.451 6.093,6.483 6.086,6.508C6.107,6.478 6.109,6.496 6.113,6.508C6.138,6.527 6.156,6.584 6.094,6.622C6.123,6.63 6.126,6.656 6.094,6.665C6.095,6.692 6.168,6.658 6.174,6.669C6.18,6.667 6.182,6.658 6.183,6.65C6.189,6.642 6.19,6.632 6.183,6.62C6.23,6.542 6.172,6.499 6.122,6.49C6.091,6.458 6.064,6.439 6.038,6.417H6.039ZM6.041,6.333C6.09,6.364 6.159,6.389 6.223,6.431C6.287,6.366 6.335,6.473 6.243,6.48C6.266,6.523 6.364,6.52 6.361,6.486C6.423,6.369 6.256,6.34 6.224,6.382C6.173,6.353 6.128,6.322 6.055,6.309C6.198,6.37 6.223,6.389 6.198,6.393C6.175,6.396 6.095,6.35 6.041,6.333ZM6.084,6.243C6.124,6.226 6.209,6.228 6.232,6.207C6.269,6.139 6.339,6.156 6.361,6.201C6.377,6.201 6.389,6.204 6.391,6.217C6.376,6.25 6.386,6.33 6.345,6.31C6.352,6.304 6.348,6.298 6.345,6.292C6.327,6.31 6.327,6.29 6.327,6.281C6.3,6.312 6.287,6.307 6.268,6.302C6.273,6.3 6.275,6.295 6.274,6.286C6.352,6.256 6.284,6.165 6.222,6.25C6.201,6.256 6.117,6.237 6.085,6.241L6.084,6.243ZM5.469,5.808L5.466,5.817C5.497,5.846 5.771,6.15 5.853,6.279C5.841,6.251 5.846,6.24 5.797,6.181C5.921,6.251 5.982,6.189 5.974,6.175C5.964,6.176 5.957,6.178 5.953,6.175C5.838,6.234 5.753,6.137 5.702,6.072C5.766,6.124 5.808,6.133 5.875,6.137C5.882,6.125 5.883,6.119 5.884,6.113C5.878,6.112 5.872,6.11 5.868,6.107C5.79,6.137 5.697,6.077 5.624,5.977C5.693,6.028 5.744,6.023 5.791,6.023C5.798,6.014 5.809,6.007 5.81,5.996C5.803,5.996 5.798,5.994 5.792,5.992C5.744,6.009 5.623,6.003 5.566,5.903C5.605,5.93 5.65,5.945 5.706,5.931C5.717,5.922 5.73,5.915 5.732,5.905C5.662,5.922 5.593,5.922 5.531,5.867C5.549,5.867 5.568,5.861 5.586,5.852C5.55,5.855 5.511,5.852 5.468,5.808H5.469Z" fill-opacity="1" fill-rule="evenodd" fill="#dfdde2"/><path d="M4.62,3.647C4.756,3.72 4.913,3.553 5.022,3.644C5.034,3.644 5.036,3.636 5.034,3.628C4.907,3.512 4.77,3.683 4.62,3.647Z" fill-opacity="1" fill-rule="evenodd" fill="#c3bdc9"/><path d="M4.57,5.749L4.559,5.76C4.546,5.82 4.515,5.869 4.478,5.915C4.512,5.92 4.552,5.902 4.591,5.884C4.566,5.838 4.561,5.807 4.569,5.749L4.57,5.749Z" fill-opacity="1" fill-rule="evenodd" fill="#c3bdc9"/><path d="M4.609,5.669C4.627,5.707 4.664,5.645 4.681,5.628C4.658,5.71 4.613,5.792 4.712,5.869C4.661,5.874 4.647,5.896 4.694,5.946C4.602,5.901 4.55,5.826 4.609,5.669Z" fill-opacity="1" fill-rule="evenodd" fill="#dfdde2"/><path d="M4.685,5.624C4.653,5.785 4.706,5.849 4.758,5.864C4.738,5.689 4.808,5.564 4.904,5.469C4.898,5.307 4.875,5.234 4.857,5.117C4.858,5.172 4.897,5.32 4.871,5.424C4.844,5.532 4.767,5.637 4.686,5.625L4.685,5.624Z" fill-opacity="1" fill-rule="evenodd" fill="#cecad5"/><path d="M4.365,5.791C4.456,5.797 4.531,5.768 4.591,5.707C4.558,5.787 4.483,5.826 4.371,5.814C4.412,5.807 4.413,5.8 4.365,5.791Z" fill-opacity="1" fill-rule="evenodd" fill="#c3bdc9"/><path d="M4.354,5.698C4.345,5.712 4.338,5.718 4.331,5.725C4.475,5.744 4.555,5.675 4.61,5.614C4.689,5.619 4.744,5.566 4.792,5.514C4.738,5.556 4.683,5.591 4.62,5.583C4.559,5.673 4.472,5.715 4.354,5.697V5.698Z" fill-opacity="1" fill-rule="evenodd" fill="#c3bdc9"/><path d="M4.411,5.588C4.4,5.611 4.397,5.61 4.391,5.618C4.439,5.628 4.507,5.609 4.62,5.513C4.733,5.51 4.78,5.437 4.812,5.404C4.753,5.456 4.692,5.483 4.63,5.484C4.571,5.546 4.506,5.596 4.412,5.588H4.411Z" fill-opacity="1" fill-rule="evenodd" fill="#c3bdc9"/><path d="M4.447,5.498L4.427,5.529C4.466,5.527 4.518,5.529 4.627,5.427C4.711,5.409 4.788,5.345 4.854,5.234C4.799,5.303 4.748,5.375 4.637,5.385C4.609,5.451 4.533,5.478 4.447,5.497V5.498H4.447Z" fill-opacity="1" fill-rule="evenodd" fill="#c3bdc9"/><path d="M5.374,5.632C5.366,5.691 5.353,5.743 5.327,5.784C5.33,5.803 5.329,5.823 5.328,5.842C5.368,5.801 5.396,5.687 5.374,5.632Z" fill-opacity="1" fill-rule="evenodd" fill="#c3bdc9"/><path d="M5.431,5.66C5.474,5.77 5.435,5.917 5.3,5.943C5.342,5.961 5.468,5.904 5.485,5.732L5.588,5.849C5.594,5.822 5.597,5.795 5.579,5.755C5.497,5.738 5.471,5.706 5.432,5.66H5.431Z" fill-opacity="1" fill-rule="evenodd" fill="#c3bdc9"/><path d="M5.497,5.696C5.553,5.72 5.65,5.757 5.747,5.714C5.762,5.72 5.775,5.725 5.79,5.727C5.757,5.762 5.664,5.77 5.579,5.759C5.696,5.743 5.519,5.73 5.497,5.696Z" fill-opacity="1" fill-rule="evenodd" fill="#c5bdcb"/><path d="M5.304,5.499C5.345,5.527 5.39,5.544 5.441,5.544C5.48,5.617 5.59,5.638 5.653,5.634C5.656,5.644 5.663,5.653 5.671,5.661C5.618,5.661 5.551,5.644 5.448,5.578C5.42,5.568 5.322,5.522 5.304,5.499Z" fill-opacity="1" fill-rule="evenodd" fill="#c4bdcb"/><path d="M5.284,5.389C5.324,5.423 5.368,5.44 5.415,5.446C5.464,5.498 5.521,5.524 5.596,5.534L5.612,5.562C5.588,5.564 5.475,5.513 5.433,5.475C5.363,5.457 5.31,5.422 5.285,5.39L5.284,5.389Z" fill-opacity="1" fill-rule="evenodd" fill="#c3bdc9"/><path d="M5.293,5.301C5.339,5.347 5.392,5.366 5.434,5.366C5.466,5.4 5.496,5.435 5.563,5.452C5.566,5.462 5.57,5.469 5.575,5.475C5.524,5.475 5.454,5.404 5.446,5.393C5.378,5.383 5.3,5.348 5.292,5.302L5.293,5.301Z" fill-opacity="1" fill-rule="evenodd" fill="#c3bdc9"/><path d="M4.888,5.095C4.903,5.089 4.91,5.081 4.917,5.073C4.928,5.09 4.946,5.094 4.963,5.098C4.93,5.097 4.926,5.112 4.942,5.139C4.949,5.15 4.96,5.313 4.963,5.41C4.963,5.501 4.976,5.559 4.994,5.599C4.922,5.539 4.962,5.174 4.888,5.096V5.095Z" fill-opacity="1" fill-rule="evenodd" fill="#dfdde2"/><path d="M5.006,5.101C5.046,5.097 5.086,5.095 5.133,5.066L5.15,5.086C5.116,5.161 5.096,5.336 5.076,5.493C5.082,5.393 5.084,5.303 5.079,5.278C5.068,5.222 5.07,5.188 5.071,5.178C5.093,5.099 5.033,5.118 5.007,5.1L5.006,5.101Z" fill-opacity="1" fill-rule="evenodd" fill="#cecad5"/><path d="M5.166,5.096L5.171,5.101C5.104,5.248 5.171,5.585 5.026,5.756L5.023,5.69C5.133,5.617 5.106,5.245 5.166,5.096Z" fill-opacity="1" fill-rule="evenodd" fill="#c3bdc9"/><path d="M4.923,5.458C4.923,5.699 4.962,5.745 4.799,5.946C4.875,5.882 4.96,5.688 4.949,5.799C4.968,5.763 4.987,5.727 4.992,5.697C4.928,5.588 4.931,5.525 4.923,5.458Z" fill-opacity="1" fill-rule="evenodd" fill="#c3bdc9"/><path d="M5.056,5.725L5.025,5.761L5.034,6.08C5.038,5.948 5.045,5.826 5.056,5.725Z" fill-opacity="1" fill-rule="evenodd" fill="#c3bdc9"/><path d="M5.128,5.493C5.12,5.542 5.114,5.601 5.101,5.634C5.123,5.889 5.193,5.914 5.25,5.937C5.154,5.8 5.135,5.617 5.128,5.493Z" fill-opacity="1" fill-rule="evenodd" fill="#dfdde2"/><path d="M4.944,5.827C4.915,5.895 4.924,6.024 4.841,6.108C4.911,6.072 4.937,5.985 4.939,5.918L4.946,5.989C4.923,6.136 4.857,6.176 4.812,6.183C4.819,6.181 4.891,6.196 4.958,6.049C4.96,6.103 4.922,6.163 4.874,6.182C4.917,6.183 4.959,6.145 4.981,6.114C4.946,6.009 4.945,5.918 4.946,5.826L4.944,5.827Z" fill-opacity="1" fill-rule="evenodd" fill="#e0dee2"/><path d="M4.977,6.046C4.984,6.081 4.994,6.131 5.033,6.181L5.036,6.243C5.054,6.219 5.123,6.022 5.124,5.957C5.127,5.936 5.128,5.912 5.143,5.928C5.145,5.929 5.147,5.929 5.149,5.928C5.128,5.913 5.105,5.843 5.089,5.819C5.102,5.895 5.111,6.005 5.033,6.168C5.009,6.14 4.992,6.095 4.977,6.048V6.046Z" fill-opacity="1" fill-rule="evenodd" fill="#c3bdc9"/><path d="M5.311,6.171C5.227,6.215 5.155,6.109 5.119,6.045L5.135,5.956C5.135,5.956 5.142,5.951 5.144,5.955C5.158,6.053 5.219,6.167 5.31,6.172L5.311,6.171Z" fill-opacity="1" fill-rule="evenodd" fill="#dfdde2"/><path d="M5.104,6.079L5.095,6.106C5.128,6.178 5.167,6.203 5.216,6.222C5.118,6.173 5.111,6.126 5.104,6.079Z" fill-opacity="1" fill-rule="evenodd" fill="#dfdde1"/><path d="M5.01,6.203L5.036,6.248L5.056,6.204C5.052,6.323 5.045,6.465 5.041,6.596C5.03,6.464 5.015,6.327 5.01,6.203Z" fill-opacity="1" fill-rule="evenodd" fill="#dfdde2"/><path d="M5.087,6.129C5.085,6.136 5.082,6.142 5.08,6.146C5.167,6.471 5.064,6.643 5.041,6.669C4.981,6.561 4.982,6.456 4.968,6.365C4.976,6.447 4.967,6.552 5.037,6.684V6.738C5.123,6.631 5.176,6.482 5.109,6.16C5.099,6.152 5.094,6.141 5.087,6.131L5.087,6.129Z" fill-opacity="1" fill-rule="evenodd" fill="#c3bdc9"/><path d="M5.009,6.708C5.016,6.72 5.023,6.732 5.038,6.742C5.057,6.722 5.061,6.712 5.069,6.699C5.053,6.784 5.046,6.869 5.034,6.953C5.026,6.87 5.02,6.778 5.009,6.707V6.708Z" fill-opacity="1" fill-rule="evenodd" fill="#dfdde2"/><path d="M5.162,6.721C5.143,6.68 5.121,6.645 5.135,6.599C5.132,6.585 5.126,6.583 5.12,6.58C5.116,6.605 5.107,6.622 5.1,6.639C5.133,6.836 5.087,6.941 5.033,7.031C4.945,6.912 4.961,6.783 4.96,6.673C4.934,6.897 4.988,6.994 5.032,7.045V7.1C5.158,6.914 5.146,6.741 5.118,6.66C5.132,6.681 5.145,6.703 5.163,6.722L5.162,6.721Z" fill-opacity="1" fill-rule="evenodd" fill="#c3bdc9"/><path d="M4.686,6.156C4.703,6.319 4.908,6.27 4.991,6.146L4.983,6.125C4.906,6.225 4.74,6.315 4.686,6.156Z" fill-opacity="1" fill-rule="evenodd" fill="#c4bec9"/><path d="M4.972,6.216C4.897,6.373 4.806,6.485 4.681,6.495C4.766,6.502 4.857,6.433 4.886,6.403C4.907,6.367 4.932,6.354 4.907,6.403C4.897,6.42 4.887,6.432 4.871,6.448C4.891,6.44 4.932,6.375 4.941,6.369C4.945,6.301 4.96,6.264 4.972,6.217V6.216Z" fill-opacity="1" fill-rule="evenodd" fill="#dfdde2"/><path d="M4.941,6.374C4.94,6.391 4.938,6.409 4.938,6.424C4.819,6.547 4.717,6.586 4.609,6.56C4.699,6.562 4.803,6.572 4.941,6.374Z" fill-opacity="1" fill-rule="evenodd" fill="#c3beca"/><path d="M4.557,6.444C4.532,6.379 4.541,6.326 4.587,6.287C4.494,6.285 4.393,6.459 4.565,6.546C4.479,6.496 4.475,6.39 4.503,6.355C4.522,6.325 4.549,6.316 4.529,6.35C4.516,6.405 4.54,6.432 4.556,6.443L4.557,6.444Z" fill-opacity="1" fill-rule="evenodd" fill="#dfdde2"/><path d="M5.114,6.169C5.132,6.197 5.154,6.222 5.182,6.239C5.174,6.398 5.348,6.503 5.466,6.458C5.398,6.508 5.176,6.496 5.114,6.168V6.169Z" fill-opacity="1" fill-rule="evenodd" fill="#dfdde2"/><path d="M5.14,6.37V6.389C5.221,6.525 5.359,6.53 5.4,6.525C5.273,6.523 5.193,6.463 5.14,6.37Z" fill-opacity="1" fill-rule="evenodd" fill="#c5c0ce"/><path d="M5.495,6.27C5.603,6.346 5.573,6.463 5.458,6.512C5.547,6.453 5.591,6.376 5.495,6.27Z" fill-opacity="1" fill-rule="evenodd" fill="#e1dfe3"/><path d="M5.369,6.545C5.472,6.564 5.645,6.482 5.552,6.302C5.646,6.412 5.541,6.609 5.369,6.545Z" fill-opacity="1" fill-rule="evenodd" fill="#c3bdc9"/><path d="M5.14,6.478C5.14,6.487 5.139,6.495 5.136,6.511C5.224,6.687 5.274,6.699 5.33,6.745C5.223,6.666 5.169,6.574 5.14,6.478Z" fill-opacity="1" fill-rule="evenodd" fill="#e0dee3"/><path d="M5.285,6.809C5.304,6.817 5.317,6.811 5.333,6.817C5.468,6.864 5.634,6.784 5.584,6.62C5.673,6.707 5.51,6.955 5.286,6.809H5.285Z" fill-opacity="1" fill-rule="evenodd" fill="#c5becc"/><path d="M5.521,6.572C5.623,6.674 5.518,6.814 5.383,6.766C5.527,6.786 5.581,6.666 5.521,6.572Z" fill-opacity="1" fill-rule="evenodd" fill="#c3beca"/><path d="M4.531,6.571C4.392,6.664 4.469,6.777 4.533,6.804C4.509,6.786 4.483,6.723 4.559,6.757C4.584,6.768 4.607,6.769 4.628,6.767C4.486,6.721 4.518,6.644 4.531,6.57V6.571Z" fill-opacity="1" fill-rule="evenodd" fill="#dfdde2"/><path d="M4.939,6.443C4.942,6.491 4.948,6.529 4.955,6.559C4.91,6.649 4.856,6.71 4.801,6.752C4.866,6.689 4.917,6.625 4.938,6.558C4.824,6.737 4.746,6.764 4.665,6.768C4.766,6.745 4.913,6.658 4.94,6.444L4.939,6.443Z" fill-opacity="1" fill-rule="evenodd" fill="#dfdde2"/><path d="M4.956,6.566C4.959,6.58 4.963,6.595 4.971,6.606C4.827,6.884 4.636,6.876 4.571,6.853C4.695,6.866 4.652,6.843 4.612,6.836C4.758,6.841 4.888,6.74 4.956,6.567V6.566Z" fill-opacity="1" fill-rule="evenodd" fill="#c3bec9"/><path d="M4.838,5.04C4.857,5.027 4.866,5.012 4.876,4.997C4.88,5.005 4.887,5.011 4.897,5.018C4.87,5.027 4.86,5.067 4.845,5.067C4.843,5.058 4.842,5.048 4.838,5.039V5.04Z" fill-opacity="1" fill-rule="evenodd" fill="#c5becb"/><path d="M4.899,5.019C4.939,5.034 4.981,5.032 5.031,4.996C5.036,5.001 5.042,5.006 5.048,5.012C5,5.047 4.919,5.038 4.898,5.019H4.899Z" fill-opacity="1" fill-rule="evenodd" fill="#c3bdc9"/><path d="M5.072,5.018C5.1,5.023 5.129,5.03 5.166,5.009C5.171,5.016 5.177,5.022 5.182,5.027C5.17,5.039 5.107,5.038 5.071,5.018L5.072,5.018Z" fill-opacity="1" fill-rule="evenodd" fill="#c3bdc9"/><path d="M5.191,4.941C5.2,4.947 5.216,4.964 5.232,4.973C5.22,4.99 5.208,5.009 5.197,5.031C5.143,4.984 5.181,4.935 5.191,4.941Z" fill-opacity="1" fill-rule="evenodd" fill="#c3bdc9"/><path d="M4.802,4.954C4.809,4.965 4.814,4.972 4.819,4.98C4.852,4.957 4.863,4.932 4.874,4.908C4.869,4.905 4.865,4.901 4.861,4.895C4.835,4.94 4.819,4.946 4.801,4.955V4.954H4.802Z" fill-opacity="1" fill-rule="evenodd" fill="#c3bdc9"/><path d="M4.876,4.909L4.872,4.916C4.936,4.953 5.041,4.981 5.174,4.913L5.161,4.886C5.075,4.954 4.978,4.966 4.876,4.909Z" fill-opacity="1" fill-rule="evenodd" fill="#c3bdc9"/><path d="M5.185,4.909C5.222,4.902 5.209,4.854 5.245,4.84C5.302,4.926 5.401,4.905 5.441,4.838L5.447,4.887C5.409,4.911 5.359,4.953 5.275,4.914C5.268,4.927 5.267,4.949 5.266,4.974C5.229,4.962 5.199,4.942 5.185,4.909Z" fill-opacity="1" fill-rule="evenodd" fill="#c3bdc9"/><path d="M5.302,4.747C5.316,4.775 5.302,4.84 5.304,4.862C5.276,4.858 5.26,4.835 5.245,4.816C5.248,4.816 5.25,4.815 5.251,4.812C5.254,4.794 5.288,4.786 5.302,4.747Z" fill-opacity="1" fill-rule="evenodd" fill="#c3bdc9"/><path d="M5.049,4.827L5.046,4.831C5.091,4.847 5.182,4.855 5.247,4.811L5.235,4.79C5.19,4.829 5.131,4.848 5.049,4.827Z" fill-opacity="1" fill-rule="evenodd" fill="#c3beca"/><path d="M5.023,4.812C5.031,4.818 5.039,4.824 5.046,4.826C4.986,4.882 4.898,4.867 4.809,4.82C4.809,4.817 4.809,4.815 4.809,4.812C4.911,4.868 4.983,4.852 5.023,4.812Z" fill-opacity="1" fill-rule="evenodd" fill="#c3bdc9"/><path d="M4.805,4.812C4.826,4.846 4.772,4.857 4.771,4.908L4.749,4.881C4.749,4.848 4.793,4.853 4.804,4.812H4.805Z" fill-opacity="1" fill-rule="evenodd" fill="#c3bec9"/><path d="M4.745,4.87L4.704,4.806C4.66,4.748 4.805,4.737 4.789,4.63C4.798,4.637 4.808,4.647 4.816,4.652C4.811,4.738 4.735,4.736 4.734,4.795C4.724,4.791 4.719,4.782 4.717,4.77C4.714,4.773 4.712,4.773 4.709,4.777C4.691,4.8 4.717,4.813 4.744,4.869L4.745,4.87Z" fill-opacity="1" fill-rule="evenodd" fill="#c3bec9"/><path d="M4.785,4.753C4.827,4.759 4.869,4.753 4.909,4.715C4.916,4.722 4.92,4.729 4.93,4.735C4.88,4.766 4.811,4.77 4.785,4.753Z" fill-opacity="1" fill-rule="evenodd" fill="#c3bdc9"/><path d="M4.932,4.736L4.927,4.74C4.998,4.781 5.096,4.78 5.148,4.744C5.14,4.74 5.134,4.734 5.128,4.729C5.065,4.776 4.971,4.761 4.932,4.737V4.736Z" fill-opacity="1" fill-rule="evenodd" fill="#c5becb"/><path d="M5.15,4.744L5.146,4.749C5.196,4.769 5.258,4.767 5.3,4.743C5.297,4.735 5.295,4.727 5.289,4.72C5.242,4.757 5.196,4.754 5.149,4.744H5.15Z" fill-opacity="1" fill-rule="evenodd" fill="#c4bec9"/><path d="M4.824,4.657C4.898,4.695 4.978,4.67 5.021,4.631C5.029,4.641 5.036,4.646 5.044,4.651C4.99,4.699 4.849,4.693 4.824,4.657Z" fill-opacity="1" fill-rule="evenodd" fill="#c4bec9"/><path d="M5.046,4.652L5.042,4.655C5.108,4.701 5.209,4.673 5.236,4.655C5.233,4.644 5.229,4.635 5.226,4.627C5.18,4.667 5.11,4.68 5.046,4.651V4.652Z" fill-opacity="1" fill-rule="evenodd" fill="#c3bdc9"/><path d="M4.638,4.558L4.648,4.563C4.658,4.548 4.667,4.545 4.671,4.551C4.675,4.557 4.667,4.567 4.678,4.577C4.712,4.55 4.791,4.531 4.8,4.491C4.815,4.532 4.863,4.533 4.903,4.603C4.894,4.55 4.839,4.535 4.817,4.499C4.795,4.463 4.808,4.419 4.826,4.361C4.789,4.411 4.818,4.482 4.757,4.514C4.719,4.534 4.646,4.53 4.639,4.557L4.638,4.558Z" fill-opacity="1" fill-rule="evenodd" fill="#c3bdc9"/><path d="M4.955,4.305L4.957,4.353C4.895,4.378 4.943,4.535 4.918,4.57C4.908,4.435 4.853,4.387 4.955,4.306V4.305Z" fill-opacity="1" fill-rule="evenodd" fill="#c3bdc9"/><path d="M5.005,4.42H5.013C5.021,4.508 5.113,4.516 5.129,4.603C5.109,4.543 5.058,4.525 5.029,4.494C5.014,4.561 4.932,4.581 4.913,4.619C4.907,4.588 5.024,4.544 5.005,4.42Z" fill-opacity="1" fill-rule="evenodd" fill="#c3bdc9"/><path d="M5.145,4.335C5.097,4.412 5.192,4.46 5.141,4.588C5.168,4.421 5.052,4.434 5.125,4.314C5.151,4.339 5.238,4.364 5.246,4.406C5.216,4.364 5.172,4.361 5.145,4.334V4.335Z" fill-opacity="1" fill-rule="evenodd" fill="#c3bdc9"/><path d="M5.245,4.417C5.254,4.447 5.262,4.458 5.27,4.478C5.243,4.565 5.139,4.595 5.133,4.626C5.115,4.586 5.246,4.564 5.245,4.417Z" fill-opacity="1" fill-rule="evenodd" fill="#c3bdc9"/><path d="M5.344,4.329C5.327,4.325 5.312,4.329 5.293,4.31C5.296,4.338 5.291,4.355 5.288,4.372C5.322,4.392 5.345,4.576 5.359,4.584C5.352,4.505 5.355,4.401 5.307,4.344L5.309,4.334C5.324,4.339 5.335,4.338 5.344,4.329Z" fill-opacity="1" fill-rule="evenodd" fill="#c3bdc9"/><path d="M4.706,4.473C4.738,4.424 4.767,4.366 4.808,4.336C4.85,4.306 4.877,4.318 4.961,4.249L4.992,4.165C4.921,4.269 4.837,4.342 4.716,4.317C4.723,4.321 4.727,4.331 4.778,4.334C4.752,4.359 4.73,4.414 4.706,4.473Z" fill-opacity="1" fill-rule="evenodd" fill="#c3bdc9"/><path d="M4.688,4.24C4.751,4.272 4.829,4.289 4.963,4.097C4.992,4.089 5.019,4.074 5.045,4.046C4.959,4.253 4.716,4.381 4.688,4.24Z" fill-opacity="1" fill-rule="evenodd" fill="#dfdde2"/><path d="M4.972,4.36C5.074,3.974 5.382,3.743 5.115,3.538C5.309,3.875 5.001,4.018 4.972,4.36Z" fill-opacity="1" fill-rule="evenodd" fill="#f1eef0"/><path d="M4.899,4.027C4.904,4.128 5.031,4.053 5.062,3.987C5.01,4.022 4.959,4.054 4.899,4.027Z" fill-opacity="1" fill-rule="evenodd" fill="#dfdde2"/><path d="M5.09,3.869C5.102,3.853 5.103,3.868 5.123,3.873C5.077,3.97 4.998,3.997 4.955,3.999C5.013,3.968 5.067,3.933 5.09,3.869L5.09,3.869Z" fill-opacity="1" fill-rule="evenodd" fill="#dfdde2"/><path d="M5.059,3.705L5.069,3.715C5.083,3.715 5.097,3.715 5.111,3.701C5.111,3.713 5.107,3.719 5.1,3.722C5.108,3.793 5.1,3.835 5.091,3.867C5.102,3.854 5.112,3.872 5.124,3.872C5.142,3.844 5.172,3.746 5.124,3.663C5.125,3.686 5.099,3.711 5.06,3.705L5.059,3.705Z" fill-opacity="1" fill-rule="evenodd" fill="#c3bdc9"/><path d="M4.893,3.674C4.97,3.643 5.014,3.698 5.049,3.703C5.104,3.785 5.047,3.855 5.01,3.899C5.035,3.857 5.071,3.687 4.894,3.674H4.893Z" fill-opacity="1" fill-rule="evenodd" fill="#c3bdc9"/><path d="M4.962,4.406C5.046,4.446 5.086,4.349 5.125,4.312C5.106,4.267 5.111,4.229 5.11,4.189C5.036,4.229 5.038,4.374 4.962,4.406Z" fill-opacity="1" fill-rule="evenodd" fill="#cecad5"/><path d="M5.249,3.724C5.242,3.727 5.241,3.755 5.232,3.754C5.226,3.949 5.05,4.057 5.009,4.338C5.034,4.308 5.053,4.189 5.118,4.08C5.188,3.967 5.255,3.902 5.248,3.724H5.249Z" fill-opacity="1" fill-rule="evenodd" fill="#cecad5"/><path d="M5.159,4.092C5.089,4.282 5.228,4.284 5.24,4.346C5.096,4.297 5.086,4.192 5.159,4.092Z" fill-opacity="1" fill-rule="evenodd" fill="#dfdde2"/><path d="M5.185,3.547C5.418,3.699 5.217,4.007 5.13,4.09C5.165,4.013 5.375,3.799 5.185,3.547Z" fill-opacity="1" fill-rule="evenodd" fill="#dfdde2"/><path d="M5.264,3.462C5.287,3.506 5.326,3.576 5.27,3.562C5.369,3.783 5.26,3.897 5.205,4.021C5.091,4.322 5.281,4.203 5.259,4.413C5.323,4.337 5.239,4.227 5.243,4.188C5.238,4.132 5.273,4.014 5.285,3.941C5.298,3.981 5.319,4.005 5.345,4.021C5.3,3.864 5.44,3.555 5.265,3.463H5.264V3.462Z" fill-opacity="1" fill-rule="evenodd" fill="#cecad5"/><path d="M5.287,3.982C5.298,3.998 5.305,4.016 5.324,4.027C5.333,4.088 5.248,4.283 5.377,4.298C5.272,4.35 5.214,4.199 5.287,3.983V3.982Z" fill-opacity="1" fill-rule="evenodd" fill="#cecad5"/><path d="M5.23,3.401C5.252,3.403 5.304,3.44 5.354,3.401C5.388,3.447 5.325,3.486 5.259,3.452C5.242,3.441 5.297,3.436 5.23,3.402V3.401Z" fill-opacity="1" fill-rule="evenodd" fill="#c3bdc9"/><path d="M4.84,3.418C4.86,3.44 4.88,3.452 4.899,3.505C4.912,3.505 4.926,3.507 4.94,3.511C4.917,3.474 4.889,3.44 4.84,3.418Z" fill-opacity="1" fill-rule="evenodd" fill="#dfdde2"/><path d="M5.053,3.355C5.256,3.41 5.237,3.315 5.274,3.301C5.309,3.359 5.21,3.435 5.053,3.355Z" fill-opacity="1" fill-rule="evenodd" fill="#c3bdc9"/><path d="M4.805,3.395C4.793,3.391 4.783,3.392 4.776,3.393C4.794,3.246 4.955,3.339 5.042,3.394C4.932,3.341 4.795,3.273 4.805,3.394V3.395Z" fill-opacity="1" fill-rule="evenodd" fill="#c3bec9"/><path d="M4.806,3.395C4.797,3.228 5.035,3.419 5.145,3.425C5.068,3.434 4.815,3.264 4.817,3.397L4.806,3.394V3.395Z" fill-opacity="1" fill-rule="evenodd" fill="#f1eef0"/><path d="M4.82,3.399L4.84,3.407C4.842,3.392 4.848,3.377 4.855,3.375C4.902,3.366 4.858,3.39 4.866,3.398C4.875,3.403 4.885,3.411 4.895,3.416C4.895,3.409 4.895,3.401 4.896,3.392C4.896,3.354 5.005,3.414 5.081,3.439C5.089,3.462 5.038,3.49 4.999,3.482C5.034,3.511 5.111,3.497 5.144,3.45C5.203,3.454 5.216,3.445 5.228,3.43C5.184,3.421 5.163,3.443 5.051,3.412C4.948,3.383 4.823,3.295 4.82,3.399Z" fill-opacity="1" fill-rule="evenodd" fill="#c3bdc9"/><path d="M4.913,3.381C4.926,3.38 4.937,3.384 4.949,3.389C4.926,3.425 4.96,3.459 4.979,3.453C4.985,3.459 4.992,3.465 5.012,3.47C4.983,3.476 4.882,3.445 4.913,3.38L4.913,3.381Z" fill-opacity="1" fill-rule="evenodd" fill="#b6b1bf"/><path d="M4.647,3.586C4.534,3.368 4.86,3.329 4.894,3.51C4.894,3.51 4.975,3.513 5.046,3.552C5.185,3.653 5.101,3.711 5.073,3.707C5.009,3.708 4.996,3.645 4.902,3.669C4.879,3.678 4.878,3.689 4.868,3.689C4.812,3.675 4.915,3.561 5.026,3.643C5.036,3.65 5.058,3.636 5.039,3.614C4.965,3.539 4.835,3.581 4.808,3.587C4.772,3.529 4.692,3.542 4.649,3.587L4.647,3.586Z" fill-opacity="1" fill-rule="evenodd" fill="#f1eef0"/><path d="M4.971,3.408C4.985,3.419 5.057,3.431 5.059,3.438C5.036,3.492 4.961,3.476 4.971,3.408Z" fill-opacity="1" fill-rule="evenodd" fill="#aaa3b5"/><path d="M5.452,4.884C5.452,4.884 5.45,4.886 5.452,4.888C5.469,4.897 5.49,4.902 5.515,4.904L5.575,5.254C5.57,5.163 5.564,5.069 5.562,4.982C5.555,4.965 5.55,4.934 5.546,4.903C5.554,4.903 5.561,4.901 5.569,4.899C5.606,5.12 5.697,5.164 5.715,5.182C5.667,5.131 5.601,5.06 5.581,4.895C5.613,4.877 5.628,4.855 5.638,4.851C5.641,4.842 5.639,4.819 5.635,4.809C5.602,4.84 5.574,4.877 5.507,4.872C5.503,4.872 5.507,4.878 5.507,4.878C5.533,4.912 5.482,4.891 5.454,4.885L5.452,4.884Z" fill-opacity="1" fill-rule="evenodd" fill="#c3bdc9"/><path d="M5.578,5.291L5.581,5.343C5.613,5.322 5.644,5.315 5.688,5.215C5.705,5.394 5.707,5.568 5.811,5.604C5.758,5.481 5.758,5.346 5.754,5.216C5.748,5.224 5.741,5.23 5.735,5.236C5.692,5.211 5.68,5.191 5.657,5.168C5.643,5.213 5.635,5.26 5.579,5.29L5.578,5.291Z" fill-opacity="1" fill-rule="evenodd" fill="#cecad5"/><path d="M5.655,4.857C5.668,4.862 5.685,4.864 5.702,4.864L5.72,5.124L5.655,4.857Z" fill-opacity="1" fill-rule="evenodd" fill="#dfdde2"/><path d="M5.779,4.838L5.787,4.833C5.808,4.88 5.837,4.922 5.879,4.955L5.99,5.709L5.829,4.953C5.829,5.083 5.792,5.17 5.734,5.229L5.728,5.179C5.79,5.095 5.826,4.995 5.78,4.839L5.779,4.838Z" fill-opacity="1" fill-rule="evenodd" fill="#c3bdc9"/><path d="M5.949,5.013C5.966,5.023 5.985,5.032 6.007,5.038C6.075,5.266 6.1,5.715 6.011,5.877L6.003,5.815C5.848,5.696 5.808,5.362 5.778,5.175L5.783,5.166C5.812,5.336 5.848,5.665 6,5.798C6.028,5.711 6.087,5.459 5.981,5.04C5.973,5.031 5.96,5.022 5.949,5.013Z" fill-opacity="1" fill-rule="evenodd" fill="#c4bec9"/><path d="M5.854,4.77C5.868,4.768 5.875,4.77 5.896,4.764L6.045,4.987L5.854,4.77Z" fill-opacity="1" fill-rule="evenodd" fill="#dfdde2"/><path d="M6.013,5.04C6.035,5.047 6.062,5.053 6.089,5.059C6.089,5.066 6.306,5.626 6.457,5.669C6.264,5.707 6.167,5.367 6.042,5.166C6.033,5.123 6.023,5.081 6.013,5.041L6.013,5.04Z" fill-opacity="1" fill-rule="evenodd" fill="#dfdde2"/><path d="M5.987,4.703C5.987,4.703 5.983,4.709 5.98,4.711C6.068,4.848 6.07,4.932 6.058,5.007L6.094,5.053C6.112,4.949 6.093,4.871 6.067,4.798L6.506,5.438L6.119,4.815L6.201,4.827C6.133,4.804 6.064,4.796 5.987,4.703Z" fill-opacity="1" fill-rule="evenodd" fill="#c3bdc9"/><path d="M6.252,4.828C6.268,4.828 6.283,4.828 6.295,4.824C6.382,4.966 6.606,5.224 6.579,5.576L6.551,5.522C6.344,5.475 6.199,5.212 6.126,5.105C6.248,5.267 6.385,5.477 6.546,5.509C6.559,5.247 6.363,4.99 6.252,4.828Z" fill-opacity="1" fill-rule="evenodd" fill="#c3bdc9"/><path d="M6.297,4.823L6.305,4.836C6.497,4.938 6.713,5.142 6.846,4.992C6.708,5.048 6.484,4.852 6.337,4.778L6.344,4.81C6.328,4.818 6.313,4.82 6.298,4.823H6.297Z" fill-opacity="1" fill-rule="evenodd" fill="#dfdde2"/><path d="M6.025,4.582C6.025,4.588 6.025,4.592 6.024,4.596L6.262,4.745L6.045,4.57C6.04,4.576 6.032,4.578 6.025,4.582Z" fill-opacity="1" fill-rule="evenodd" fill="#dfdde2"/><path d="M6.323,4.722C6.327,4.738 6.332,4.754 6.335,4.771C6.621,4.904 6.792,4.871 6.875,4.819L6.83,4.803C6.705,4.886 6.4,4.774 6.323,4.722Z" fill-opacity="1" fill-rule="evenodd" fill="#c3bdc9"/><path d="M6.095,4.495C6.095,4.495 6.093,4.503 6.092,4.507C6.214,4.572 6.298,4.691 6.295,4.774L6.337,4.808C6.321,4.67 6.271,4.619 6.222,4.568L6.803,4.797L6.239,4.531C6.314,4.514 6.392,4.509 6.457,4.431L6.59,4.426C6.704,4.408 6.832,4.342 6.845,4.28L6.803,4.285C6.748,4.407 6.533,4.403 6.422,4.407C6.37,4.504 6.206,4.511 6.094,4.496L6.095,4.495Z" fill-opacity="1" fill-rule="evenodd" fill="#c3bdc9"/><path d="M6.42,4.468C6.405,4.48 6.39,4.488 6.374,4.495C6.435,4.508 6.491,4.525 6.543,4.545C6.694,4.561 6.842,4.538 6.849,4.41C6.786,4.512 6.606,4.493 6.421,4.468H6.42Z" fill-opacity="1" fill-rule="evenodd" fill="#dfdde2"/><path d="M6.093,4.379C6.097,4.392 6.099,4.403 6.101,4.415L6.409,4.407C6.304,4.398 6.196,4.39 6.093,4.379Z" fill-opacity="1" fill-rule="evenodd" fill="#dfdde2"/><path d="M6.242,4.254C6.304,4.283 6.361,4.315 6.407,4.352L6.366,4.314C6.498,4.303 6.632,4.292 6.78,4.284L6.312,4.281L6.242,4.254Z" fill-opacity="1" fill-rule="evenodd" fill="#c3bdc9"/><path d="M6.143,4.265C6.142,4.272 6.138,4.278 6.135,4.285L6.238,4.255C6.392,4.144 6.399,4.089 6.419,4.029L6.653,3.881L6.386,4.015C6.242,4.016 6.204,4.037 6.16,4.048C6.283,4.022 6.364,4.018 6.409,4.032L6.38,4.049C6.344,4.173 6.205,4.244 6.142,4.266L6.143,4.265Z" fill-opacity="1" fill-rule="evenodd" fill="#c3bdc9"/><path d="M6.142,4.164C6.146,4.172 6.147,4.182 6.149,4.191C6.222,4.151 6.291,4.107 6.359,4.063C6.287,4.098 6.214,4.135 6.142,4.165V4.164Z" fill-opacity="1" fill-rule="evenodd" fill="#dfdde2"/><path d="M6.34,4.18C6.423,4.173 6.506,4.171 6.593,4.178C6.613,4.167 6.823,4.105 6.772,3.994C6.712,4.116 6.488,4.158 6.47,4.168C6.435,4.172 6.348,4.175 6.34,4.181V4.18Z" fill-opacity="1" fill-rule="evenodd" fill="#dfdde2"/><path d="M6.685,3.866L6.732,3.846C6.737,3.855 6.703,3.918 6.644,3.985C6.565,4.072 6.52,4.109 6.372,4.136C6.375,4.132 6.378,4.128 6.38,4.124C6.495,4.093 6.652,3.981 6.685,3.867V3.866Z" fill-opacity="1" fill-rule="evenodd" fill="#dfdce1"/><path d="M6.193,3.988L6.179,4.009C6.311,3.913 6.416,3.855 6.495,3.83C6.574,3.746 6.592,3.662 6.559,3.615C6.564,3.77 6.319,3.886 6.192,3.988H6.193Z" fill-opacity="1" fill-rule="evenodd" fill="#dfdde2"/><path d="M6.108,4.048L6.103,4.087C6.201,4.016 6.253,3.885 6.24,3.776L6.205,3.812L6.053,3.936C6.061,3.943 6.069,3.951 6.075,3.958L6.205,3.816C6.214,3.933 6.135,4.025 6.108,4.048Z" fill-opacity="1" fill-rule="evenodd" fill="#c3bec9"/><path d="M6.241,3.863L6.232,3.896C6.295,3.856 6.339,3.814 6.378,3.772C6.487,3.644 6.501,3.534 6.511,3.48L6.464,3.518C6.472,3.68 6.291,3.835 6.242,3.862L6.241,3.863Z" fill-opacity="1" fill-rule="evenodd" fill="#dfdde2"/><path d="M6.187,3.772C6.205,3.772 6.224,3.771 6.242,3.772L6.455,3.525L6.187,3.772Z" fill-opacity="1" fill-rule="evenodd" fill="#c3bdc9"/><path d="M6.03,3.632L6.003,3.663C6.014,3.724 6.014,3.806 5.925,3.905L5.928,3.91L5.934,3.908C6.005,3.82 6.079,3.797 6.154,3.775C6.11,3.786 6.066,3.793 6.018,3.819C6.052,3.717 6.037,3.665 6.03,3.633V3.632Z" fill-opacity="1" fill-rule="evenodd" fill="#c3bdc9"/><path d="M6.04,3.713V3.733C6.116,3.685 6.193,3.628 6.263,3.55C6.304,3.497 6.357,3.422 6.363,3.322L6.323,3.354C6.315,3.522 6.099,3.666 6.04,3.714L6.04,3.713Z" fill-opacity="1" fill-rule="evenodd" fill="#dfdde2"/><path d="M5.867,3.691C5.929,3.665 5.989,3.639 6.031,3.631L6.3,3.379C6.228,3.432 6.076,3.563 6.005,3.617C5.98,3.636 5.956,3.635 5.866,3.691H5.867Z" fill-opacity="1" fill-rule="evenodd" fill="#dfdde2"/><path d="M6.315,3.355C5.633,3.474 5.255,4.301 5.711,4.227L5.685,4.221C5.594,4.229 5.571,4.149 5.579,4.098C5.587,4.044 5.64,4.013 5.655,4.008C5.651,3.959 5.649,3.91 5.696,3.871C5.715,3.825 5.737,3.801 5.759,3.777C5.83,3.516 6.192,3.386 6.315,3.356L6.315,3.355Z" fill-opacity="1" fill-rule="evenodd" fill="#f1eef0"/><path d="M5.997,3.662C5.912,3.675 5.795,3.769 5.778,3.809C5.776,3.813 5.778,3.819 5.748,3.835V3.84C5.779,3.827 5.858,3.84 5.784,3.858C5.832,3.857 5.875,3.876 5.903,3.941C6.061,3.917 6.1,4.033 6.061,4.109C6.165,4.2 6.099,4.316 6.042,4.338C6.076,4.416 6.094,4.518 5.988,4.558C5.988,4.627 5.978,4.734 5.816,4.734C5.796,4.78 5.739,4.86 5.641,4.817C5.641,4.817 5.641,4.82 5.641,4.823C5.639,4.828 5.681,4.839 5.682,4.837C5.716,4.841 5.72,4.863 5.679,4.853C5.664,4.849 5.652,4.845 5.641,4.84C5.641,4.84 5.641,4.847 5.639,4.851C5.745,4.888 5.806,4.823 5.839,4.768C5.965,4.761 6.017,4.692 6.024,4.582C6.127,4.518 6.113,4.419 6.081,4.351C6.173,4.282 6.166,4.16 6.097,4.104C6.144,3.943 6.003,3.901 5.928,3.912C5.903,3.869 5.886,3.863 5.868,3.851L6.002,3.669L5.84,3.837C5.824,3.831 5.802,3.829 5.776,3.83C5.811,3.743 5.945,3.677 5.999,3.662H5.997V3.662Z" fill-opacity="1" fill-rule="evenodd" fill="#c3bdc9"/><path d="M4.756,3.47C4.776,3.501 4.811,3.461 4.867,3.522L4.874,3.519C4.861,3.467 4.826,3.436 4.775,3.43C4.797,3.449 4.781,3.45 4.78,3.463C4.78,3.474 4.78,3.487 4.756,3.47Z" fill-opacity="1" fill-rule="evenodd" fill="#d0ccd5"/><path d="M4.666,3.564C4.697,3.547 4.764,3.522 4.807,3.582C4.941,3.542 5.036,3.579 5.049,3.633C5.057,3.618 5.019,3.536 4.866,3.55C4.735,3.457 4.661,3.541 4.665,3.564H4.666Z" fill-opacity="1" fill-rule="evenodd" fill="#aaa3b5"/><path d="M4.871,3.68C4.847,3.68 4.92,3.593 5.039,3.675C5.082,3.692 5.103,3.67 5.095,3.635C5.092,3.609 5.078,3.594 5.069,3.574C5.129,3.619 5.136,3.675 5.096,3.697C5.032,3.729 4.988,3.617 4.871,3.679L4.871,3.68Z" fill-opacity="1" fill-rule="evenodd" fill="#c3bdc9"/><path d="M4.772,4.912L4.799,4.95L4.792,4.945C4.716,4.981 4.678,4.967 4.641,4.95L4.637,4.947C4.56,4.962 4.512,4.942 4.47,4.911C4.473,4.934 4.489,4.952 4.51,4.968L4.428,5.323L4.467,4.99C4.421,5.12 4.36,5.181 4.277,5.218L4.283,5.181C4.359,5.142 4.424,5.068 4.455,4.906C4.424,4.91 4.394,4.914 4.363,4.906L4.287,5.17L4.324,4.897C4.291,4.875 4.263,4.848 4.236,4.82V4.815C4.244,4.827 4.252,4.791 4.251,4.78C4.309,4.873 4.389,4.89 4.468,4.863C4.468,4.872 4.468,4.88 4.464,4.893H4.468C4.468,4.893 4.473,4.884 4.475,4.877C4.473,4.875 4.472,4.872 4.471,4.869V4.866C4.516,4.945 4.624,4.908 4.638,4.915C4.636,4.919 4.638,4.931 4.641,4.941L4.643,4.944C4.643,4.944 4.645,4.933 4.643,4.925L4.639,4.918L4.642,4.92C4.678,4.948 4.729,4.946 4.771,4.911L4.772,4.912Z" fill-opacity="1" fill-rule="evenodd" fill="#c3bdc9"/><path d="M4.522,4.975C4.546,4.987 4.572,4.996 4.601,5.002C4.588,5.169 4.504,5.359 4.415,5.416L4.417,5.369C4.395,5.332 4.378,5.275 4.373,5.155L4.38,5.148C4.382,5.232 4.391,5.307 4.419,5.366C4.461,5.334 4.552,5.228 4.567,5.024C4.567,5.011 4.564,5.004 4.557,5C4.54,4.991 4.531,4.983 4.521,4.976L4.522,4.975Z" fill-opacity="1" fill-rule="evenodd" fill="#c1c1c9"/><path d="M4.201,5.68C4.297,5.706 4.36,5.52 4.396,5.396C4.379,5.362 4.355,5.327 4.353,5.176L4.345,5.184C4.335,5.379 4.333,5.594 4.2,5.68L4.201,5.68Z" fill-opacity="1" fill-rule="evenodd" fill="#c3bdc9"/><path d="M4.246,4.833L4.252,4.838C4.245,4.875 4.196,5.009 4.257,5.139C4.223,5.088 4.195,5.008 4.248,4.833H4.246Z" fill-opacity="1" fill-rule="evenodd" fill="#dfdde3"/><path d="M4.195,4.914L4.176,4.944L3.973,5.774L4.189,5.083C4.2,5.123 4.213,5.165 4.269,5.231C4.19,5.512 4.064,5.764 3.957,5.831L3.967,5.797C3.922,5.658 3.958,5.364 4.037,5.068C3.986,5.231 3.883,5.584 3.949,5.842L3.928,5.905C4.141,5.759 4.266,5.392 4.314,5.205C4.302,5.214 4.289,5.219 4.276,5.224C4.209,5.163 4.177,5.066 4.195,4.915L4.195,4.914Z" fill-opacity="1" fill-rule="evenodd" fill="#c3bdc9"/><path d="M4.067,4.683C4.072,4.708 4.102,4.738 4.117,4.764C4.125,4.777 4.134,4.783 4.144,4.767L4.153,4.752C4.175,4.777 4.206,4.791 4.25,4.783L4.197,4.908C4.134,5.029 4.052,5.055 3.97,5.084L3.996,5.036C4.103,5.026 4.179,4.92 4.219,4.822C4.192,4.816 4.166,4.805 4.136,4.786L4.011,5.006L4.094,4.783C4.111,4.748 4.066,4.721 4.067,4.683Z" fill-opacity="1" fill-rule="evenodd" fill="#c3bdc9"/><path d="M4.016,5.069C4.001,5.075 3.985,5.081 3.968,5.085C3.831,5.394 3.755,5.67 3.509,5.757C3.731,5.799 3.88,5.441 3.935,5.334C3.974,5.236 3.998,5.146 4.016,5.068V5.069H4.016Z" fill-opacity="1" fill-rule="evenodd" fill="#cecad5"/><path d="M4.047,4.691C4.022,4.721 3.937,4.841 3.99,5.04L3.995,5.034C3.957,4.901 3.997,4.754 4.047,4.69V4.691Z" fill-opacity="1" fill-rule="evenodd" fill="#e0dee4"/><path d="M3.955,4.868C3.948,4.919 3.95,4.96 3.953,5.001C3.787,5.298 3.509,5.571 3.349,5.582C3.554,5.306 3.757,5.022 3.962,4.741C3.975,4.735 3.989,4.726 4.002,4.717C3.98,4.749 3.97,4.775 3.966,4.799L3.404,5.524C3.592,5.509 3.9,5.061 3.947,4.94C3.947,4.904 3.952,4.884 3.956,4.868H3.955Z" fill-opacity="1" fill-rule="evenodd" fill="#c3bdc9"/><path d="M3.382,5.534L3.395,5.518C3.379,5.239 3.694,4.906 3.779,4.802C3.765,4.832 3.364,5.187 3.382,5.535V5.534H3.382Z" fill-opacity="1" fill-rule="evenodd" fill="#dfdce1"/><path d="M3.154,5.033C3.201,5.108 3.28,5.154 3.578,4.973C3.638,4.907 3.697,4.839 3.757,4.783H3.742C3.642,4.824 3.382,5.096 3.154,5.035V5.033Z" fill-opacity="1" fill-rule="evenodd" fill="#dfdde2"/><path d="M3.928,4.508C3.889,4.524 3.743,4.578 3.728,4.744L3.696,4.762C3.897,4.829 4.05,4.676 4.079,4.649C4.048,4.629 4.016,4.612 3.989,4.564L3.962,4.577C3.898,4.631 3.82,4.684 3.745,4.734L3.978,4.615C3.992,4.63 4.007,4.646 4.04,4.666C3.898,4.763 3.787,4.758 3.734,4.744C3.742,4.648 3.799,4.566 3.928,4.508Z" fill-opacity="1" fill-rule="evenodd" fill="#c3bdc9"/><path d="M3.702,4.707C3.698,4.726 3.692,4.748 3.693,4.763C3.63,4.788 3.558,4.809 3.479,4.822C3.474,4.823 3.454,4.831 3.446,4.816C3.437,4.81 3.426,4.809 3.416,4.81C3.414,4.805 3.404,4.807 3.403,4.803C3.597,4.769 3.685,4.722 3.702,4.707V4.707Z" fill-opacity="1" fill-rule="evenodd" fill="#cecad5"/><path d="M3.485,4.563C3.434,4.588 3.221,4.701 3.184,4.811C3.288,4.843 3.366,4.815 3.413,4.811C3.411,4.808 3.402,4.809 3.401,4.804C3.324,4.815 3.231,4.821 3.205,4.805L3.224,4.795C3.23,4.702 3.45,4.587 3.484,4.563H3.485Z" fill-opacity="1" fill-rule="evenodd" fill="#dfdde1"/><path d="M3.237,4.791C3.583,4.662 3.752,4.558 3.937,4.496V4.502C3.922,4.511 3.8,4.539 3.753,4.609L3.237,4.791Z" fill-opacity="1" fill-rule="evenodd" fill="#c3bdc9"/><path d="M3.877,4.514C3.854,4.524 3.83,4.532 3.805,4.546C3.692,4.529 3.673,4.501 3.625,4.477L3.635,4.474C3.653,4.486 3.675,4.496 3.696,4.507C3.73,4.518 3.738,4.505 3.704,4.493C3.665,4.48 3.64,4.464 3.618,4.447C3.657,4.371 3.749,4.334 3.761,4.328C3.71,4.361 3.651,4.391 3.636,4.442C3.715,4.43 3.799,4.416 3.902,4.393C3.91,4.407 3.917,4.421 3.932,4.44L3.929,4.443L3.913,4.424L3.637,4.445C3.713,4.497 3.795,4.502 3.876,4.511L3.877,4.514Z" fill-opacity="1" fill-rule="evenodd" fill="#c3bdc9"/><path d="M3.167,4.408C3.198,4.515 3.466,4.487 3.625,4.476L3.633,4.473C3.62,4.464 3.609,4.455 3.602,4.446C3.537,4.433 3.237,4.496 3.167,4.408Z" fill-opacity="1" fill-rule="evenodd" fill="#dfdde2"/><path d="M3.671,4.349L3.674,4.352C3.656,4.368 3.637,4.382 3.618,4.405C3.371,4.405 3.214,4.306 3.17,4.249C3.231,4.199 3.308,4.181 3.39,4.173C3.32,4.194 3.238,4.206 3.2,4.251H3.182C3.297,4.38 3.604,4.438 3.67,4.35L3.671,4.349Z" fill-opacity="1" fill-rule="evenodd" fill="#dfdde2"/><path d="M3.216,4.254C3.38,4.277 3.542,4.298 3.711,4.325C3.734,4.305 3.775,4.291 3.839,4.287C3.817,4.287 3.799,4.284 3.764,4.289C3.576,4.292 3.398,4.268 3.216,4.254Z" fill-opacity="1" fill-rule="evenodd" fill="#c3bdc9"/><path d="M3.922,4.229C3.906,4.245 3.898,4.268 3.892,4.294C3.711,4.235 3.681,4.121 3.675,4.109C3.784,4.034 3.85,4.062 3.94,4.06C3.748,4.051 3.697,4.101 3.689,4.111C3.761,4.131 3.812,4.149 3.966,4.175C3.951,4.186 3.943,4.195 3.936,4.205C3.876,4.18 3.765,4.146 3.687,4.115C3.7,4.168 3.78,4.247 3.848,4.268C3.867,4.273 3.888,4.283 3.896,4.258C3.899,4.248 3.914,4.232 3.921,4.229H3.922Z" fill-opacity="1" fill-rule="evenodd" fill="#c3bdc9"/><path d="M3.233,3.99C3.268,4.025 3.399,4.14 3.641,4.111C3.65,4.135 3.66,4.144 3.668,4.153C3.604,4.143 3.54,4.136 3.474,4.141C3.368,4.109 3.272,4.07 3.232,3.99H3.233Z" fill-opacity="1" fill-rule="evenodd" fill="#dfdde2"/><path d="M3.726,4.039C3.726,4.039 3.733,4.044 3.738,4.045C3.698,4.061 3.667,4.078 3.644,4.096C3.522,4.058 3.35,3.968 3.287,3.854C3.363,3.82 3.49,3.836 3.565,3.854C3.483,3.854 3.384,3.836 3.335,3.869L3.297,3.856C3.312,3.905 3.572,4.132 3.725,4.039H3.726Z" fill-opacity="1" fill-rule="evenodd" fill="#dfdde2"/><path d="M3.348,3.876C3.502,3.931 3.65,3.985 3.772,4.037C3.811,4.028 3.849,4.03 3.886,4.037C3.877,4.028 3.869,4.021 3.862,4.009H3.858L3.874,4.031C3.664,3.959 3.51,3.919 3.349,3.878L3.348,3.876Z" fill-opacity="1" fill-rule="evenodd" fill="#c3bdc9"/><path d="M3.835,3.938C3.823,3.916 3.812,3.892 3.811,3.859C3.753,3.887 3.487,3.771 3.424,3.625C3.428,3.753 3.655,3.853 3.835,3.937V3.938Z" fill-opacity="1" fill-rule="evenodd" fill="#dfdde2"/><path d="M3.988,4.018C3.98,4.027 3.973,4.038 3.963,4.043C3.958,4.046 3.953,4.046 3.948,4.043C3.854,3.982 3.836,3.877 3.839,3.856C3.911,3.845 4.011,3.845 4.149,3.932C4.119,3.925 4.017,3.85 3.852,3.864C3.849,3.92 3.892,4.029 3.987,4.018L3.988,4.018Z" fill-opacity="1" fill-rule="evenodd" fill="#c3bdc9"/><path d="M3.865,3.873L4.032,3.995C4.053,3.996 4.074,3.995 4.096,4.006C4.097,4.002 4.099,3.996 4.103,3.988C4.012,3.95 3.944,3.911 3.865,3.873Z" fill-opacity="1" fill-rule="evenodd" fill="#c3bdc9"/><path d="M3.491,3.484L3.536,3.511C3.53,3.611 3.708,3.808 3.906,3.823C3.873,3.826 3.838,3.825 3.812,3.837C3.718,3.779 3.656,3.717 3.603,3.662C3.592,3.664 3.583,3.636 3.566,3.645C3.515,3.579 3.495,3.529 3.492,3.485L3.491,3.484Z" fill-opacity="1" fill-rule="evenodd" fill="#dfdde2"/><path d="M3.78,3.563C3.714,3.537 3.654,3.507 3.539,3.512C3.718,3.642 3.815,3.724 3.947,3.826C4.007,3.835 4.064,3.862 4.123,3.885C4.115,3.869 4.109,3.853 4.106,3.836C4.106,3.85 4.106,3.863 4.115,3.877C4.037,3.854 3.716,3.625 3.559,3.523C3.618,3.504 3.702,3.539 3.78,3.563Z" fill-opacity="1" fill-rule="evenodd" fill="#c5becb"/><path d="M3.871,3.569C3.799,3.506 3.719,3.434 3.701,3.334C3.785,3.344 3.949,3.401 4.077,3.493C3.958,3.425 3.847,3.374 3.755,3.375C3.748,3.458 3.824,3.513 3.872,3.569H3.871V3.569Z" fill-opacity="1" fill-rule="evenodd" fill="#dfdde2"/><path d="M3.76,3.378L3.756,3.381C3.878,3.471 3.966,3.557 4.062,3.645C4.089,3.668 4.086,3.692 4.089,3.717C4.099,3.705 4.086,3.667 4.107,3.662C4.127,3.658 4.203,3.697 4.208,3.691C4.029,3.612 3.909,3.483 3.761,3.378H3.76Z" fill-opacity="1" fill-rule="evenodd" fill="#c3bdc9"/><path d="M4.142,3.86C4.126,3.832 4.099,3.747 4.116,3.689C4.346,3.739 4.386,3.922 4.39,3.959C4.356,3.826 4.23,3.706 4.143,3.722C4.196,3.771 4.261,3.871 4.301,3.914C4.282,3.914 4.262,3.916 4.25,3.921C4.218,3.917 4.203,3.924 4.186,3.929C4.168,3.908 4.161,3.892 4.15,3.875C4.174,3.908 4.208,3.903 4.242,3.893C4.207,3.828 4.171,3.781 4.135,3.726C4.118,3.739 4.135,3.808 4.14,3.86L4.142,3.86Z" fill-opacity="1" fill-rule="evenodd" fill="#e0dee4"/><path d="M4.235,3.613C4.628,3.876 4.658,4.307 4.38,4.236C4.714,4.197 4.323,3.698 4.235,3.613Z" fill-opacity="1" fill-rule="evenodd" fill="#dfdde2"/><path d="M4.254,3.922C4.287,3.908 4.373,3.91 4.377,4.045L4.348,4.067C4.348,4.03 4.354,3.947 4.254,3.923V3.922Z" fill-opacity="1" fill-rule="evenodd" fill="#c3bdc9"/><path d="M4.348,4.068L4.378,4.046C4.522,4.101 4.451,4.256 4.351,4.232C4.47,4.22 4.444,4.066 4.348,4.068Z" fill-opacity="1" fill-rule="evenodd" fill="#c3bdc9"/><path d="M4.809,3.06C4.829,3.094 4.775,3.197 4.868,3.182C4.899,3.202 4.927,3.191 4.942,3.191C5.003,3.169 5.001,3.126 5.005,3.115C4.952,3.039 5.012,3.024 5.018,3.021C5.051,3.024 5.069,3.086 5.024,3.105C5.028,3.108 5.033,3.107 5.04,3.104C5.04,3.203 5.109,3.21 5.157,3.194C5.252,3.219 5.205,3.109 5.251,3.027C5.2,3.118 5.233,3.2 5.159,3.189C5.178,3.142 5.127,3.106 5.153,3.055C5.114,3.088 5.179,3.15 5.153,3.182C5.127,3.205 5.102,3.186 5.1,3.176C5.09,3.142 5.166,3.102 5.12,3.041C5.136,3.073 5.13,3.088 5.122,3.11C5.114,3.131 5.082,3.15 5.096,3.193C5.063,3.186 5.046,3.147 5.055,3.115C5.064,3.084 5.08,3.033 5.021,3.016C4.948,3.037 4.986,3.096 4.995,3.106C5.012,3.126 4.98,3.185 4.938,3.185C4.957,3.156 4.934,3.15 4.907,3.103C4.905,3.128 4.962,3.161 4.929,3.181C4.913,3.195 4.889,3.187 4.879,3.177C4.86,3.156 4.905,3.131 4.897,3.089C4.885,3.149 4.867,3.146 4.87,3.174C4.848,3.18 4.825,3.188 4.819,3.146C4.818,3.089 4.818,3.054 4.809,3.06Z" fill-opacity="1" fill-rule="evenodd" fill="#f1eef0"/><path d="M5.191,3.292V3.298C5.078,3.305 4.962,3.283 4.851,3.281V3.276C4.964,3.279 5.053,3.299 5.191,3.292Z" fill-opacity="1" fill-rule="evenodd" fill="#dfdde2"/><path d="M5.015,3.311V3.316C5.081,3.326 5.146,3.337 5.2,3.331V3.326C5.135,3.334 5.076,3.321 5.015,3.311Z" fill-opacity="1" fill-rule="evenodd" fill="#dfdde2"/><path d="M4.86,3.217C4.842,3.223 4.85,3.25 4.86,3.249C4.881,3.25 4.901,3.253 4.922,3.249C4.934,3.243 4.938,3.222 4.924,3.214C4.902,3.211 4.881,3.211 4.86,3.216V3.217ZM4.856,3.214C4.892,3.206 4.924,3.212 4.943,3.215C4.96,3.219 4.96,3.248 4.943,3.254C4.924,3.256 4.884,3.255 4.856,3.253C4.838,3.238 4.847,3.219 4.856,3.214Z" fill-opacity="1" fill-rule="evenodd" fill="#c3bdc9"/><path d="M4.985,3.246C5.031,3.252 5.071,3.256 5.061,3.219C5.048,3.219 4.957,3.199 4.985,3.246ZM4.984,3.251C4.978,3.244 4.969,3.23 4.986,3.212C5.011,3.21 5.038,3.212 5.066,3.216C5.091,3.226 5.089,3.249 5.068,3.258C5.024,3.258 5.001,3.255 4.984,3.251Z" fill-opacity="1" fill-rule="evenodd" fill="#c3bdc9"/><path d="M5.111,3.252C5.158,3.262 5.197,3.271 5.19,3.233C5.177,3.233 5.089,3.203 5.111,3.252ZM5.109,3.257C5.104,3.25 5.097,3.235 5.114,3.218C5.181,3.221 5.17,3.222 5.194,3.228C5.217,3.24 5.213,3.263 5.193,3.27C5.135,3.271 5.125,3.262 5.109,3.256V3.257Z" fill-opacity="1" fill-rule="evenodd" fill="#c3bdc9"/><path d="M4.269,3.985L4.196,4.203C4.217,4.203 4.233,4.204 4.269,4.197C4.303,4.128 4.31,4.031 4.269,3.985Z" fill-opacity="1" fill-rule="evenodd" fill="#c3bdc9"/><path d="M4.329,4.41L4.196,4.203C4.196,4.203 4.162,4.288 4.158,4.316C4.175,4.362 4.253,4.409 4.329,4.41Z" fill-opacity="1" fill-rule="evenodd" fill="#ffffff"/><path d="M4.307,4.251C4.353,4.234 4.362,4.206 4.363,4.189L4.269,4.197C4.282,4.214 4.296,4.231 4.307,4.251Z" fill-opacity="1" fill-rule="evenodd" fill="#c3bdc9"/><path d="M4.151,4.093C4.133,4.08 4.071,4.076 4.058,4.087L4.136,4.16C4.14,4.139 4.144,4.114 4.151,4.093Z" fill-opacity="1" fill-rule="evenodd" fill="#c3bdc9"/><path d="M3.975,4.317L4.194,4.204C4.199,4.202 4.167,4.29 4.157,4.317C4.132,4.331 4.023,4.357 3.974,4.317H3.975Z" fill-opacity="1" fill-rule="evenodd" fill="#c3bdc9"/></svg>
