<?xml version="1.0" encoding="UTF-8"?>
<svg xmlns="http://www.w3.org/2000/svg" width="24.0" height="24.0" viewBox="0 0 24.0 24.0"><path d="M18,10C21.314,10 24,12.686 24,16C24,19.314 21.314,22 18,22C14.686,22 12,19.314 12,16C12,12.686 14.686,10 18,10ZM18,12.375C17.655,12.375 17.375,12.655 17.375,13V17.273L15.981,15.6C15.759,15.335 15.365,15.299 15.1,15.519C14.835,15.741 14.799,16.135 15.019,16.4L17.443,19.308C17.733,19.655 18.267,19.655 18.557,19.308L20.98,16.4C21.201,16.135 21.166,15.741 20.9,15.519C20.635,15.299 20.24,15.335 20.02,15.6L18.625,17.273V13C18.625,12.655 18.345,12.375 18,12.375Z" fill-opacity="1" fill-rule="evenodd" fill="#6a83a0"/><path d="M20,2C21.105,2 22,2.895 22,4V9.657C20.842,8.925 19.471,8.5 18,8.5C15.041,8.5 12.482,10.214 11.262,12.703C10.618,12.261 9.84,12 9,12H6C3.791,12 2,13.791 2,16C2,16.552 2.448,17 3,17H10.568C10.662,17.702 10.852,18.373 11.126,19H2C0.895,19 0,18.105 0,17V4C0,2.895 0.895,2 2,2H20ZM7.5,4C5.567,4 4,5.567 4,7.5C4,9.433 5.567,11 7.5,11C9.433,11 11,9.433 11,7.5C11,5.567 9.433,4 7.5,4Z" fill-rule="evenodd" fill="currentColor"/></svg>