<?xml version="1.0" encoding="UTF-8"?>
<svg xmlns="http://www.w3.org/2000/svg" width="24.0" height="24.0" viewBox="0 0 24.0 24.0"><path d="m2.6,8v-2.64c0,-1.52 1.24,-2.75 2.75,-2.75h2.64c0.41,0 0.75,0.34 0.75,0.75s-0.34,0.75 -0.75,0.75h-2.64c-0.69,0 -1.25,0.56 -1.25,1.25v2.64c0,0.41 -0.34,0.75 -0.75,0.75s-0.75,-0.34 -0.75,-0.75ZM8,19.9h-2.64c-0.69,0 -1.25,-0.56 -1.25,-1.25v-2.64c0,-0.41 -0.34,-0.75 -0.75,-0.75s-0.75,0.34 -0.75,0.75v2.64c0,1.52 1.24,2.75 2.75,2.75h2.64c0.41,0 0.75,-0.34 0.75,-0.75s-0.34,-0.75 -0.75,-0.75ZM20.65,15.25c-0.41,0 -0.75,0.34 -0.75,0.75v2.64c0,0.69 -0.56,1.25 -1.25,1.25h-2.64c-0.41,0 -0.75,0.34 -0.75,0.75s0.34,0.75 0.75,0.75h2.64c1.52,0 2.75,-1.24 2.75,-2.75v-2.64c0,-0.41 -0.34,-0.75 -0.75,-0.75ZM18.65,2.6h-2.64c-0.41,0 -0.75,0.34 -0.75,0.75s0.34,0.75 0.75,0.75h2.64c0.69,0 1.25,0.56 1.25,1.25v2.64c0,0.41 0.34,0.75 0.75,0.75s0.75,-0.34 0.75,-0.75v-2.64c0,-1.52 -1.24,-2.75 -2.75,-2.75ZM8,7.9c-0.41,0 -0.75,0.34 -0.75,0.75v1.63c0,0.41 0.34,0.75 0.75,0.75s0.75,-0.34 0.75,-0.75v-1.63c0,-0.41 -0.34,-0.75 -0.75,-0.75ZM16,11.03c0.41,0 0.75,-0.34 0.75,-0.75v-1.63c0,-0.41 -0.34,-0.75 -0.75,-0.75s-0.75,0.34 -0.75,0.75v1.63c0,0.41 0.34,0.75 0.75,0.75ZM11.5,14.02c0.96,0 1.75,-0.79 1.75,-1.75v-3.61c0,-0.41 -0.34,-0.75 -0.75,-0.75s-0.75,0.34 -0.75,0.75v3.61c0,0.14 -0.11,0.25 -0.25,0.25 -0.41,0 -0.75,0.34 -0.75,0.75s0.34,0.75 0.75,0.75ZM15.96,15.97c0.27,-0.31 0.25,-0.78 -0.06,-1.06 -0.31,-0.27 -0.78,-0.25 -1.06,0.06 -0.72,0.81 -1.75,1.28 -2.83,1.28 -1.01,0 -1.96,-0.39 -2.67,-1.11 -0.29,-0.29 -0.77,-0.29 -1.06,0s-0.29,0.77 0,1.06c1,1 2.32,1.55 3.74,1.55 1.51,0 2.95,-0.65 3.96,-1.78Z" fill-opacity="1" fill="#1657E0"/></svg>