<?xml version="1.0" encoding="UTF-8"?>
<svg xmlns="http://www.w3.org/2000/svg" width="96.0" height="96.0" viewBox="0 0 96.0 96.0"><path d="M47.531,42C52.502,42 56.531,37.971 56.531,33C56.531,28.029 52.502,24 47.531,24C42.561,24 38.531,28.029 38.531,33C38.531,37.971 42.561,42 47.531,42ZM47.531,45C54.159,45 59.531,39.627 59.531,33C59.531,26.373 54.159,21 47.531,21C40.904,21 35.531,26.373 35.531,33C35.531,39.627 40.904,45 47.531,45Z" fill-opacity="1" fill-rule="evenodd" fill="#1657E0"/><path d="M73.392,66C73.726,66 74.038,66.167 74.224,66.445L84.891,82.445C85.334,83.11 84.857,84 84.059,84H11.007C10.208,84 9.732,83.11 10.175,82.445L20.841,66.445C21.027,66.167 21.339,66 21.673,66H30.031C30.86,66 31.531,65.328 31.531,64.5C31.531,63.672 30.86,63 30.031,63H21.673C20.336,63 19.087,63.668 18.345,64.781L7.679,80.781C5.906,83.439 7.812,87 11.007,87H84.059C87.253,87 89.159,83.439 87.387,80.781L76.72,64.781C75.978,63.668 74.729,63 73.392,63H65.031C64.203,63 63.531,63.672 63.531,64.5C63.531,65.328 64.203,66 65.031,66H73.392Z" fill-opacity="1" fill="#1657E0"/><path d="M66.922,39.867C67.999,37.014 68.531,34.693 68.531,33C68.531,21.402 59.129,12 47.531,12C35.933,12 26.531,21.402 26.531,33C26.531,34.693 27.064,37.014 28.14,39.867C29.199,42.674 30.705,45.788 32.463,49C35.978,55.425 40.388,62.033 43.914,67.027C45.721,69.586 49.341,69.586 51.148,67.027C54.674,62.033 59.084,55.425 62.6,49C64.358,45.788 65.863,42.674 66.922,39.867ZM53.599,68.757C60.709,58.689 71.531,41.901 71.531,33C71.531,19.745 60.786,9 47.531,9C34.276,9 23.531,19.745 23.531,33C23.531,41.901 34.354,58.689 41.464,68.757C44.466,73.009 50.596,73.009 53.599,68.757Z" fill-opacity="1" fill-rule="evenodd" fill="#1657E0"/></svg>