<?xml version="1.0" encoding="UTF-8"?>
<svg xmlns="http://www.w3.org/2000/svg" width="24.0" height="24.0" viewBox="0 0 24.0 24.0"><path stroke-width="0.0" fill-opacity="1" d="m18.3,11.24h-1.09v-3.07c0,-2.86 -2.33,-5.19 -5.19,-5.19s-5.19,2.33 -5.19,5.19v3.07h-1.12c-0.96,0 -1.75,0.78 -1.75,1.75v6.28c0,0.96 0.78,1.75 1.75,1.75h12.58c0.96,0 1.75,-0.78 1.75,-1.75v-6.28c0,-0.96 -0.78,-1.75 -1.75,-1.75ZM8.33,8.17c0,-2.03 1.65,-3.69 3.69,-3.69s3.69,1.65 3.69,3.69v3.07h-7.38v-3.07ZM18.54,19.27c0,0.13 -0.11,0.25 -0.25,0.25L5.72,19.52c-0.13,0 -0.25,-0.11 -0.25,-0.25v-6.28c0,-0.13 0.11,-0.25 0.25,-0.25h1.82s0.03,0 0.04,0 0.03,0 0.04,0h10.67c0.13,0 0.25,0.11 0.25,0.25v6.28Z" fill="#1657E0"/></svg>