<?xml version="1.0" encoding="UTF-8"?>
<svg xmlns="http://www.w3.org/2000/svg" width="32.0" height="32.0" viewBox="0 0 32.0 32.0"><path d="M0,16C0,32 0,32 16,32C32,32 32,32 32,16C32,0 32,0 16,0C0,0 0,0 0,16Z" fill-opacity="1" fill="#dc173e"/><path d="M14.21,4.348C14.594,5.012 14.743,5.648 14.955,6.249C15.304,6.203 15.705,6.295 16.1,6.324C16.552,6.41 16.907,6.45 17.245,6.399C17.451,5.448 17.629,4.973 18.041,4.309C17.858,4.435 17.475,4.48 17.32,4.71C17.091,4.509 16.913,4.635 16.799,4.847C16.84,4.675 16.788,4.532 16.564,4.515C16.696,4.268 16.49,4.142 16.278,4.252C16.272,4.034 16.101,4.034 16.089,3.919C16.06,4.051 15.906,3.988 15.929,4.309C15.757,4.171 15.585,4.263 15.655,4.503C15.443,4.503 15.385,4.675 15.408,4.893C15.265,4.56 14.996,4.658 14.899,4.778C14.733,4.446 14.602,4.658 14.217,4.349H14.21V4.348Z" fill-opacity="1" fill-rule="evenodd" fill="#f7d256"/><path d="M17.578,6.042C17.337,6.46 17.229,6.489 16.163,6.323C15.321,6.237 14.56,6.002 14.526,6.763C14.806,6.798 15.212,6.827 15.384,7.422L14.869,7.863C14.502,7.92 13.929,8.407 13.552,7.954C13.449,8.378 13.838,8.498 14.25,8.481C14.536,8.452 14.628,8.372 15.161,8.269L15.304,8.424C16.111,8.493 16.529,9.643 15.218,10.325C15.166,10.48 15.252,10.669 15.373,10.692C14.994,11.23 14.365,11.899 14.141,11.459C14.089,11.511 13.941,11.877 14.227,12.077C14.01,12.346 13.93,12.661 13.941,13.022C13.077,12.885 12.51,12.741 12.705,11.934C13.62,11.974 13.873,10.869 13.736,10.307C13.203,8.063 10.306,6.259 8.198,6.202C8.313,6.815 8.691,7.256 9.12,7.662C8.559,7.388 7.912,7.124 7.231,7.267C7.311,7.749 7.569,8.31 8.673,9.22C7.877,8.75 7.151,8.287 6.893,7.915C6.779,8.07 6.715,8.699 7.391,9.158C7.174,9.071 6.114,9.078 5.793,9.312C5.988,9.753 6.875,10.526 7.603,10.767C6.91,10.663 6.263,10.388 5.673,9.885C5.587,9.965 5.673,10.784 6.412,11.104C6.172,11.122 5.358,11.351 5.152,11.608C5.576,12.175 6.663,12.674 7.202,12.674C6.469,12.771 5.662,12.622 5.329,12.519C5.335,12.708 5.18,13.463 7.19,13.338C6.474,13.675 5.387,14.385 5.215,15.004C5.913,15.313 7.161,15.056 7.809,14.855C5.896,16.023 5.598,16.143 5.244,16.063C5.707,17.042 6.824,16.378 7.786,15.834C6.601,17.42 6.406,18.227 6.435,19.355C7.391,19.241 8.771,17.872 9.51,16.704C8.657,18.462 8.147,19.871 7.219,20.288C8.278,20.706 9.189,19.378 9.83,17.964C9.584,18.856 9.486,20.752 9.796,21.216C10.752,20.568 11.479,19.126 11.966,17.471C11.8,18.284 11.68,19.103 11.376,19.916C11.995,20.03 12.31,18.925 12.516,18.278C12.533,18.312 12.556,18.341 12.618,18.398C13.397,17.832 13.643,16.52 13.7,16.011C14.41,16.211 14.725,15.954 14.903,15.822C15.058,16.039 15.069,16.372 15.115,16.417C14.342,15.787 13.517,16.417 13.483,17.465C13.397,17.9 13.168,18.404 12.584,18.793C12.618,18.839 12.705,18.862 12.808,18.857C12.705,19.034 12.613,19.183 12.441,19.343C12.487,19.372 12.538,19.372 12.596,19.383C12.464,19.601 12.252,19.801 12.034,19.91C12.086,19.962 12.115,19.979 12.275,20.019C12.131,20.208 11.896,20.386 11.674,20.478C12.098,20.729 12.418,20.758 12.682,20.735C12.516,21.068 12.246,21.233 11.983,21.383C12.063,21.457 12.166,21.474 12.246,21.451C12.006,21.698 11.754,21.892 11.53,21.967C11.571,21.996 11.599,22.041 11.748,22.03C11.588,22.23 11.387,22.425 11.038,22.516C11.106,22.648 11.25,22.631 11.37,22.631C11.273,22.837 10.975,22.905 10.672,22.969C10.901,23.032 11.055,23.158 10.918,23.123C10.827,23.232 10.735,23.289 10.54,23.324C10.339,23.353 9.612,23.095 9.321,23.192C9.241,23.026 9.04,22.911 8.828,22.911C8.559,22.911 8.296,23.083 8.278,23.324C8.238,23.295 8.061,23.272 8.089,23.479C8.153,23.599 8.158,23.702 8.541,23.851C8.605,23.88 8.679,23.891 8.776,23.891C8.914,23.885 9.068,23.816 9.183,23.713C9.377,23.754 9.589,23.788 9.703,23.834C9.4,23.857 9.291,24.028 9.119,24.149C9.045,24.149 8.988,24.126 8.919,24.115C8.878,24.108 8.839,24.103 8.798,24.103C8.581,24.115 8.358,24.361 8.335,24.641C8.335,24.699 8.346,24.75 8.369,24.802V24.847C8.301,24.927 8.329,24.991 8.392,25.036C8.661,25.139 8.816,25.077 8.913,25.059C9.153,25.03 9.36,24.83 9.36,24.607C9.646,24.555 9.926,24.475 10.087,24.361C10.093,24.378 10.099,24.395 10.099,24.418C10.001,24.475 9.835,24.573 9.749,24.859C9.72,24.859 9.697,24.859 9.675,24.859C9.348,24.859 9.268,25.082 9.273,25.271C9.273,25.449 9.342,25.569 9.44,25.638C9.422,25.752 9.434,25.844 9.549,25.878C9.938,25.941 10.035,25.735 10.11,25.741C10.11,25.689 10.116,25.655 10.133,25.621C10.253,25.563 10.333,25.517 10.345,25.294C10.356,25.157 10.333,25.071 10.288,25.014H10.299C10.654,24.71 10.883,24.47 11.038,24.263C11.175,24.298 11.485,24.286 11.633,24.234V24.291C11.485,24.429 11.582,24.755 11.771,24.744C11.764,24.773 11.764,24.801 11.771,24.835C11.891,24.91 12.12,24.858 12.291,24.898C12.383,24.887 12.423,24.83 12.4,24.709C12.538,24.623 12.635,24.474 12.612,24.291C12.612,24.034 12.412,23.828 12.16,23.81C11.891,23.781 11.639,23.97 11.691,23.559C12.423,22.694 13.42,21.383 13.694,21.229C13.672,21.2 13.66,21.165 13.642,21.126C13.752,21.412 14.158,21.715 14.593,21.687C14.513,21.538 14.427,21.406 14.399,21.011C14.462,21.103 14.57,21.149 14.708,21.177C14.508,20.256 14.806,19.494 15.424,18.802C15.373,19.694 15.264,20.593 14.72,21.499C15,21.585 15.361,21.304 15.413,21.132C15.47,21.933 14.708,22.969 14.113,22.471C13.741,23.296 14.628,23.691 15.184,23.216C15.086,23.713 14.702,24.006 14.279,24.12C13.855,24.234 13.415,24.057 13.695,23.376C13.638,23.341 12.785,23.319 12.762,24.246C12.785,24.778 13.151,24.985 13.18,24.99C11.966,25.906 13.191,26.931 14.188,26.736C14.978,26.615 15.431,25.969 15.717,25.505C15.63,25.842 15.27,26.913 16.186,28.081C17.09,26.667 16.707,25.716 16.684,25.567C17.394,26.66 18.098,26.74 18.51,26.718C19.22,26.729 20.222,25.618 18.946,24.903C19.598,24.593 19.644,23.299 18.722,23.237C18.911,23.746 18.51,24.056 18.069,24.015C17.629,23.975 17.222,23.723 17.068,23.151C17.938,23.569 18.339,22.744 18.041,22.304C17.302,22.917 16.948,21.932 16.85,21.347C17.039,21.491 17.206,21.542 17.521,21.496C16.92,20.723 16.776,19.681 16.725,18.708C17.137,19.361 17.537,20.156 17.526,20.941C17.623,20.895 17.709,20.884 17.875,20.54C17.893,21.124 17.823,21.204 17.623,21.45C17.95,21.588 18.374,21.325 18.574,20.975C19.204,21.823 19.886,22.699 20.544,23.374C20.687,23.523 20.738,23.671 20.469,23.723C19.622,23.409 19.53,24.296 19.885,24.417C19.856,24.497 19.851,24.583 19.874,24.668C20.04,24.72 20.383,24.582 20.474,24.577C20.515,24.536 20.515,24.456 20.515,24.376C20.601,24.376 20.658,24.324 20.698,24.256C20.864,24.29 21.024,24.308 21.236,24.135L21.866,24.765C21.9,24.782 21.832,24.851 21.923,24.862C21.854,25.28 22.015,25.326 22.152,25.435C22.123,25.836 22.725,25.607 22.782,25.63C22.845,25.589 22.85,25.549 22.839,25.504C22.907,25.429 22.873,25.395 22.85,25.344C23.148,24.885 22.725,24.536 22.49,24.577C22.238,24.302 22.06,24.187 21.86,24.021C22.272,24.176 22.907,24.354 23.091,24.485C23.16,24.955 23.572,24.76 23.876,24.777C23.967,24.645 23.922,24.606 23.876,24.56C24.271,24.044 23.435,23.627 23.08,23.93C22.868,23.736 22.685,23.701 22.496,23.621C22.576,23.54 22.742,23.477 23.125,23.454C23.297,23.569 23.463,23.609 23.635,23.483C23.71,23.643 23.852,23.604 23.904,23.575C24.03,23.431 24.03,23.214 24.064,23.014C24.03,22.939 23.978,22.893 23.881,22.899C23.623,22.458 23.125,22.728 23.097,22.922C22.667,22.956 22.284,23.014 21.831,23.191C21.682,23.237 21.539,23.077 21.413,22.979C21.527,22.934 21.63,22.882 21.625,22.785C21.442,22.767 21.264,22.785 21.052,22.561L21.11,22.413C20.943,22.361 20.772,22.241 20.554,21.903C20.6,21.874 20.641,21.829 20.68,21.755C20.434,21.698 20.233,21.566 20.073,21.376C20.131,21.347 20.188,21.296 20.24,21.216C20.011,21.079 19.793,20.959 19.352,20.386V20.38C19.816,20.455 20.297,20.414 20.577,20.202C20.349,20.139 19.953,20.008 19.77,19.664C19.856,19.658 19.907,19.641 19.964,19.624C19.62,19.395 19.529,19.274 19.437,19.085C19.512,19.091 19.615,19.056 19.649,19.01C19.426,18.907 19.328,18.77 19.248,18.621C19.34,18.621 19.437,18.638 19.511,18.587C18.63,18.192 18.756,16.13 17.805,16.125C17.381,16.159 17.307,16.25 17.089,16.359C17.152,16.182 17.26,16.015 17.375,15.855C17.89,16.096 18.303,15.958 18.44,15.838C18.509,16.668 18.778,17.556 19.351,17.996C19.448,17.939 19.568,17.871 19.636,17.791C19.739,18.558 20.026,19.571 20.673,19.486C20.375,18.747 20.381,18.003 20.346,17.258C20.615,19.428 21.286,20.694 21.835,21.078C22.086,20.74 22.275,19.159 22.156,18.203C22.699,19.182 23.301,20.092 23.805,20.087C24.034,20.087 24.286,19.898 24.441,19.852C23.651,19.531 23.113,18.077 22.631,17.173C23.542,18.599 24.624,19.24 25.134,19.338C25.152,18.897 25.248,17.665 24.115,15.954C26.141,17.024 26.571,16.332 26.691,15.965C25.775,16.286 24.544,15.106 23.719,14.734L23.708,14.699C24.916,15.249 26.101,15.438 26.84,14.974C26.211,14 25.597,13.646 24.933,13.393C26.245,13.537 26.674,13.096 26.702,12.603C26.221,12.763 25.781,12.792 25.208,12.701C26.462,12.449 26.691,11.916 26.68,11.865C26.358,11.614 25.751,11.333 25.202,11.281C26.714,10.738 26.233,10.222 26.176,10.062C25.706,10.503 24.888,10.818 24.739,10.806C25.444,10.439 26.056,9.472 26.016,9.363C25.661,9.181 24.934,9.192 24.636,9.277C24.928,8.956 25.318,8.401 24.962,7.943C24.618,8.429 24.292,8.682 23.972,8.94C24.269,8.567 24.608,8.138 24.728,7.262C24.287,7.319 23.886,7.28 23.313,7.657C23.639,7.245 23.845,6.844 23.886,6.352C21.91,6.489 19.597,7.525 18.48,10.114C18.154,10.875 18.412,12.163 19.425,12.015C19.585,12.667 19.156,13.062 18.217,13.034C18.2,12.817 18.263,12.381 18,12.158C18.229,12.141 18.275,12.026 18.321,11.929C17.708,11.786 17.806,11.585 17.92,10.498C18,10.532 18.092,10.509 18.16,10.446C17.909,10.211 17.989,9.782 18.12,8.425C18.143,7.835 18.022,7.537 17.891,7.434C17.971,7.394 18.023,7.331 17.983,7.183C18.263,7.131 18.143,6.788 18.028,6.673C17.971,6.828 17.731,6.885 17.501,6.714C17.782,6.588 17.782,6.273 17.57,6.055L17.578,6.042ZM18.722,20.638C18.722,20.638 18.74,20.66 18.751,20.672C18.74,20.66 18.734,20.654 18.722,20.643V20.638ZM12.939,20.677C12.91,20.78 12.962,21.061 12.969,21.244C13.06,21.289 13.226,21.244 13.415,21.169C13.404,21.169 13.392,21.181 13.386,21.181C13.243,21.232 13.071,21.289 12.969,21.244L12.934,20.826C12.928,20.78 12.928,20.728 12.94,20.671L12.939,20.677ZM12.871,20.695C12.871,20.695 12.837,20.706 12.825,20.706C12.842,20.706 12.859,20.7 12.871,20.695ZM18.843,20.747C19.055,20.901 19.312,20.901 19.404,20.879C19.404,20.867 19.415,20.856 19.421,20.844C19.421,20.856 19.415,20.873 19.41,20.885C19.215,20.912 19.02,20.884 18.843,20.747ZM16.999,24.468C17.193,24.674 17.955,25.235 18.831,24.966C18.906,25.464 18.482,25.648 18.149,25.585C17.823,25.516 17.337,25.258 16.999,24.474V24.468ZM15.253,24.594C14.967,25.138 14.497,25.596 14.073,25.705C13.656,25.814 13.26,25.608 13.415,25.058C14.325,25.361 15.064,24.823 15.253,24.588V24.594Z" fill-opacity="1" fill-rule="evenodd" fill="#ffffff"/><path d="M11.061,14.54C10.752,14.179 10.798,13.95 10.81,13.818C10.472,13.561 10.558,13.463 10.5,13.36C10.621,13.566 10.735,13.704 10.856,13.721C11.079,13.927 11.302,13.995 11.526,14.127C10.157,13.377 10.535,12.461 10.552,12.197C10.34,12.203 10.18,12.163 10.066,12.077C10.106,11.705 10.3,11.407 10.713,11.201C10.661,11.218 10.61,11.241 10.558,11.253C10.512,11.241 10.392,10.938 10.541,10.737C10.627,10.685 10.856,10.663 11.09,10.755C11.228,10.474 11.405,10.228 11.777,10.13C11.869,10.228 12.024,10.509 11.915,11C12.069,11.057 12.218,11.126 12.339,11.31C12.298,11.465 12.264,11.51 12.224,11.55C12.825,11.556 12.883,10.714 12.213,10.628C12.322,9.838 11.309,9.369 10.867,10.342C10.054,10.125 9.836,10.755 10.146,11.253C10.048,11.327 9.241,11.917 10.008,12.764C10.008,13.182 10.111,13.588 10.679,13.943C10.839,14.425 10.942,14.425 11.062,14.528L11.061,14.54Z" fill-opacity="1" fill-rule="evenodd" fill="#dfdde2"/><path d="M21.122,10.125L21.231,9.92C21.963,9.805 22.404,10.292 22.118,10.87C22.708,11.375 22.381,12.033 22.027,12.159C22.451,11.844 22.216,11.747 22.147,11.753C22.17,11.741 22.204,11.724 22.233,11.696C22.21,11.421 22.101,11.157 21.678,10.842C21.89,10.607 21.867,10.39 21.838,10.235C21.604,10.172 21.398,10.195 21.214,10.287L21.122,10.116L21.122,10.125Z" fill-opacity="1" fill-rule="evenodd" fill="#dfdde2"/><path d="M20.108,11.55C20.142,11.436 20.171,11.253 20.377,11.08C20.314,11.126 20.24,11.183 20.16,11.252C19.897,11.143 19.725,10.903 19.685,10.754C19.845,10.542 20.235,10.576 20.286,10.588C20.171,10.164 20.32,9.849 20.423,9.729C20.772,9.764 20.955,9.941 21.099,10.101L21.202,9.912C21.104,9.615 20.812,9.392 20.469,9.46C20.183,9.489 19.851,9.741 19.982,10.33C19.112,10.679 19.485,11.515 20.103,11.544L20.108,11.55Z" fill-opacity="1" fill-rule="evenodd" fill="#dfdde2"/><path d="M18.219,13.033C18.185,13.354 18.121,13.589 18.053,13.807C19.232,13.629 20.985,13.325 20.75,12.026C20.532,12.181 20.32,12.209 20.102,12.215C20.068,12.032 20.045,11.832 20.108,11.574C19.914,11.837 19.684,11.941 19.444,11.998C20.515,12.473 18.992,13.321 18.356,13.034H18.213L18.219,13.033Z" fill-opacity="1" fill-rule="evenodd" fill="#f1eef0"/><path d="M13.953,13.521C13.987,13.887 14.101,14.333 14.21,14.752C14.136,14.632 13.907,13.91 13.953,13.521Z" fill-opacity="1" fill-rule="evenodd" fill="#e8e6eb"/><path d="M17.469,13.263C17.183,14.397 18.442,14.283 17.56,13.126C18.419,13.653 17.858,14.438 17.812,14.615C17.674,14.007 17.148,13.853 17.469,13.263Z" fill-opacity="1" fill-rule="evenodd" fill="#c3bdc9"/><path d="M11.777,10.16L11.348,11.414C11.245,11.368 11.142,11.328 11.004,11.168C11.004,10.733 11.394,10.194 11.771,10.16H11.777Z" fill-opacity="1" fill-rule="evenodd" fill="#ffffff"/><path d="M12.115,12.605L11.348,11.42C11.469,11.42 11.606,11.42 11.777,11.379C12.006,11.591 12.252,12.141 12.121,12.605H12.115Z" fill-opacity="1" fill-rule="evenodd" fill="#c3bdc9"/><path d="M11.897,11.019C12.126,11.082 12.287,11.236 12.315,11.328L11.771,11.379C11.823,11.265 11.863,11.144 11.897,11.019Z" fill-opacity="1" fill-rule="evenodd" fill="#ffffff"/><path d="M10.552,11.259C10.449,11.111 10.449,10.812 10.552,10.75L11.004,11.168C10.884,11.197 10.667,11.208 10.546,11.259H10.552Z" fill-opacity="1" fill-rule="evenodd" fill="#ffffff"/><path d="M10.076,12.072L11.342,11.42C11.342,11.42 11.164,11.208 11.004,11.168C10.666,11.122 10.105,11.545 10.076,12.072Z" fill-opacity="1" fill-rule="evenodd" fill="#ffffff"/><path d="M11.13,12.078C10.477,13.95 13.295,14.242 14.044,14.293L13.953,13.824C12.59,13.76 11.319,13.463 11.508,12.438C11.262,12.283 11.211,12.215 11.13,12.071V12.078Z" fill-rule="evenodd" fill="transparent"/><path d="M11.13,12.072C10.981,12.147 10.763,12.181 10.552,12.209C10.008,14.482 13.53,14.66 14.205,14.746C14.102,14.534 14.073,14.425 14.045,14.288C12.258,14.174 10.609,13.503 11.13,12.072Z" fill-rule="evenodd" fill="transparent"/><path d="M20.44,9.742C20.635,10.149 20.847,10.63 20.995,11.082C21.081,10.956 21.161,10.83 21.333,10.687C21.241,10.258 21.023,9.806 20.434,9.736L20.44,9.742Z" fill-opacity="1" fill-rule="evenodd" fill="#c3bdc9"/><path d="M20.44,9.736C20.64,10.154 20.869,10.652 21.001,11.082L20.52,11.013C20.234,10.704 20.165,10.085 20.44,9.736Z" fill-opacity="1" fill-rule="evenodd" fill="#ffffff"/><path d="M19.702,10.749C19.828,10.606 20.091,10.56 20.303,10.601C20.348,10.721 20.428,10.886 20.515,11.013L19.696,10.75L19.702,10.749Z" fill-opacity="1" fill-rule="evenodd" fill="#c3bdc9"/><path d="M21.82,10.256L21.333,10.692L21.654,10.858C21.912,10.641 21.837,10.251 21.826,10.257L21.82,10.256Z" fill-opacity="1" fill-rule="evenodd" fill="#c3bdc9"/><path d="M21.334,10.687C21.253,10.705 20.984,11.082 21.001,11.077L22.22,11.701C22.221,11.489 22.032,10.968 21.334,10.687Z" fill-opacity="1" fill-rule="evenodd" fill="#c3bdc9"/><path d="M20.996,11.075L20.114,12.215C20.676,12.192 20.904,11.94 21.1,11.63L20.99,11.081L20.996,11.075Z" fill-opacity="1" fill-rule="evenodd" fill="#c3bdc9"/><path d="M21.82,10.257C21.631,10.194 21.379,10.217 21.207,10.309C21.264,10.429 21.305,10.583 21.333,10.692L21.82,10.257Z" fill-opacity="1" fill-rule="evenodd" fill="#ffffff"/><path d="M20.996,11.075L22.227,11.7C22.004,11.883 21.294,11.711 21.1,11.631L20.996,11.075Z" fill-opacity="1" fill-rule="evenodd" fill="#ffffff"/><path d="M20.996,11.076L20.515,11.007C19.982,11.23 20.074,12.141 20.114,12.209L20.996,11.076Z" fill-opacity="1" fill-rule="evenodd" fill="#ffffff"/><path d="M20.509,11.013L19.701,10.75C19.742,10.944 19.982,11.168 20.159,11.242C20.2,11.207 20.378,11.041 20.509,11.013Z" fill-opacity="1" fill-rule="evenodd" fill="#ffffff"/><path d="M21.115,11.632C20.967,11.855 20.921,11.913 20.755,12.022C21.041,13.338 19.151,13.665 18.058,13.819C18.046,14.002 17.989,14.152 17.938,14.295C18.133,14.282 22.009,14.208 21.115,11.632Z" fill-opacity="1" fill-rule="evenodd" fill="#ffffff"/><path d="M21.139,11.648C21.659,13.561 19.954,14.105 17.944,14.288C17.892,14.408 17.846,14.534 17.8,14.672C20.531,14.482 21.957,13.601 21.585,11.757C21.408,11.728 21.27,11.689 21.139,11.648Z" fill-rule="evenodd" fill="transparent"/><path d="M8.387,25.047C8.605,25.15 8.88,25.081 9.023,25.036C9.103,25.11 9,25.408 9.229,25.62C9.097,25.677 8.371,25.454 8.382,25.047H8.387Z" fill-opacity="1" fill-rule="evenodd" fill="#f7d256"/><path d="M8.079,23.472C8.17,23.764 8.428,23.793 8.531,23.855C8.531,23.964 8.245,23.958 8.239,24.359C8.044,24.342 7.769,23.884 8.079,23.478V23.472Z" fill-opacity="1" fill-rule="evenodd" fill="#f7d256"/><path d="M9.538,25.877C9.893,25.934 10.019,25.745 10.099,25.733C10.14,25.848 10.3,26.003 10.455,26.083C10.38,26.347 9.521,26.289 9.538,25.877Z" fill-opacity="1" fill-rule="evenodd" fill="#f7d256"/><path d="M12.281,24.903C12.258,24.857 11.851,24.903 11.777,24.84C11.725,24.903 11.708,25.109 11.559,25.189C11.657,25.367 12.338,25.309 12.281,24.897V24.903Z" fill-opacity="1" fill-rule="evenodd" fill="#f7d256"/><path d="M13.054,21.273C13.117,21.267 13.174,21.255 13.226,21.244C12.985,21.53 12.584,22.034 12.183,22.458C11.782,22.882 11.416,23.299 11.553,23.683C11.273,23.408 11.524,23.133 11.897,22.686C12.31,22.201 12.768,21.645 13.054,21.273ZM12.55,24.348C12.55,24.542 12.384,24.726 11.989,24.708C12.436,24.222 11.531,24.188 11.749,23.987C12.344,23.609 12.596,24.193 12.55,24.348ZM12.127,24.777C12.259,24.806 12.339,24.645 12.367,24.725C12.424,24.886 12.132,24.914 12.127,24.777ZM9.109,23.082C9.017,23.082 9.046,23.449 8.502,23.431C8.49,23.431 8.439,23.431 8.41,23.483C8.347,23.604 8.565,23.855 8.766,23.844C8.943,23.832 9.087,23.729 9.178,23.604C9.219,23.581 9.505,23.421 9.482,23.489C9.144,23.655 9.23,23.758 9.762,23.799C10.1,23.747 10.387,23.455 10.507,23.398C10.163,23.454 9.43,23.225 9.264,23.225C9.241,23.162 9.189,23.111 9.109,23.082ZM8.508,24.96C8.497,24.989 8.479,25.012 8.456,25.029C8.554,25.092 8.805,25.074 8.834,25.052C8.805,25.052 8.594,25.04 8.502,24.96H8.508ZM11.021,23.437C10.563,23.661 10.248,24.468 9.114,24.359C9.085,24.457 9.023,24.48 8.965,24.508C8.731,24.508 8.456,24.56 8.461,24.708C8.461,24.886 8.742,25 8.925,24.978C9.114,24.955 9.309,24.777 9.309,24.599C9.309,24.599 9.326,24.57 9.343,24.57C10.597,24.301 10.792,23.655 11.026,23.431L11.021,23.437ZM11.222,23.46C11.17,23.764 10.179,24.674 10.134,24.972C10.082,24.931 10.008,24.903 9.848,24.908C9.939,25.367 9.562,25.504 9.458,25.424C9.458,25.629 9.755,25.716 9.951,25.675C10.179,25.629 10.368,25.28 10.237,25.068C10.266,24.69 10.763,24.582 10.969,24.095C11.152,24.095 11.181,23.809 11.405,23.757C11.359,23.608 11.17,23.803 11.216,23.447L11.222,23.46ZM8.301,23.46C8.33,23.638 8.41,23.718 8.548,23.827C8.439,23.787 8.336,23.758 8.215,23.655C8.324,23.689 8.244,23.431 8.301,23.46ZM10.672,22.974C10.884,23.02 11.158,23.042 11.531,23.02C10.987,23.209 10.741,23.145 10.672,22.974ZM11.359,22.63C11.359,22.659 11.313,22.716 11.273,22.75C11.536,22.75 11.794,22.693 11.977,22.481C11.806,22.561 11.611,22.625 11.359,22.625V22.63ZM11.732,22.029C11.714,22.063 11.646,22.138 11.594,22.189C11.812,22.212 12.242,22.115 12.43,21.903C12.259,21.983 11.983,22.024 11.732,22.024V22.029ZM12.235,21.45C12.195,21.491 12.069,21.617 12.023,21.656C12.24,21.679 12.728,21.507 12.916,21.301C12.744,21.381 12.487,21.45 12.24,21.45H12.235V21.45ZM12.934,20.809C12.922,21.055 12.836,21.215 12.744,21.324C12.819,21.302 12.893,21.284 12.968,21.25C12.962,21.113 12.95,20.952 12.927,20.814L12.934,20.809Z" fill-opacity="1" fill-rule="evenodd" fill="#dfdde2"/><path d="M19.896,24.657C20.114,24.709 20.378,24.571 20.503,24.566C20.56,24.68 20.583,24.806 20.824,24.887C20.664,25.064 20.069,25.121 19.896,24.652V24.657Z" fill-opacity="1" fill-rule="evenodd" fill="#f7d256"/><path d="M22.306,25.636C22.226,25.716 22.14,25.796 21.986,25.888C22.255,26.134 22.804,25.859 22.781,25.619C22.73,25.527 22.576,25.728 22.3,25.636H22.306Z" fill-opacity="1" fill-rule="evenodd" fill="#f7d256"/><path d="M23.36,24.777C23.36,25.098 23.326,25.184 23.286,25.293C23.44,25.396 23.835,25.149 23.881,24.772C23.841,24.68 23.67,24.841 23.36,24.777Z" fill-opacity="1" fill-rule="evenodd" fill="#f7d256"/><path d="M24.088,23.008C23.973,23.037 24.042,23.426 23.91,23.547C24.019,23.604 24.093,23.747 24.168,23.879C24.419,23.689 24.408,23.146 24.088,23.008Z" fill-opacity="1" fill-rule="evenodd" fill="#f7d256"/><path d="M20.171,24.623C20.291,24.588 20.422,24.525 20.468,24.543C20.543,24.285 20.371,24.434 20.171,24.623ZM19.999,24.417C20.234,24.417 20.566,24.457 20.652,24.142C21.019,24.32 21.402,23.982 21.316,23.667C21.316,23.667 21.195,24.206 20.44,23.868C20.285,23.845 20.079,23.943 20.091,24.046C20.102,24.178 20.36,24.292 19.999,24.424V24.417ZM22.009,24.154C22.204,24.348 22.324,24.532 22.284,24.675C22.404,24.503 22.415,24.606 22.438,24.675C22.582,24.784 22.685,25.115 22.329,25.333C22.496,25.379 22.512,25.528 22.329,25.58C22.335,25.735 22.759,25.539 22.793,25.603C22.827,25.591 22.839,25.539 22.845,25.494C22.879,25.448 22.885,25.391 22.845,25.322C23.114,24.87 22.781,24.624 22.489,24.572C22.312,24.389 22.157,24.28 22.003,24.154H22.009ZM22.021,23.667C22.306,23.85 22.702,23.993 23.074,24.233C23.446,23.861 23.722,24.473 23.189,24.514C23.326,24.76 23.893,24.743 23.876,24.548C24.231,23.878 23.269,23.712 23.08,23.953C22.788,23.786 22.524,23.603 22.106,23.529C22.93,23.884 23.073,23.992 22.93,24.015C22.799,24.033 22.335,23.77 22.021,23.667ZM22.272,23.151C22.501,23.054 22.993,23.065 23.125,22.945C23.343,22.55 23.744,22.653 23.876,22.911C23.967,22.911 24.036,22.929 24.047,23.003C23.961,23.192 24.018,23.65 23.778,23.535C23.824,23.5 23.801,23.466 23.778,23.432C23.675,23.535 23.675,23.42 23.675,23.369C23.52,23.546 23.446,23.517 23.337,23.489C23.366,23.478 23.378,23.449 23.372,23.397C23.818,23.226 23.429,22.704 23.068,23.192C22.948,23.226 22.461,23.117 22.278,23.14L22.272,23.151ZM18.711,20.649L18.693,20.701C18.876,20.868 20.462,22.614 20.932,23.358C20.863,23.198 20.891,23.135 20.611,22.797C21.327,23.198 21.681,22.842 21.635,22.762C21.578,22.768 21.538,22.78 21.51,22.762C20.846,23.1 20.353,22.539 20.061,22.167C20.433,22.464 20.674,22.516 21.063,22.539C21.103,22.47 21.108,22.436 21.115,22.402C21.08,22.396 21.046,22.384 21.023,22.367C20.571,22.539 20.033,22.196 19.609,21.623C20.01,21.915 20.302,21.886 20.576,21.886C20.617,21.834 20.679,21.795 20.685,21.732C20.645,21.732 20.617,21.72 20.582,21.709C20.302,21.806 19.603,21.772 19.271,21.193C19.5,21.348 19.757,21.44 20.084,21.359C20.147,21.308 20.221,21.262 20.233,21.205C19.826,21.308 19.431,21.308 19.07,20.987C19.173,20.987 19.282,20.953 19.391,20.901C19.18,20.919 18.956,20.901 18.704,20.649H18.711Z" fill-opacity="1" fill-rule="evenodd" fill="#dfdde2"/><path d="M13.798,8.213C14.588,8.637 15.493,7.675 16.128,8.196C16.197,8.196 16.208,8.15 16.197,8.104C15.459,7.44 14.669,8.419 13.798,8.213Z" fill-opacity="1" fill-rule="evenodd" fill="#c3bdc9"/><path d="M13.512,20.312L13.449,20.374C13.374,20.718 13.191,20.999 12.979,21.262C13.174,21.291 13.408,21.187 13.632,21.084C13.488,20.821 13.46,20.644 13.506,20.306L13.512,20.312Z" fill-opacity="1" fill-rule="evenodd" fill="#c3bdc9"/><path d="M13.736,19.848C13.845,20.065 14.057,19.711 14.153,19.613C14.021,20.083 13.758,20.558 14.331,20.999C14.039,21.028 13.959,21.153 14.228,21.445C13.695,21.181 13.398,20.752 13.736,19.848Z" fill-opacity="1" fill-rule="evenodd" fill="#dfdde2"/><path d="M14.176,19.59C13.993,20.518 14.297,20.884 14.6,20.971C14.486,19.969 14.886,19.247 15.442,18.703C15.408,17.77 15.276,17.346 15.173,16.676C15.179,16.991 15.401,17.844 15.253,18.44C15.098,19.064 14.652,19.665 14.182,19.597L14.176,19.59Z" fill-opacity="1" fill-rule="evenodd" fill="#cecad5"/><path d="M12.327,20.552C12.854,20.586 13.283,20.42 13.632,20.066C13.443,20.529 13.008,20.753 12.361,20.684C12.595,20.643 12.602,20.604 12.327,20.552Z" fill-opacity="1" fill-rule="evenodd" fill="#c3bdc9"/><path d="M12.264,20.013C12.212,20.093 12.172,20.128 12.132,20.168C12.962,20.277 13.426,19.882 13.741,19.532C14.199,19.561 14.519,19.258 14.794,18.954C14.485,19.201 14.165,19.401 13.804,19.355C13.449,19.871 12.945,20.111 12.264,20.008V20.013Z" fill-opacity="1" fill-rule="evenodd" fill="#c3bdc9"/><path d="M12.59,19.384C12.527,19.516 12.51,19.51 12.476,19.555C12.756,19.612 13.146,19.503 13.804,18.955C14.457,18.937 14.726,18.514 14.915,18.325C14.571,18.622 14.217,18.783 13.861,18.788C13.517,19.144 13.14,19.43 12.595,19.384H12.59Z" fill-opacity="1" fill-rule="evenodd" fill="#c3bdc9"/><path d="M12.802,18.863L12.682,19.046C12.91,19.034 13.208,19.046 13.844,18.456C14.33,18.354 14.772,17.987 15.155,17.346C14.834,17.74 14.542,18.158 13.901,18.215C13.735,18.594 13.3,18.748 12.801,18.857L12.802,18.863Z" fill-opacity="1" fill-rule="evenodd" fill="#c3bdc9"/><path d="M18.162,19.636C18.116,19.974 18.041,20.277 17.892,20.512C17.91,20.621 17.904,20.735 17.899,20.844C18.126,20.609 18.293,19.951 18.162,19.636Z" fill-opacity="1" fill-rule="evenodd" fill="#c3bdc9"/><path d="M18.493,19.796C18.74,20.432 18.516,21.279 17.738,21.428C17.978,21.531 18.705,21.199 18.808,20.214L19.404,20.884C19.438,20.729 19.456,20.574 19.347,20.346C18.877,20.248 18.722,20.06 18.5,19.796H18.493Z" fill-opacity="1" fill-rule="evenodd" fill="#c3bdc9"/><path d="M18.877,20.002C19.198,20.139 19.758,20.351 20.319,20.105C20.406,20.139 20.486,20.168 20.571,20.179C20.382,20.38 19.844,20.426 19.352,20.362C20.028,20.271 19.003,20.197 18.877,20.002Z" fill-opacity="1" fill-rule="evenodd" fill="#c5bdcb"/><path d="M17.761,18.868C17.996,19.035 18.253,19.131 18.551,19.131C18.774,19.549 19.415,19.67 19.776,19.647C19.793,19.704 19.833,19.756 19.879,19.802C19.575,19.802 19.186,19.704 18.59,19.326C18.43,19.269 17.864,19.006 17.761,18.868Z" fill-opacity="1" fill-rule="evenodd" fill="#c4bdcb"/><path d="M17.64,18.238C17.875,18.433 18.126,18.53 18.402,18.564C18.682,18.862 19.015,19.017 19.449,19.074L19.541,19.234C19.404,19.245 18.745,18.953 18.505,18.73C18.098,18.627 17.795,18.426 17.646,18.243L17.64,18.238Z" fill-opacity="1" fill-rule="evenodd" fill="#c3bdc9"/><path d="M17.692,17.736C17.961,17.999 18.265,18.108 18.511,18.108C18.694,18.302 18.866,18.503 19.255,18.605C19.273,18.657 19.295,18.703 19.324,18.737C19.032,18.737 18.625,18.325 18.58,18.262C18.184,18.205 17.738,18.005 17.687,17.742L17.692,17.736Z" fill-opacity="1" fill-rule="evenodd" fill="#c3bdc9"/><path d="M15.35,16.544C15.436,16.51 15.475,16.464 15.516,16.419C15.585,16.516 15.687,16.539 15.785,16.562C15.596,16.556 15.573,16.642 15.665,16.802C15.705,16.865 15.767,17.799 15.785,18.36C15.785,18.881 15.86,19.218 15.963,19.448C15.55,19.099 15.78,17.003 15.35,16.55V16.544H15.35Z" fill-opacity="1" fill-rule="evenodd" fill="#dfdde2"/><path d="M16.037,16.584C16.266,16.561 16.496,16.549 16.77,16.383L16.868,16.498C16.673,16.927 16.558,17.935 16.438,18.839C16.473,18.261 16.484,17.746 16.456,17.603C16.393,17.276 16.404,17.082 16.41,17.025C16.536,16.572 16.193,16.681 16.038,16.578V16.584H16.037Z" fill-opacity="1" fill-rule="evenodd" fill="#cecad5"/><path d="M16.959,16.549L16.988,16.578C16.599,17.425 16.988,19.367 16.153,20.346L16.135,19.968C16.77,19.55 16.61,17.409 16.959,16.549Z" fill-opacity="1" fill-rule="evenodd" fill="#c3bdc9"/><path d="M15.556,18.639C15.556,20.025 15.78,20.288 14.835,21.445C15.276,21.078 15.768,19.957 15.705,20.598C15.814,20.392 15.922,20.185 15.951,20.009C15.585,19.383 15.602,19.023 15.556,18.639Z" fill-opacity="1" fill-rule="evenodd" fill="#c3bdc9"/><path d="M16.323,20.169L16.146,20.38L16.198,22.213C16.22,21.451 16.26,20.753 16.323,20.169Z" fill-opacity="1" fill-rule="evenodd" fill="#c3bdc9"/><path d="M16.741,18.834C16.695,19.12 16.661,19.458 16.586,19.647C16.712,21.112 17.113,21.256 17.445,21.387C16.89,20.604 16.781,19.55 16.741,18.834Z" fill-opacity="1" fill-rule="evenodd" fill="#dfdde2"/><path d="M15.676,20.758C15.505,21.148 15.562,21.892 15.081,22.373C15.482,22.167 15.636,21.669 15.647,21.28L15.688,21.692C15.556,22.534 15.172,22.763 14.909,22.809C14.95,22.797 15.367,22.883 15.756,22.036C15.768,22.345 15.55,22.688 15.27,22.803C15.516,22.809 15.762,22.585 15.888,22.408C15.688,21.807 15.682,21.28 15.688,20.753L15.676,20.758Z" fill-opacity="1" fill-rule="evenodd" fill="#e0dee2"/><path d="M15.865,22.018C15.905,22.219 15.968,22.511 16.191,22.797L16.209,23.152C16.312,23.015 16.713,21.881 16.718,21.509C16.736,21.388 16.741,21.251 16.827,21.343C16.839,21.349 16.85,21.349 16.861,21.343C16.741,21.256 16.61,20.85 16.518,20.713C16.592,21.153 16.643,21.783 16.191,22.723C16.054,22.563 15.956,22.299 15.865,22.029V22.018Z" fill-opacity="1" fill-rule="evenodd" fill="#c3bdc9"/><path d="M17.8,22.74C17.314,22.991 16.896,22.384 16.689,22.012L16.781,21.503C16.781,21.503 16.821,21.474 16.833,21.497C16.913,22.058 17.268,22.716 17.795,22.745L17.8,22.74Z" fill-opacity="1" fill-rule="evenodd" fill="#dfdde2"/><path d="M16.604,22.206L16.552,22.361C16.741,22.779 16.965,22.922 17.251,23.031C16.684,22.751 16.644,22.481 16.604,22.206Z" fill-opacity="1" fill-rule="evenodd" fill="#dfdde1"/><path d="M16.06,22.922L16.209,23.18L16.323,22.928C16.301,23.61 16.26,24.428 16.237,25.185C16.175,24.423 16.089,23.632 16.06,22.922Z" fill-opacity="1" fill-rule="evenodd" fill="#dfdde2"/><path d="M16.501,22.499C16.489,22.539 16.472,22.573 16.461,22.596C16.965,24.463 16.369,25.453 16.237,25.602C15.888,24.983 15.893,24.376 15.813,23.856C15.859,24.326 15.807,24.932 16.214,25.688V25.998C16.712,25.385 17.016,24.526 16.632,22.677C16.575,22.631 16.546,22.563 16.5,22.505L16.501,22.499Z" fill-opacity="1" fill-rule="evenodd" fill="#c3bdc9"/><path d="M16.054,25.824C16.094,25.893 16.134,25.962 16.22,26.019C16.329,25.904 16.352,25.847 16.398,25.773C16.306,26.265 16.266,26.752 16.197,27.238C16.152,26.757 16.117,26.23 16.054,25.818V25.824Z" fill-opacity="1" fill-rule="evenodd" fill="#dfdde2"/><path d="M16.936,25.905C16.827,25.665 16.701,25.465 16.781,25.201C16.764,25.121 16.73,25.109 16.695,25.092C16.673,25.235 16.621,25.332 16.581,25.429C16.77,26.563 16.501,27.17 16.191,27.686C15.682,26.999 15.774,26.26 15.767,25.625C15.619,26.913 15.927,27.474 16.185,27.766V28.081C16.913,27.016 16.844,26.02 16.683,25.551C16.763,25.671 16.838,25.802 16.941,25.911L16.936,25.905Z" fill-opacity="1" fill-rule="evenodd" fill="#c3bdc9"/><path d="M14.182,22.653C14.28,23.586 15.465,23.306 15.946,22.596L15.9,22.47C15.453,23.048 14.497,23.569 14.182,22.653Z" fill-opacity="1" fill-rule="evenodd" fill="#c4bec9"/><path d="M15.837,22.997C15.401,23.902 14.875,24.544 14.153,24.606C14.646,24.646 15.173,24.245 15.338,24.074C15.459,23.868 15.607,23.793 15.459,24.074C15.401,24.171 15.344,24.24 15.253,24.331C15.367,24.286 15.608,23.914 15.659,23.879C15.682,23.49 15.768,23.272 15.837,23.003V22.997Z" fill-opacity="1" fill-rule="evenodd" fill="#dfdde2"/><path d="M15.659,23.901C15.653,24.004 15.642,24.107 15.642,24.193C14.955,24.897 14.365,25.121 13.735,24.971C14.256,24.983 14.858,25.041 15.659,23.901Z" fill-opacity="1" fill-rule="evenodd" fill="#c3beca"/><path d="M13.437,24.308C13.289,23.936 13.346,23.632 13.609,23.403C13.071,23.392 12.486,24.394 13.483,24.898C12.985,24.606 12.962,23.999 13.122,23.799C13.231,23.627 13.392,23.575 13.277,23.77C13.203,24.084 13.34,24.239 13.432,24.302L13.437,24.308Z" fill-opacity="1" fill-rule="evenodd" fill="#dfdde2"/><path d="M16.661,22.728C16.764,22.888 16.89,23.031 17.051,23.129C17.005,24.045 18.013,24.646 18.694,24.389C18.304,24.674 17.017,24.606 16.661,22.722V22.728Z" fill-opacity="1" fill-rule="evenodd" fill="#dfdde2"/><path d="M16.81,23.878V23.987C17.28,24.772 18.076,24.8 18.316,24.772C17.578,24.76 17.113,24.416 16.81,23.878Z" fill-opacity="1" fill-rule="evenodd" fill="#c5c0ce"/><path d="M18.865,23.306C19.49,23.741 19.317,24.417 18.648,24.697C19.163,24.36 19.421,23.919 18.865,23.306Z" fill-opacity="1" fill-rule="evenodd" fill="#e1dfe3"/><path d="M18.133,24.886C18.728,24.995 19.73,24.526 19.192,23.489C19.736,24.125 19.129,25.258 18.133,24.886Z" fill-opacity="1" fill-rule="evenodd" fill="#c3bdc9"/><path d="M16.81,24.503C16.81,24.56 16.803,24.601 16.787,24.698C17.296,25.711 17.583,25.779 17.909,26.043C17.291,25.585 16.976,25.058 16.81,24.503Z" fill-opacity="1" fill-rule="evenodd" fill="#e0dee3"/><path d="M17.646,26.41C17.755,26.455 17.836,26.421 17.927,26.455C18.705,26.724 19.668,26.266 19.381,25.321C19.89,25.819 18.952,27.245 17.652,26.41H17.646Z" fill-opacity="1" fill-rule="evenodd" fill="#c5becc"/><path d="M19.014,25.047C19.604,25.631 18.997,26.438 18.213,26.163C19.049,26.278 19.358,25.585 19.014,25.047Z" fill-opacity="1" fill-rule="evenodd" fill="#c3beca"/><path d="M13.289,25.042C12.481,25.574 12.928,26.227 13.3,26.381C13.157,26.278 13.008,25.912 13.449,26.112C13.592,26.176 13.723,26.181 13.85,26.17C13.026,25.9 13.209,25.46 13.289,25.036V25.042Z" fill-opacity="1" fill-rule="evenodd" fill="#dfdde2"/><path d="M15.648,24.303C15.665,24.577 15.7,24.801 15.739,24.973C15.482,25.488 15.167,25.837 14.847,26.084C15.225,25.717 15.517,25.351 15.642,24.967C14.984,25.992 14.532,26.152 14.062,26.175C14.646,26.043 15.499,25.539 15.654,24.309L15.648,24.303Z" fill-opacity="1" fill-rule="evenodd" fill="#dfdde2"/><path d="M15.745,25.012C15.763,25.092 15.786,25.178 15.831,25.241C15.001,26.838 13.896,26.793 13.518,26.661C14.234,26.735 13.988,26.604 13.753,26.563C14.6,26.592 15.35,26.013 15.745,25.017V25.012Z" fill-opacity="1" fill-rule="evenodd" fill="#c3bec9"/><path d="M15.064,16.229C15.173,16.154 15.224,16.069 15.281,15.983C15.304,16.029 15.344,16.063 15.401,16.103C15.247,16.155 15.189,16.384 15.104,16.384C15.093,16.332 15.087,16.275 15.064,16.224V16.229Z" fill-opacity="1" fill-rule="evenodd" fill="#c5becb"/><path d="M15.413,16.109C15.648,16.195 15.888,16.184 16.18,15.977C16.209,16.006 16.243,16.034 16.278,16.069C15.997,16.269 15.533,16.217 15.408,16.109H15.413Z" fill-opacity="1" fill-rule="evenodd" fill="#c3bdc9"/><path d="M16.415,16.102C16.581,16.131 16.747,16.171 16.958,16.051C16.987,16.091 17.022,16.125 17.05,16.153C16.981,16.222 16.621,16.217 16.409,16.102H16.415V16.102Z" fill-opacity="1" fill-rule="evenodd" fill="#c3bdc9"/><path d="M17.102,15.662C17.154,15.696 17.25,15.794 17.342,15.845C17.273,15.943 17.205,16.051 17.136,16.178C16.827,15.908 17.045,15.628 17.102,15.662Z" fill-opacity="1" fill-rule="evenodd" fill="#c3bdc9"/><path d="M14.852,15.736C14.898,15.8 14.926,15.839 14.955,15.885C15.144,15.753 15.206,15.611 15.27,15.472C15.241,15.455 15.218,15.432 15.195,15.392C15.046,15.656 14.955,15.69 14.851,15.742L14.852,15.736Z" fill-opacity="1" fill-rule="evenodd" fill="#c3bdc9"/><path d="M15.281,15.479L15.258,15.519C15.63,15.731 16.237,15.891 17.004,15.502L16.93,15.347C16.432,15.736 15.871,15.805 15.281,15.479Z" fill-opacity="1" fill-rule="evenodd" fill="#c3bdc9"/><path d="M17.067,15.473C17.285,15.432 17.211,15.158 17.417,15.078C17.749,15.576 18.321,15.45 18.551,15.066L18.585,15.347C18.368,15.484 18.076,15.73 17.588,15.502C17.548,15.582 17.542,15.708 17.536,15.851C17.325,15.782 17.154,15.668 17.067,15.473Z" fill-opacity="1" fill-rule="evenodd" fill="#c3bdc9"/><path d="M17.743,14.545C17.829,14.705 17.743,15.078 17.754,15.204C17.594,15.181 17.503,15.049 17.417,14.941C17.434,14.941 17.446,14.935 17.451,14.918C17.469,14.815 17.663,14.769 17.743,14.545Z" fill-opacity="1" fill-rule="evenodd" fill="#c3bdc9"/><path d="M16.283,15.003L16.265,15.026C16.523,15.118 17.05,15.164 17.427,14.912L17.359,14.792C17.096,15.015 16.759,15.123 16.283,15.003Z" fill-opacity="1" fill-rule="evenodd" fill="#c3beca"/><path d="M16.134,14.918C16.18,14.952 16.226,14.986 16.266,14.998C15.917,15.319 15.408,15.233 14.898,14.964C14.898,14.946 14.898,14.935 14.898,14.918C15.488,15.239 15.899,15.146 16.134,14.918Z" fill-opacity="1" fill-rule="evenodd" fill="#c3bdc9"/><path d="M14.869,14.918C14.995,15.112 14.68,15.175 14.675,15.467L14.549,15.313C14.549,15.124 14.801,15.153 14.864,14.918H14.869Z" fill-opacity="1" fill-rule="evenodd" fill="#c3bec9"/><path d="M14.525,15.25L14.285,14.884C14.033,14.551 14.869,14.489 14.778,13.87C14.83,13.911 14.887,13.968 14.938,13.996C14.909,14.494 14.468,14.483 14.463,14.82C14.406,14.797 14.377,14.746 14.365,14.677C14.342,14.694 14.336,14.694 14.313,14.717C14.21,14.849 14.365,14.923 14.519,15.244L14.525,15.25Z" fill-opacity="1" fill-rule="evenodd" fill="#c3bec9"/><path d="M14.754,14.58C15,14.614 15.241,14.58 15.47,14.362C15.51,14.403 15.539,14.443 15.596,14.477C15.304,14.655 14.909,14.677 14.754,14.58Z" fill-opacity="1" fill-rule="evenodd" fill="#c3bdc9"/><path d="M15.607,14.483L15.578,14.506C15.985,14.741 16.552,14.734 16.855,14.529C16.81,14.506 16.775,14.472 16.741,14.443C16.374,14.712 15.831,14.625 15.607,14.488V14.483Z" fill-opacity="1" fill-rule="evenodd" fill="#c5becb"/><path d="M16.867,14.528L16.844,14.557C17.13,14.672 17.492,14.66 17.737,14.523C17.719,14.477 17.703,14.432 17.668,14.391C17.399,14.603 17.13,14.585 16.861,14.528H16.867Z" fill-opacity="1" fill-rule="evenodd" fill="#c4bec9"/><path d="M14.983,14.024C15.408,14.241 15.871,14.099 16.123,13.875C16.168,13.933 16.209,13.962 16.255,13.99C15.94,14.264 15.127,14.23 14.983,14.024Z" fill-opacity="1" fill-rule="evenodd" fill="#c4bec9"/><path d="M16.266,13.996L16.243,14.014C16.627,14.276 17.211,14.116 17.365,14.014C17.348,13.95 17.325,13.899 17.308,13.853C17.039,14.082 16.638,14.157 16.266,13.991V13.996Z" fill-opacity="1" fill-rule="evenodd" fill="#c3bdc9"/><path d="M13.907,13.458L13.964,13.487C14.021,13.401 14.073,13.384 14.096,13.418C14.119,13.453 14.073,13.51 14.137,13.567C14.331,13.412 14.789,13.304 14.841,13.074C14.927,13.309 15.208,13.314 15.437,13.716C15.385,13.412 15.07,13.326 14.939,13.12C14.813,12.914 14.887,12.656 14.991,12.324C14.779,12.61 14.945,13.023 14.596,13.205C14.372,13.32 13.954,13.297 13.909,13.452V13.458H13.907Z" fill-opacity="1" fill-rule="evenodd" fill="#c3bdc9"/><path d="M15.739,12.003L15.751,12.278C15.39,12.421 15.671,13.325 15.527,13.526C15.47,12.753 15.149,12.472 15.739,12.008V12.003Z" fill-opacity="1" fill-rule="evenodd" fill="#c3bdc9"/><path d="M16.031,12.661H16.077C16.123,13.165 16.655,13.216 16.747,13.715C16.633,13.371 16.335,13.268 16.169,13.085C16.078,13.475 15.608,13.589 15.494,13.807C15.458,13.629 16.14,13.377 16.031,12.661Z" fill-opacity="1" fill-rule="evenodd" fill="#c3bdc9"/><path d="M16.839,12.175C16.558,12.616 17.113,12.896 16.816,13.629C16.971,12.673 16.301,12.748 16.725,12.054C16.873,12.198 17.377,12.34 17.423,12.581C17.251,12.341 16.994,12.324 16.839,12.169V12.175Z" fill-opacity="1" fill-rule="evenodd" fill="#c3bdc9"/><path d="M17.417,12.65C17.469,12.822 17.514,12.885 17.56,12.999C17.405,13.497 16.804,13.67 16.77,13.853C16.667,13.618 17.423,13.492 17.417,12.65Z" fill-opacity="1" fill-rule="evenodd" fill="#c3bdc9"/><path d="M17.989,12.141C17.892,12.118 17.806,12.141 17.697,12.032C17.715,12.192 17.686,12.29 17.668,12.387C17.863,12.501 17.995,13.561 18.075,13.606C18.034,13.154 18.052,12.552 17.777,12.226L17.789,12.169C17.875,12.198 17.938,12.193 17.989,12.141Z" fill-opacity="1" fill-rule="evenodd" fill="#c3bdc9"/><path d="M14.297,12.965C14.486,12.684 14.652,12.352 14.892,12.18C15.132,12.009 15.287,12.077 15.774,11.676L15.957,11.195C15.544,11.796 15.058,12.215 14.359,12.071C14.4,12.094 14.423,12.151 14.715,12.169C14.566,12.312 14.439,12.627 14.297,12.965Z" fill-opacity="1" fill-rule="evenodd" fill="#c3bdc9"/><path d="M14.194,11.631C14.561,11.814 15.013,11.912 15.786,10.807C15.952,10.761 16.112,10.675 16.261,10.515C15.762,11.705 14.354,12.438 14.194,11.631Z" fill-opacity="1" fill-rule="evenodd" fill="#dfdde2"/><path d="M15.837,12.319C16.426,10.097 18.213,8.769 16.667,7.589C17.789,9.53 16.003,10.354 15.837,12.319Z" fill-opacity="1" fill-rule="evenodd" fill="#f1eef0"/><path d="M15.413,10.4C15.442,10.984 16.18,10.549 16.358,10.171C16.06,10.372 15.762,10.555 15.413,10.4Z" fill-opacity="1" fill-rule="evenodd" fill="#dfdde2"/><path d="M16.518,9.496C16.587,9.398 16.598,9.49 16.712,9.513C16.443,10.075 15.985,10.229 15.739,10.241C16.076,10.063 16.386,9.863 16.517,9.49L16.518,9.496Z" fill-opacity="1" fill-rule="evenodd" fill="#dfdde2"/><path d="M16.341,8.551L16.398,8.608C16.478,8.608 16.558,8.608 16.644,8.528C16.644,8.596 16.621,8.631 16.581,8.648C16.627,9.055 16.581,9.296 16.524,9.479C16.592,9.404 16.65,9.508 16.718,9.508C16.821,9.347 16.993,8.786 16.718,8.305C16.724,8.442 16.575,8.586 16.346,8.551L16.341,8.551Z" fill-opacity="1" fill-rule="evenodd" fill="#c3bdc9"/><path d="M15.378,8.373C15.825,8.19 16.083,8.51 16.283,8.539C16.604,9.009 16.271,9.415 16.059,9.667C16.203,9.427 16.409,8.448 15.384,8.373H15.378Z" fill-opacity="1" fill-rule="evenodd" fill="#c3bdc9"/><path d="M15.78,12.581C16.266,12.81 16.496,12.255 16.724,12.043C16.61,11.78 16.644,11.562 16.633,11.333C16.209,11.562 16.22,12.398 15.78,12.581Z" fill-opacity="1" fill-rule="evenodd" fill="#cecad5"/><path d="M17.44,8.659C17.399,8.677 17.394,8.837 17.342,8.831C17.308,9.953 16.288,10.572 16.048,12.192C16.197,12.02 16.306,11.333 16.684,10.709C17.085,10.056 17.474,9.684 17.434,8.659H17.44Z" fill-opacity="1" fill-rule="evenodd" fill="#cecad5"/><path d="M16.919,10.778C16.512,11.871 17.32,11.883 17.389,12.238C16.552,11.957 16.495,11.351 16.919,10.778Z" fill-opacity="1" fill-rule="evenodd" fill="#dfdde2"/><path d="M17.067,7.64C18.419,8.517 17.257,10.285 16.753,10.767C16.953,10.32 18.167,9.088 17.067,7.64Z" fill-opacity="1" fill-rule="evenodd" fill="#dfdde2"/><path d="M17.526,7.153C17.663,7.405 17.886,7.806 17.56,7.726C18.133,8.997 17.503,9.656 17.188,10.366C16.524,12.101 17.623,11.413 17.497,12.622C17.869,12.187 17.383,11.552 17.406,11.328C17.377,11.007 17.577,10.326 17.646,9.908C17.726,10.137 17.847,10.275 17.995,10.367C17.738,9.462 18.545,7.687 17.532,7.154L17.526,7.153Z" fill-opacity="1" fill-rule="evenodd" fill="#cecad5"/><path d="M17.658,10.142C17.721,10.234 17.767,10.337 17.875,10.4C17.927,10.755 17.434,11.872 18.178,11.958C17.572,12.261 17.239,11.391 17.658,10.149V10.142Z" fill-opacity="1" fill-rule="evenodd" fill="#cecad5"/><path d="M17.331,6.804C17.457,6.815 17.761,7.027 18.047,6.804C18.242,7.067 17.881,7.29 17.498,7.096C17.4,7.033 17.715,7.004 17.331,6.81V6.804Z" fill-opacity="1" fill-rule="evenodd" fill="#c3bdc9"/><path d="M15.075,6.902C15.19,7.028 15.304,7.097 15.413,7.4C15.493,7.4 15.573,7.411 15.653,7.434C15.522,7.222 15.356,7.028 15.075,6.902Z" fill-opacity="1" fill-rule="evenodd" fill="#dfdde2"/><path d="M16.306,6.535C17.48,6.85 17.372,6.306 17.584,6.225C17.789,6.558 17.216,6.993 16.306,6.535Z" fill-opacity="1" fill-rule="evenodd" fill="#c3bdc9"/><path d="M14.869,6.764C14.801,6.741 14.743,6.746 14.703,6.752C14.806,5.911 15.739,6.443 16.243,6.758C15.607,6.455 14.812,6.065 14.869,6.758V6.764Z" fill-opacity="1" fill-rule="evenodd" fill="#c3bec9"/><path d="M14.875,6.765C14.823,5.808 16.203,6.902 16.839,6.936C16.392,6.988 14.932,6.014 14.943,6.776L14.875,6.759V6.765Z" fill-opacity="1" fill-rule="evenodd" fill="#f1eef0"/><path d="M14.961,6.792L15.075,6.838C15.087,6.752 15.121,6.66 15.161,6.649C15.431,6.597 15.179,6.735 15.225,6.781C15.276,6.815 15.334,6.855 15.391,6.89C15.391,6.849 15.391,6.804 15.397,6.746C15.397,6.529 16.027,6.878 16.468,7.021C16.513,7.153 16.221,7.313 15.993,7.267C16.198,7.433 16.64,7.353 16.834,7.084C17.172,7.107 17.247,7.055 17.321,6.97C17.063,6.918 16.942,7.045 16.296,6.867C15.7,6.695 14.978,6.191 14.961,6.792Z" fill-opacity="1" fill-rule="evenodd" fill="#c3bdc9"/><path d="M15.499,6.684C15.574,6.678 15.636,6.702 15.705,6.73C15.573,6.936 15.768,7.131 15.877,7.097C15.911,7.131 15.951,7.165 16.071,7.194C15.899,7.229 15.315,7.051 15.498,6.679L15.499,6.684Z" fill-opacity="1" fill-rule="evenodd" fill="#b6b1bf"/><path d="M13.959,7.863C13.306,6.609 15.19,6.386 15.385,7.428C15.385,7.428 15.854,7.445 16.266,7.668C17.067,8.252 16.581,8.583 16.421,8.561C16.049,8.567 15.974,8.205 15.43,8.343C15.298,8.395 15.293,8.458 15.236,8.458C14.91,8.378 15.505,7.719 16.152,8.195C16.209,8.235 16.335,8.154 16.226,8.028C15.797,7.593 15.047,7.834 14.887,7.874C14.681,7.536 14.216,7.611 13.971,7.874L13.959,7.863Z" fill-opacity="1" fill-rule="evenodd" fill="#f7d256"/><path d="M15.831,6.838C15.911,6.902 16.329,6.97 16.34,7.01C16.209,7.326 15.774,7.228 15.831,6.838Z" fill-opacity="1" fill-rule="evenodd" fill="#aaa3b5"/><path d="M18.614,15.335C18.614,15.335 18.602,15.347 18.614,15.358C18.711,15.41 18.837,15.438 18.981,15.45L19.324,17.46C19.295,16.939 19.261,16.394 19.25,15.896C19.209,15.799 19.181,15.622 19.158,15.444C19.204,15.444 19.244,15.433 19.29,15.422C19.507,16.693 20.034,16.944 20.137,17.048C19.857,16.756 19.479,16.343 19.359,15.393C19.548,15.29 19.633,15.165 19.691,15.142C19.709,15.09 19.697,14.959 19.674,14.901C19.485,15.079 19.318,15.291 18.935,15.262C18.912,15.262 18.935,15.297 18.935,15.297C19.083,15.491 18.786,15.371 18.625,15.337H18.614V15.335Z" fill-opacity="1" fill-rule="evenodd" fill="#c3bdc9"/><path d="M19.34,17.672L19.358,17.975C19.547,17.855 19.725,17.815 19.976,17.236C20.079,18.267 20.091,19.269 20.692,19.475C20.383,18.765 20.383,17.992 20.36,17.242C20.326,17.288 20.285,17.322 20.251,17.356C20.005,17.213 19.93,17.098 19.799,16.967C19.719,17.224 19.673,17.493 19.347,17.671L19.34,17.672Z" fill-opacity="1" fill-rule="evenodd" fill="#cecad5"/><path d="M19.787,15.18C19.867,15.209 19.965,15.221 20.062,15.221L20.165,16.715L19.787,15.18Z" fill-opacity="1" fill-rule="evenodd" fill="#dfdde2"/><path d="M20.503,15.073L20.555,15.038C20.676,15.313 20.841,15.554 21.082,15.743L21.729,20.083L20.796,15.731C20.796,16.482 20.584,16.979 20.246,17.317L20.212,17.031C20.567,16.55 20.779,15.972 20.509,15.073L20.503,15.073Z" fill-opacity="1" fill-rule="evenodd" fill="#c3bdc9"/><path d="M21.488,16.074C21.585,16.131 21.7,16.183 21.825,16.217C22.215,17.529 22.364,20.111 21.848,21.044L21.803,20.689C20.904,20.002 20.675,18.083 20.497,17.007L20.526,16.955C20.698,17.934 20.904,19.823 21.786,20.59C21.946,20.086 22.29,18.638 21.671,16.227C21.626,16.177 21.551,16.125 21.488,16.074Z" fill-opacity="1" fill-rule="evenodd" fill="#c4bec9"/><path d="M20.939,14.677C21.019,14.666 21.059,14.677 21.185,14.643L22.043,15.926L20.939,14.677Z" fill-opacity="1" fill-rule="evenodd" fill="#dfdde2"/><path d="M21.861,16.23C21.986,16.27 22.141,16.31 22.301,16.344C22.301,16.384 23.556,19.602 24.431,19.848C23.315,20.072 22.753,18.114 22.026,16.957C21.974,16.711 21.917,16.471 21.86,16.236L21.861,16.23Z" fill-opacity="1" fill-rule="evenodd" fill="#dfdde2"/><path d="M21.711,14.293C21.711,14.293 21.688,14.328 21.671,14.339C22.18,15.129 22.192,15.61 22.123,16.039L22.329,16.309C22.432,15.708 22.323,15.261 22.174,14.837L24.711,18.519L22.472,14.935L22.947,15.003C22.553,14.872 22.153,14.826 21.711,14.293Z" fill-opacity="1" fill-rule="evenodd" fill="#c3bdc9"/><path d="M23.24,15.009C23.337,15.009 23.423,15.009 23.491,14.986C23.995,15.805 25.289,17.288 25.135,19.315L24.974,19.005C23.772,18.731 22.936,17.219 22.512,16.606C23.217,17.534 24.012,18.742 24.945,18.931C25.021,17.42 23.887,15.942 23.24,15.009Z" fill-opacity="1" fill-rule="evenodd" fill="#c3bdc9"/><path d="M23.503,14.981L23.549,15.056C24.66,15.646 25.908,16.82 26.682,15.955C25.88,16.276 24.586,15.148 23.733,14.724L23.774,14.907C23.682,14.953 23.596,14.964 23.51,14.981H23.503Z" fill-opacity="1" fill-rule="evenodd" fill="#dfdde2"/><path d="M21.929,13.595C21.929,13.629 21.929,13.652 21.923,13.675L23.303,14.533L22.043,13.525C22.014,13.56 21.969,13.572 21.929,13.595Z" fill-opacity="1" fill-rule="evenodd" fill="#dfdde2"/><path d="M23.652,14.402C23.675,14.494 23.704,14.585 23.721,14.683C25.376,15.45 26.366,15.261 26.847,14.957L26.589,14.866C25.863,15.347 24.099,14.7 23.652,14.402Z" fill-opacity="1" fill-rule="evenodd" fill="#c3bdc9"/><path d="M22.336,13.097C22.336,13.097 22.324,13.143 22.318,13.166C23.022,13.538 23.509,14.225 23.492,14.701L23.732,14.895C23.64,14.105 23.353,13.807 23.067,13.515L26.429,14.832L23.165,13.303C23.601,13.205 24.053,13.177 24.431,12.725L25.198,12.696C25.857,12.593 26.601,12.215 26.675,11.861L26.429,11.889C26.114,12.588 24.871,12.565 24.224,12.588C23.927,13.149 22.976,13.189 22.329,13.103L22.336,13.097Z" fill-opacity="1" fill-rule="evenodd" fill="#c3bdc9"/><path d="M24.214,12.942C24.128,13.011 24.042,13.057 23.951,13.097C24.3,13.172 24.626,13.269 24.93,13.383C25.8,13.475 26.659,13.343 26.699,12.605C26.332,13.194 25.29,13.086 24.219,12.942H24.214Z" fill-opacity="1" fill-rule="evenodd" fill="#dfdde2"/><path d="M22.324,12.427C22.347,12.502 22.358,12.564 22.37,12.633L24.15,12.587C23.543,12.536 22.92,12.49 22.324,12.427Z" fill-opacity="1" fill-rule="evenodd" fill="#dfdde2"/><path d="M23.183,11.712C23.543,11.878 23.876,12.061 24.139,12.273L23.904,12.056C24.666,11.993 25.439,11.93 26.297,11.884L23.589,11.867L23.183,11.712Z" fill-opacity="1" fill-rule="evenodd" fill="#c3bdc9"/><path d="M22.61,11.774C22.604,11.814 22.581,11.849 22.564,11.888L23.16,11.717C24.053,11.075 24.093,10.761 24.208,10.411L25.565,9.564L24.018,10.331C23.183,10.337 22.965,10.457 22.713,10.526C23.423,10.371 23.893,10.348 24.15,10.428L23.984,10.531C23.772,11.241 22.971,11.653 22.604,11.779L22.61,11.774Z" fill-opacity="1" fill-rule="evenodd" fill="#c3bdc9"/><path d="M22.605,11.19C22.628,11.236 22.634,11.293 22.645,11.345C23.069,11.116 23.469,10.864 23.864,10.606C23.446,10.812 23.022,11.024 22.605,11.195V11.19Z" fill-opacity="1" fill-rule="evenodd" fill="#dfdde2"/><path d="M23.75,11.282C24.231,11.241 24.712,11.23 25.215,11.271C25.33,11.207 26.544,10.853 26.252,10.211C25.903,10.916 24.609,11.156 24.506,11.213C24.3,11.236 23.801,11.254 23.75,11.288V11.282Z" fill-opacity="1" fill-rule="evenodd" fill="#dfdde2"/><path d="M25.748,9.473L26.017,9.359C26.046,9.41 25.851,9.776 25.507,10.16C25.055,10.658 24.792,10.876 23.938,11.03C23.956,11.007 23.973,10.984 23.984,10.961C24.648,10.784 25.559,10.137 25.748,9.478V9.473Z" fill-opacity="1" fill-rule="evenodd" fill="#dfdce1"/><path d="M22.902,10.177L22.822,10.297C23.584,9.748 24.191,9.41 24.648,9.267C25.106,8.785 25.209,8.304 25.02,8.03C25.049,8.923 23.629,9.593 22.896,10.177H22.902Z" fill-opacity="1" fill-rule="evenodd" fill="#dfdde2"/><path d="M22.409,10.521L22.38,10.749C22.947,10.337 23.25,9.587 23.17,8.958L22.97,9.163L22.088,9.879C22.134,9.92 22.186,9.966 22.22,10.005L22.971,9.186C23.022,9.862 22.564,10.389 22.409,10.521Z" fill-opacity="1" fill-rule="evenodd" fill="#c3bec9"/><path d="M23.177,9.461L23.125,9.65C23.492,9.422 23.744,9.181 23.972,8.934C24.602,8.202 24.682,7.566 24.74,7.257L24.47,7.474C24.516,8.408 23.469,9.3 23.188,9.455L23.177,9.461Z" fill-opacity="1" fill-rule="evenodd" fill="#dfdde2"/><path d="M22.868,8.935C22.971,8.935 23.08,8.928 23.183,8.935L24.419,7.515L22.868,8.935Z" fill-opacity="1" fill-rule="evenodd" fill="#c3bdc9"/><path d="M21.957,8.132L21.802,8.31C21.866,8.659 21.866,9.129 21.35,9.701L21.368,9.73L21.402,9.719C21.815,9.209 22.244,9.077 22.673,8.952C22.421,9.015 22.169,9.055 21.889,9.203C22.083,8.619 21.998,8.322 21.957,8.138V8.132Z" fill-opacity="1" fill-rule="evenodd" fill="#c3bdc9"/><path d="M22.015,8.596V8.711C22.455,8.436 22.902,8.11 23.309,7.657C23.543,7.354 23.847,6.924 23.886,6.346L23.652,6.529C23.606,7.496 22.358,8.326 22.014,8.601L22.015,8.596Z" fill-opacity="1" fill-rule="evenodd" fill="#dfdde2"/><path d="M21.013,8.47C21.373,8.315 21.722,8.166 21.963,8.12L23.521,6.672C23.103,6.975 22.227,7.731 21.815,8.04C21.671,8.149 21.529,8.143 21.007,8.47H21.013Z" fill-opacity="1" fill-rule="evenodd" fill="#dfdde2"/><path d="M23.607,6.536C19.662,7.223 17.474,11.981 20.114,11.551L19.965,11.517C19.438,11.563 19.301,11.104 19.353,10.812C19.399,10.498 19.702,10.32 19.788,10.292C19.765,10.011 19.754,9.73 20.028,9.502C20.137,9.239 20.263,9.101 20.389,8.963C20.802,7.464 22.897,6.713 23.607,6.542V6.536Z" fill-opacity="1" fill-rule="evenodd" fill="#f1eef0"/><path d="M21.768,8.299C21.276,8.373 20.6,8.917 20.497,9.146C20.486,9.169 20.497,9.203 20.326,9.294V9.323C20.503,9.249 20.962,9.323 20.531,9.426C20.812,9.42 21.058,9.529 21.225,9.907C22.135,9.77 22.364,10.434 22.135,10.875C22.736,11.396 22.358,12.066 22.026,12.192C22.226,12.639 22.329,13.228 21.716,13.458C21.716,13.853 21.659,14.471 20.72,14.466C20.605,14.735 20.273,15.193 19.706,14.947C19.706,14.947 19.706,14.964 19.706,14.981C19.695,15.01 19.941,15.073 19.947,15.061C20.141,15.084 20.164,15.21 19.929,15.153C19.843,15.13 19.769,15.107 19.706,15.078C19.706,15.078 19.706,15.118 19.694,15.141C20.306,15.353 20.662,14.981 20.851,14.666C21.584,14.626 21.882,14.225 21.921,13.596C22.517,13.224 22.437,12.656 22.254,12.267C22.786,11.866 22.746,11.168 22.345,10.842C22.62,9.92 21.802,9.673 21.366,9.737C21.223,9.49 21.126,9.456 21.022,9.387L21.796,8.34L20.856,9.307C20.765,9.273 20.639,9.262 20.49,9.267C20.69,8.769 21.469,8.386 21.778,8.299H21.768V8.299Z" fill-opacity="1" fill-rule="evenodd" fill="#c3bdc9"/><path d="M14.589,7.199C14.703,7.376 14.904,7.147 15.23,7.496L15.27,7.479C15.196,7.181 14.996,7.004 14.698,6.969C14.824,7.078 14.732,7.084 14.727,7.158C14.726,7.222 14.726,7.296 14.589,7.199Z" fill-opacity="1" fill-rule="evenodd" fill="#e0a231"/><path d="M14.067,7.737C14.245,7.64 14.634,7.497 14.88,7.84C15.658,7.611 16.208,7.823 16.283,8.132C16.329,8.046 16.111,7.577 15.224,7.657C14.468,7.125 14.039,7.605 14.062,7.737H14.067Z" fill-opacity="1" fill-rule="evenodd" fill="#e0a231"/><path d="M15.253,8.408C15.116,8.408 15.539,7.904 16.226,8.379C16.473,8.476 16.593,8.35 16.547,8.144C16.53,7.995 16.45,7.909 16.399,7.795C16.748,8.052 16.788,8.379 16.553,8.505C16.187,8.688 15.929,8.041 15.253,8.402L15.253,8.408Z" fill-opacity="1" fill-rule="evenodd" fill="#dfa231"/><path d="M14.68,15.495L14.835,15.713L14.795,15.684C14.359,15.89 14.136,15.81 13.925,15.713L13.902,15.695C13.455,15.781 13.174,15.666 12.934,15.489C12.952,15.621 13.043,15.724 13.163,15.816L12.693,17.86L12.917,15.941C12.647,16.692 12.298,17.041 11.817,17.253L11.851,17.041C12.292,16.818 12.67,16.388 12.848,15.46C12.67,15.483 12.493,15.506 12.316,15.46L11.875,16.978L12.087,15.409C11.898,15.283 11.738,15.123 11.578,14.962V14.933C11.623,15.001 11.675,14.795 11.669,14.732C12.002,15.271 12.465,15.368 12.923,15.213C12.923,15.265 12.923,15.311 12.901,15.385H12.923C12.923,15.385 12.952,15.333 12.964,15.293C12.952,15.282 12.946,15.264 12.941,15.248V15.23C13.199,15.682 13.822,15.47 13.903,15.511C13.892,15.534 13.903,15.602 13.921,15.659L13.932,15.677C13.932,15.677 13.944,15.614 13.932,15.568L13.909,15.528L13.927,15.539C14.139,15.699 14.431,15.688 14.677,15.487L14.68,15.495Z" fill-opacity="1" fill-rule="evenodd" fill="#c3bdc9"/><path d="M13.231,15.857C13.375,15.926 13.524,15.978 13.69,16.012C13.615,16.974 13.128,18.068 12.613,18.394L12.625,18.125C12.499,17.913 12.401,17.581 12.373,16.893L12.413,16.853C12.425,17.334 12.477,17.769 12.637,18.107C12.883,17.924 13.41,17.311 13.495,16.138C13.495,16.063 13.478,16.024 13.438,16.001C13.34,15.949 13.283,15.903 13.226,15.863L13.231,15.857Z" fill-opacity="1" fill-rule="evenodd" fill="#c1c1c9"/><path d="M11.376,19.916C11.931,20.065 12.298,18.994 12.504,18.278C12.406,18.084 12.269,17.884 12.258,17.013L12.212,17.059C12.155,18.181 12.143,19.418 11.37,19.916L11.376,19.916Z" fill-opacity="1" fill-rule="evenodd" fill="#c3bdc9"/><path d="M11.64,15.038L11.674,15.073C11.633,15.285 11.347,16.052 11.703,16.802C11.502,16.51 11.342,16.046 11.646,15.038H11.64Z" fill-opacity="1" fill-rule="evenodd" fill="#dfdde3"/><path d="M11.342,15.507L11.233,15.679L10.059,20.454L11.307,16.481C11.371,16.709 11.445,16.95 11.771,17.328C11.313,18.948 10.586,20.397 9.968,20.78L10.025,20.586C9.762,19.785 9.973,18.095 10.426,16.395C10.134,17.328 9.539,19.361 9.917,20.844L9.796,21.21C11.028,20.369 11.754,18.256 12.03,17.179C11.961,17.231 11.886,17.259 11.812,17.288C11.423,16.939 11.24,16.384 11.343,15.513L11.342,15.507Z" fill-opacity="1" fill-rule="evenodd" fill="#c3bdc9"/><path d="M10.603,14.174C10.632,14.322 10.804,14.495 10.889,14.643C10.935,14.718 10.987,14.752 11.049,14.661L11.101,14.575C11.227,14.718 11.405,14.798 11.662,14.752L11.353,15.468C10.992,16.167 10.517,16.316 10.041,16.482L10.19,16.207C10.808,16.15 11.249,15.537 11.478,14.976C11.324,14.941 11.175,14.878 11.003,14.77L10.276,16.036L10.757,14.753C10.856,14.551 10.598,14.391 10.603,14.174Z" fill-opacity="1" fill-rule="evenodd" fill="#c3bdc9"/><path d="M10.306,16.395C10.219,16.429 10.128,16.463 10.031,16.486C9.235,18.266 8.794,19.853 7.375,20.351C8.657,20.597 9.522,18.536 9.837,17.918C10.065,17.357 10.203,16.836 10.306,16.389L10.306,16.395Z" fill-opacity="1" fill-rule="evenodd" fill="#cecad5"/><path d="M10.483,14.225C10.339,14.396 9.847,15.083 10.156,16.229L10.185,16.194C9.962,15.432 10.197,14.585 10.483,14.219V14.225Z" fill-opacity="1" fill-rule="evenodd" fill="#e0dee4"/><path d="M9.957,15.239C9.916,15.536 9.928,15.771 9.945,16.006C8.983,17.712 7.374,19.287 6.447,19.349C7.632,17.763 8.811,16.126 9.997,14.511C10.072,14.477 10.152,14.425 10.226,14.374C10.1,14.557 10.043,14.707 10.02,14.844L6.768,19.018C7.856,18.926 9.636,16.35 9.905,15.657C9.905,15.451 9.934,15.336 9.963,15.239H9.957Z" fill-opacity="1" fill-rule="evenodd" fill="#c3bdc9"/><path d="M6.641,19.075L6.716,18.983C6.624,17.374 8.445,15.462 8.938,14.861C8.858,15.032 6.533,17.076 6.642,19.08L6.641,19.075Z" fill-opacity="1" fill-rule="evenodd" fill="#dfdce1"/><path d="M5.318,16.195C5.593,16.624 6.051,16.888 7.775,15.846C8.119,15.468 8.462,15.079 8.806,14.752H8.72C8.142,14.987 6.641,16.556 5.318,16.201V16.195Z" fill-opacity="1" fill-rule="evenodd" fill="#dfdde2"/><path d="M9.796,13.172C9.572,13.263 8.725,13.573 8.639,14.529L8.456,14.632C9.618,15.015 10.5,14.139 10.672,13.979C10.489,13.865 10.305,13.767 10.151,13.493L9.996,13.567C9.624,13.877 9.172,14.181 8.737,14.472L10.088,13.785C10.168,13.871 10.254,13.962 10.443,14.077C9.624,14.638 8.983,14.609 8.674,14.529C8.72,13.973 9.052,13.503 9.796,13.172Z" fill-opacity="1" fill-rule="evenodd" fill="#c3bdc9"/><path d="M8.49,14.311C8.467,14.425 8.433,14.551 8.438,14.637C8.072,14.781 7.66,14.9 7.202,14.975C7.173,14.981 7.053,15.027 7.007,14.941C6.955,14.906 6.893,14.9 6.836,14.906C6.824,14.878 6.767,14.889 6.761,14.866C7.883,14.672 8.393,14.403 8.49,14.316V14.311Z" fill-opacity="1" fill-rule="evenodd" fill="#cecad5"/><path d="M7.237,13.487C6.939,13.63 5.708,14.283 5.496,14.913C6.097,15.096 6.544,14.936 6.819,14.913C6.808,14.895 6.756,14.901 6.75,14.872C6.304,14.936 5.765,14.97 5.617,14.878L5.726,14.821C5.76,14.289 7.031,13.625 7.232,13.487H7.237Z" fill-opacity="1" fill-rule="evenodd" fill="#dfdde1"/><path d="M5.799,14.798C7.803,14.054 8.777,13.458 9.847,13.097V13.132C9.761,13.184 9.058,13.349 8.782,13.75L5.799,14.798Z" fill-opacity="1" fill-rule="evenodd" fill="#c3bdc9"/><path d="M9.504,13.206C9.366,13.263 9.229,13.309 9.086,13.389C8.433,13.291 8.324,13.131 8.043,12.994L8.101,12.971C8.204,13.046 8.335,13.103 8.456,13.165C8.65,13.229 8.696,13.154 8.502,13.085C8.273,13.011 8.13,12.914 8.004,12.816C8.227,12.381 8.759,12.169 8.828,12.135C8.536,12.324 8.192,12.495 8.107,12.787C8.565,12.719 9.051,12.639 9.647,12.507C9.693,12.587 9.733,12.667 9.818,12.776L9.801,12.793L9.709,12.684L8.112,12.805C8.553,13.108 9.028,13.137 9.497,13.188L9.504,13.206Z" fill-opacity="1" fill-rule="evenodd" fill="#c3bdc9"/><path d="M5.393,12.593C5.576,13.211 7.128,13.051 8.044,12.988L8.09,12.97C8.015,12.918 7.953,12.867 7.912,12.816C7.534,12.736 5.799,13.103 5.393,12.593Z" fill-opacity="1" fill-rule="evenodd" fill="#dfdde2"/><path d="M8.313,12.255L8.33,12.273C8.221,12.364 8.113,12.444 8.004,12.576C6.573,12.576 5.668,12.01 5.41,11.677C5.765,11.392 6.211,11.288 6.687,11.242C6.281,11.363 5.806,11.431 5.587,11.689H5.485C6.149,12.433 7.924,12.766 8.307,12.261L8.313,12.255Z" fill-opacity="1" fill-rule="evenodd" fill="#dfdde2"/><path d="M5.679,11.712C6.63,11.844 7.563,11.964 8.542,12.118C8.674,12.004 8.914,11.924 9.281,11.901C9.155,11.901 9.052,11.884 8.852,11.913C7.763,11.929 6.733,11.792 5.679,11.712Z" fill-opacity="1" fill-rule="evenodd" fill="#c3bdc9"/><path d="M9.761,11.562C9.67,11.654 9.624,11.791 9.59,11.94C8.542,11.597 8.371,10.944 8.335,10.875C8.965,10.44 9.343,10.601 9.864,10.589C8.753,10.538 8.461,10.83 8.416,10.887C8.833,11.001 9.125,11.104 10.019,11.253C9.933,11.317 9.882,11.368 9.841,11.425C9.497,11.282 8.856,11.087 8.404,10.91C8.479,11.213 8.942,11.665 9.337,11.786C9.446,11.815 9.566,11.872 9.612,11.729C9.629,11.671 9.715,11.58 9.755,11.562H9.761Z" fill-opacity="1" fill-rule="evenodd" fill="#c3bdc9"/><path d="M5.777,10.188C5.977,10.389 6.739,11.053 8.136,10.886C8.188,11.024 8.245,11.075 8.296,11.127C7.924,11.069 7.552,11.029 7.173,11.058C6.56,10.875 6,10.652 5.771,10.188H5.777Z" fill-opacity="1" fill-rule="evenodd" fill="#dfdde2"/><path d="M8.628,10.475C8.628,10.475 8.668,10.504 8.696,10.509C8.468,10.601 8.29,10.698 8.153,10.801C7.448,10.584 6.452,10.062 6.092,9.409C6.527,9.215 7.265,9.307 7.695,9.409C7.22,9.409 6.648,9.307 6.367,9.496L6.15,9.421C6.236,9.701 7.736,11.007 8.623,10.475H8.628Z" fill-opacity="1" fill-rule="evenodd" fill="#dfdde2"/><path d="M6.441,9.536C7.334,9.851 8.187,10.16 8.898,10.458C9.121,10.406 9.338,10.417 9.556,10.458C9.504,10.406 9.453,10.366 9.413,10.297H9.395L9.487,10.423C8.273,10.011 7.38,9.782 6.447,9.542L6.441,9.536Z" fill-opacity="1" fill-rule="evenodd" fill="#c3bdc9"/><path d="M9.257,9.89C9.189,9.764 9.125,9.627 9.12,9.438C8.782,9.598 7.247,8.929 6.881,8.092C6.904,8.825 8.216,9.404 9.257,9.884V9.89Z" fill-opacity="1" fill-rule="evenodd" fill="#dfdde2"/><path d="M10.145,10.349C10.099,10.401 10.059,10.464 10.002,10.493C9.973,10.51 9.944,10.51 9.915,10.493C9.372,10.144 9.263,9.542 9.279,9.422C9.697,9.354 10.276,9.359 11.077,9.858C10.9,9.817 10.31,9.383 9.359,9.463C9.342,9.789 9.588,10.413 10.138,10.35L10.145,10.349Z" fill-opacity="1" fill-rule="evenodd" fill="#c3bdc9"/><path d="M9.435,9.518L10.397,10.217C10.523,10.223 10.644,10.217 10.769,10.28C10.775,10.257 10.787,10.223 10.81,10.177C10.283,9.959 9.893,9.735 9.435,9.518Z" fill-opacity="1" fill-rule="evenodd" fill="#c3bdc9"/><path d="M7.271,7.28L7.529,7.435C7.495,8.013 8.525,9.146 9.671,9.233C9.482,9.25 9.276,9.244 9.127,9.313C8.583,8.975 8.223,8.619 7.919,8.305C7.856,8.316 7.805,8.156 7.702,8.207C7.41,7.829 7.296,7.537 7.278,7.285L7.271,7.28Z" fill-opacity="1" fill-rule="evenodd" fill="#dfdde2"/><path d="M8.942,7.732C8.559,7.583 8.21,7.411 7.546,7.44C8.582,8.19 9.143,8.659 9.905,9.249C10.254,9.301 10.586,9.455 10.924,9.587C10.878,9.496 10.844,9.404 10.826,9.306C10.826,9.386 10.826,9.461 10.878,9.541C10.426,9.409 8.571,8.093 7.661,7.503C8.004,7.394 8.49,7.595 8.942,7.732Z" fill-opacity="1" fill-rule="evenodd" fill="#c5becb"/><path d="M9.469,7.766C9.052,7.406 8.588,6.993 8.484,6.415C8.971,6.472 9.922,6.799 10.66,7.331C9.973,6.936 9.326,6.644 8.799,6.649C8.753,7.13 9.194,7.445 9.475,7.766L9.469,7.766Z" fill-opacity="1" fill-rule="evenodd" fill="#dfdde2"/><path d="M8.828,6.667L8.805,6.684C9.51,7.205 10.019,7.697 10.574,8.201C10.729,8.333 10.711,8.476 10.729,8.619C10.786,8.551 10.711,8.327 10.832,8.298C10.946,8.275 11.387,8.504 11.416,8.47C10.38,8.012 9.687,7.273 8.833,6.667H8.828Z" fill-opacity="1" fill-rule="evenodd" fill="#c3bdc9"/><path d="M11.039,9.443C10.941,9.283 10.787,8.791 10.884,8.458C12.218,8.744 12.447,9.798 12.47,10.01C12.275,9.248 11.548,8.556 11.044,8.647C11.347,8.928 11.726,9.506 11.954,9.752C11.845,9.752 11.731,9.764 11.662,9.792C11.473,9.77 11.388,9.81 11.29,9.838C11.187,9.718 11.147,9.626 11.084,9.529C11.222,9.718 11.417,9.689 11.616,9.632C11.411,9.259 11.204,8.99 10.998,8.669C10.895,8.744 10.998,9.144 11.027,9.443L11.039,9.443Z" fill-opacity="1" fill-rule="evenodd" fill="#e0dee4"/><path d="M11.577,8.024C13.85,9.535 14.021,12.015 12.413,11.608C14.342,11.379 12.081,8.51 11.577,8.024Z" fill-opacity="1" fill-rule="evenodd" fill="#dfdde2"/><path d="M11.685,9.799C11.874,9.719 12.372,9.731 12.395,10.504L12.229,10.63C12.229,10.418 12.263,9.943 11.685,9.805V9.799Z" fill-opacity="1" fill-rule="evenodd" fill="#c3bdc9"/><path d="M12.229,10.641L12.401,10.515C13.231,10.83 12.825,11.722 12.246,11.58C12.933,11.511 12.785,10.629 12.229,10.641Z" fill-opacity="1" fill-rule="evenodd" fill="#c3bdc9"/><path d="M14.898,4.84C15.012,5.035 14.697,5.625 15.235,5.539C15.418,5.653 15.579,5.59 15.665,5.59C16.02,5.465 16.008,5.218 16.031,5.155C15.722,4.72 16.072,4.634 16.106,4.611C16.295,4.634 16.398,4.99 16.14,5.098C16.163,5.115 16.192,5.109 16.232,5.092C16.232,5.658 16.633,5.699 16.907,5.607C17.457,5.756 17.188,5.121 17.451,4.651C17.159,5.172 17.348,5.641 16.919,5.579C17.028,5.31 16.736,5.104 16.885,4.812C16.661,5.001 17.033,5.356 16.885,5.539C16.736,5.671 16.587,5.562 16.581,5.505C16.518,5.311 16.959,5.081 16.695,4.726C16.787,4.916 16.753,5.001 16.707,5.128C16.661,5.248 16.472,5.356 16.558,5.603C16.364,5.562 16.266,5.34 16.318,5.156C16.37,4.978 16.461,4.681 16.124,4.583C15.7,4.709 15.918,5.047 15.969,5.104C16.072,5.218 15.883,5.556 15.642,5.556C15.751,5.39 15.62,5.356 15.459,5.086C15.448,5.23 15.78,5.419 15.591,5.533C15.494,5.613 15.356,5.568 15.299,5.51C15.19,5.39 15.448,5.247 15.402,5.006C15.334,5.35 15.231,5.333 15.247,5.493C15.122,5.527 14.99,5.573 14.95,5.333C14.949,5.006 14.949,4.805 14.898,4.84Z" fill-opacity="1" fill-rule="evenodd" fill="#e0a231"/><path d="M17.102,6.174V6.208C16.449,6.249 15.779,6.122 15.138,6.111V6.082C15.791,6.1 16.307,6.215 17.102,6.174Z" fill-opacity="1" fill-rule="evenodd" fill="#e0a231"/><path d="M16.088,6.284V6.313C16.467,6.37 16.844,6.433 17.159,6.399V6.37C16.782,6.416 16.438,6.341 16.088,6.284Z" fill-opacity="1" fill-rule="evenodd" fill="#e0a231"/><path d="M15.19,5.745C15.087,5.779 15.132,5.934 15.19,5.928C15.31,5.934 15.43,5.951 15.55,5.928C15.619,5.894 15.642,5.773 15.562,5.727C15.436,5.71 15.31,5.71 15.19,5.739V5.745ZM15.167,5.722C15.373,5.682 15.562,5.711 15.671,5.728C15.768,5.751 15.768,5.923 15.671,5.957C15.562,5.968 15.327,5.963 15.167,5.951C15.064,5.865 15.116,5.756 15.167,5.722Z" fill-opacity="1" fill-rule="evenodd" fill="#e1a132"/><path d="M15.911,5.911C16.18,5.945 16.409,5.968 16.352,5.756C16.278,5.756 15.751,5.642 15.911,5.911ZM15.906,5.939C15.871,5.899 15.819,5.819 15.917,5.716C16.066,5.704 16.221,5.716 16.381,5.739C16.524,5.796 16.513,5.928 16.392,5.979C16.14,5.98 16.003,5.962 15.906,5.939Z" fill-opacity="1" fill-rule="evenodd" fill="#e1a132"/><path d="M16.644,5.946C16.913,6.003 17.137,6.055 17.096,5.837C17.022,5.837 16.512,5.665 16.644,5.946ZM16.633,5.974C16.598,5.933 16.558,5.848 16.662,5.75C17.045,5.768 16.983,5.773 17.12,5.808C17.257,5.876 17.234,6.008 17.114,6.048C16.781,6.054 16.724,6.002 16.633,5.968V5.974Z" fill-opacity="1" fill-rule="evenodd" fill="#e1a132"/><path d="M11.771,10.16L11.347,11.414C11.468,11.414 11.565,11.42 11.771,11.38C11.966,10.984 12.006,10.423 11.771,10.16Z" fill-opacity="1" fill-rule="evenodd" fill="#c3bdc9"/><path d="M12.115,12.604L11.348,11.413C11.348,11.413 11.154,11.906 11.131,12.066C11.228,12.33 11.68,12.599 12.115,12.604Z" fill-opacity="1" fill-rule="evenodd" fill="#ffffff"/><path d="M11.989,11.688C12.258,11.591 12.31,11.431 12.315,11.333L11.771,11.379C11.846,11.476 11.926,11.574 11.989,11.688Z" fill-opacity="1" fill-rule="evenodd" fill="#c3bdc9"/><path d="M11.09,10.783C10.981,10.708 10.626,10.686 10.551,10.749L11.003,11.167C11.021,11.047 11.05,10.904 11.09,10.783Z" fill-opacity="1" fill-rule="evenodd" fill="#c3bdc9"/><path d="M10.071,12.072L11.337,11.419C11.366,11.408 11.182,11.917 11.125,12.072C10.976,12.152 10.346,12.301 10.066,12.072H10.071Z" fill-opacity="1" fill-rule="evenodd" fill="#c3bdc9"/></svg>