<?xml version="1.0" encoding="UTF-8"?>
<svg xmlns="http://www.w3.org/2000/svg" width="24.0" height="24.0" viewBox="0 0 24.0 24.0"><path d="m12,2C6.48,2 2,6.48 2,12s4.48,10 10,10 10,-4.48 10,-10S17.52,2 12,2ZM8,12.95c-0.52,0 -0.95,-0.43 -0.95,-0.95s0.43,-0.95 0.95,-0.95 0.95,0.43 0.95,0.95 -0.43,0.95 -0.95,0.95ZM12,12.95c-0.52,0 -0.95,-0.43 -0.95,-0.95s0.43,-0.95 0.95,-0.95 0.95,0.43 0.95,0.95 -0.43,0.95 -0.95,0.95ZM16,12.95c-0.52,0 -0.95,-0.43 -0.95,-0.95s0.43,-0.95 0.95,-0.95 0.95,0.43 0.95,0.95 -0.43,0.95 -0.95,0.95Z" fill-opacity="1" fill="#1657E0"/></svg>