<?xml version="1.0" encoding="UTF-8"?>
<svg xmlns="http://www.w3.org/2000/svg" width="24.0" height="24.0" viewBox="0 0 24.0 24.0"><path d="M12.195,2.31C12.885,2.31 13.445,2.87 13.445,3.56V5.482C13.445,6.065 13.046,6.553 12.506,6.691V8.109L13.135,8.39C14.115,8.828 14.747,9.802 14.747,10.875C14.747,11.29 14.411,11.625 13.997,11.625C13.583,11.625 13.247,11.29 13.247,10.875C13.247,10.393 12.964,9.956 12.523,9.759L11.45,9.281C11.18,9.16 11.006,8.892 11.006,8.596V6.732H8.354V8.596C8.354,8.892 8.18,9.16 7.91,9.281L6.854,9.752C6.403,9.954 6.113,10.401 6.113,10.894V17.94C6.113,19.183 7.121,20.19 8.363,20.19H10.702C11.116,20.19 11.452,20.526 11.452,20.94C11.452,21.354 11.116,21.69 10.702,21.69H8.363C6.292,21.69 4.612,20.011 4.612,17.94V10.894C4.612,9.809 5.251,8.825 6.242,8.382L6.854,8.109V6.641C6.396,6.456 6.071,6.007 6.071,5.482V3.56C6.071,2.87 6.631,2.31 7.321,2.31H12.195ZM7.571,5.232H11.945V3.81H7.571V5.232Z" fill-opacity="1" fill-rule="evenodd" fill="#1657E0"/><path d="M15.175,12.731C15.52,12.089 16.492,12.094 16.829,12.74L19.03,16.962C20.149,19.107 18.498,21.618 15.968,21.618L15.731,21.61C13.399,21.463 11.905,19.166 12.822,17.132L12.923,16.93L15.175,12.731ZM14.244,17.639C13.696,18.662 14.41,20.118 15.968,20.118C17.515,20.118 18.233,18.677 17.7,17.656L15.991,14.379L14.244,17.639Z" fill-opacity="1" fill-rule="evenodd" fill="#1657E0"/></svg>