<?xml version="1.0" encoding="UTF-8"?>
<svg xmlns="http://www.w3.org/2000/svg" width="96.0" height="96.0" viewBox="0 0 96.0 96.0"><path d="M34,60C31.239,60 29,62.239 29,65V67C29,69.761 31.239,72 34,72H62C64.761,72 67,69.761 67,67V65C67,62.239 64.761,60 62,60H34ZM32,65C32,63.895 32.895,63 34,63H62C63.105,63 64,63.895 64,65V67C64,68.105 63.105,69 62,69H34C32.895,69 32,68.105 32,67V65Z" fill-opacity="1" fill-rule="evenodd" fill="#1657E0"/><path d="M48,55C53.523,55 58,50.523 58,45C58,39.477 53.523,35 48,35C42.477,35 38,39.477 38,45C38,50.523 42.477,55 48,55ZM48,52C51.866,52 55,48.866 55,45C55,41.134 51.866,38 48,38C44.134,38 41,41.134 41,45C41,48.866 44.134,52 48,52Z" fill-opacity="1" fill-rule="evenodd" fill="#1657E0"/><path d="M21.786,20.243L57.42,8.365C64.101,6.139 71,11.111 71,18.153C71,18.934 70.834,19.684 70.53,20.365C71.381,20.535 72.201,20.795 72.994,21.199C75.064,22.253 76.746,23.936 77.801,26.006C78.489,27.355 78.757,28.782 78.881,30.301C79,31.758 79,33.542 79,35.678V72.322C79,74.458 79,76.242 78.881,77.699C78.757,79.218 78.489,80.645 77.801,81.994C76.746,84.064 75.064,85.746 72.994,86.801C71.645,87.489 70.218,87.757 68.699,87.881C67.242,88 65.458,88 63.322,88H26.295C25.265,88 24.319,88 23.528,87.936C22.676,87.866 21.743,87.706 20.822,87.237C19.505,86.566 18.434,85.495 17.763,84.178C17.294,83.257 17.134,82.324 17.065,81.471C17,80.681 17,79.735 17,78.705V29.295C17,28.982 17,28.677 17.002,28.381C17.001,28.328 17,28.274 17,28.221V26.884C17,23.871 18.928,21.196 21.786,20.243ZM32.003,20L63.322,20C64.738,20 66,20 67.114,20.035C67.662,19.582 68,18.899 68,18.153C68,13.159 63.107,9.632 58.369,11.212L32.003,20ZM57.337,23H26.4C24.16,23 23.04,23 22.184,23.436C21.431,23.819 20.819,24.431 20.436,25.184C20,26.04 20,27.16 20,29.4V78.6C20,80.84 20,81.96 20.436,82.816C20.819,83.569 21.431,84.18 22.184,84.564C23.04,85 24.16,85 26.4,85H63.2C67.68,85 69.921,85 71.632,84.128C73.137,83.361 74.361,82.137 75.128,80.632C76,78.921 76,76.68 76,72.2V35.8C76,31.32 76,29.079 75.128,27.368C74.361,25.863 73.137,24.639 71.632,23.872C70.659,23.376 69.516,23.163 67.887,23.07C67.887,23.07 67.886,23.071 67.885,23.071C66.649,23.001 65.133,23.001 63.2,23.001H57.333L57.337,23Z" fill-opacity="1" fill-rule="evenodd" fill="#1657E0"/></svg>