<?xml version="1.0" encoding="UTF-8"?>
<svg xmlns="http://www.w3.org/2000/svg" width="40.0" height="40.0" viewBox="0 0 40.0 40.0"><path d="M37.5,30.8c0,1.7 -0.2,3.1 -0.5,3.9c-0.3,0.7 -0.8,1.3 -1.4,1.7c-0.2,0.1 -5.9,3.8 -15.6,3.8c-9.4,0 -15,-3.4 -15.6,-3.8C3.8,36 3.3,35.5 3,34.8c-0.4,-0.9 -0.5,-2.3 -0.5,-4.1v-0.2c0.1,-1.8 0.3,-6.5 5,-8.1c0,0 1.7,-0.6 3.3,-1.3c0.5,-0.2 1.1,0 1.3,0.5c0.2,0.5 0,1.1 -0.5,1.3c-1.7,0.7 -3.4,1.3 -3.5,1.3c-3,1 -3.5,3.7 -3.6,6.2l0,0.1c0,1.9 0.2,2.9 0.4,3.4c0.1,0.3 0.3,0.5 0.5,0.6c0.2,0.2 5.6,3.5 14.6,3.5c9.1,0 14.4,-3.4 14.5,-3.5c0.3,-0.2 0.5,-0.4 0.6,-0.7c0.1,-0.3 0.3,-1.1 0.4,-2.6l0,-1c-0.1,-2.3 -0.5,-5 -3.5,-6.1h0l-0.2,-0.1c-1.2,-0.3 -2.4,-0.8 -3.7,-1.4c-0.5,-0.2 -0.7,-0.8 -0.5,-1.4c0.2,-0.5 0.8,-0.7 1.3,-0.5c1.1,0.5 2.1,0.9 3.2,1.2l0.3,0.1c4.2,1.4 4.8,5.3 5,7.3h0L37.5,30.8zM11.3,9.9c0,-5.8 3.5,-9.7 8.7,-9.7c5.2,0 8.7,3.9 8.7,9.7c0,6.4 -4.1,11.9 -8.7,11.9C15.7,21.8 11.3,15.8 11.3,9.9zM13.3,9.9c0,5.1 3.8,9.9 6.7,9.9c3.5,0 6.7,-4.7 6.7,-9.9c0,-4.6 -2.6,-7.6 -6.7,-7.6S13.3,5.2 13.3,9.9z" fill-opacity="1" fill="#1657E0"/></svg>