<?xml version="1.0" encoding="UTF-8"?>
<svg xmlns="http://www.w3.org/2000/svg" width="393.0" height="194.0" viewBox="0 0 393.0 194.0"><path stroke-width="0.0" fill-opacity="1" d="m71.17,159.75h-31c-11.99,0 -21.75,-9.76 -21.75,-21.75v-21c0,-1.24 -1.01,-2.25 -2.25,-2.25s-2.25,1.01 -2.25,2.25v21c0,14.47 11.78,26.25 26.25,26.25h31c1.24,0 2.25,-1.01 2.25,-2.25s-1.01,-2.25 -2.25,-2.25Z" fill="#1657E0"/><path stroke-width="0.0" fill-opacity="1" d="m376.84,114.75c-1.24,0 -2.25,1.01 -2.25,2.25v21c0,11.99 -9.76,21.75 -21.75,21.75h-31c-1.24,0 -2.25,1.01 -2.25,2.25s1.01,2.25 2.25,2.25h31c14.47,0 26.25,-11.78 26.25,-26.25v-21c0,-1.24 -1.01,-2.25 -2.25,-2.25Z" fill="#1657E0"/><path stroke-width="0.0" fill-opacity="1" d="m352.84,29.75h-31c-1.24,0 -2.25,1.01 -2.25,2.25s1.01,2.25 2.25,2.25h31c11.99,0 21.75,9.76 21.75,21.75v21c0,1.24 1.01,2.25 2.25,2.25s2.25,-1.01 2.25,-2.25v-21c0,-14.47 -11.78,-26.25 -26.25,-26.25Z" fill="#1657E0"/><path stroke-width="0.0" fill-opacity="1" d="m71.17,29.75h-31c-14.47,0 -26.25,11.78 -26.25,26.25v21c0,1.24 1.01,2.25 2.25,2.25s2.25,-1.01 2.25,-2.25v-21c0,-11.99 9.76,-21.75 21.75,-21.75h31c1.24,0 2.25,-1.01 2.25,-2.25s-1.01,-2.25 -2.25,-2.25Z" fill="#1657E0"/></svg>