<?xml version="1.0" encoding="UTF-8"?>
<svg xmlns="http://www.w3.org/2000/svg" width="24.0" height="24.0" viewBox="0 0 24.0 24.0"><path d="M12.75,2C12.75,1.586 12.414,1.25 12,1.25C11.586,1.25 11.25,1.586 11.25,2V3.038C7.736,3.412 4.999,6.386 4.999,9.998V12.617C4.999,13.107 4.82,13.58 4.494,13.946L2.962,15.67C1.816,16.959 2.731,18.998 4.457,18.998H11.55L11.559,18.998C11.853,18.997 12.15,18.997 12.444,18.998L12.453,18.998H19.546C21.271,18.998 22.187,16.959 21.041,15.67L19.505,13.942C19.179,13.576 18.999,13.103 18.999,12.613V12.25C18.999,11.836 18.664,11.5 18.249,11.5C17.835,11.5 17.499,11.836 17.499,12.25V12.613C17.499,13.47 17.814,14.298 18.383,14.938L19.92,16.666C20.206,16.989 19.977,17.498 19.546,17.498H12.453L12.45,17.498C12.152,17.497 11.851,17.497 11.553,17.498L11.55,17.498H4.457C4.026,17.498 3.797,16.989 4.083,16.666L5.615,14.943C6.185,14.302 6.499,13.475 6.499,12.617V9.998C6.499,6.961 8.962,4.498 11.999,4.498C12.398,4.498 12.75,4.195 12.75,3.796V2Z" fill-opacity="1" fill="#52575f"/><path d="M9.5,19H8V19.5C8,21.157 9.343,22.5 11,22.5H13C14.657,22.5 16,21.157 16,19.5V19H14.5V19.5C14.5,20.328 13.828,21 13,21H11C10.172,21 9.5,20.328 9.5,19.5V19Z" fill-opacity="1" fill="#52575f"/><path d="M18,6m-4,0a4,4 0,1 1,8 0a4,4 0,1 1,-8 0" fill-opacity="1" fill="#cd291c"/></svg>