<?xml version="1.0" encoding="UTF-8"?>
<svg xmlns="http://www.w3.org/2000/svg" width="50.0" height="30.0" viewBox="0 0 50.0 30.0"><path d="M31.098,15C31.098,15.481 31.044,18.811 30.935,19.246C30.905,19.37 30.793,19.468 30.649,19.494C30.145,19.587 29.608,19.634 29.052,19.634C28.497,19.634 27.96,19.588 27.455,19.494C27.312,19.468 27.199,19.371 27.169,19.246C27.062,18.81 27.008,15.481 27.008,15C27.008,14.519 27.062,11.191 27.169,10.754C27.199,10.63 27.312,10.533 27.455,10.507C27.96,10.414 28.497,10.366 29.052,10.366C29.608,10.366 30.145,10.414 30.649,10.507C30.793,10.533 30.904,10.63 30.935,10.754C31.044,11.19 31.098,14.519 31.098,15ZM35.58,15C35.58,13.413 35.391,11.809 35.035,10.36C34.889,9.768 34.415,9.305 33.807,9.162C32.302,8.809 30.702,8.63 29.052,8.63C27.402,8.63 25.782,8.813 24.297,9.162C23.69,9.305 23.217,9.768 23.071,10.36C22.713,11.809 22.525,13.413 22.525,15C22.525,16.587 22.714,18.192 23.071,19.641C23.217,20.233 23.691,20.696 24.298,20.838C25.803,21.192 27.403,21.371 29.053,21.371C30.703,21.371 32.324,21.186 33.808,20.838C34.416,20.696 34.89,20.233 35.036,19.641C35.398,18.171 35.582,16.61 35.582,15M40.799,8.841H40.834H40.872C41.311,8.845 42.09,8.849 42.523,8.876C42.906,8.9 43.203,9.211 43.203,9.585V14.94V20.415C43.203,20.792 42.903,21.103 42.518,21.125C42.064,21.15 41.269,21.163 40.806,21.163C40.344,21.163 39.867,21.15 39.384,21.123C39,21.102 38.698,20.791 38.698,20.413V15.003V9.583C38.698,9.208 38.995,8.898 39.378,8.874C39.833,8.846 40.307,8.844 40.772,8.841H40.799ZM19.785,13.362C19.702,12.327 19.541,11.309 19.308,10.359C19.162,9.767 18.688,9.304 18.08,9.161C16.575,8.808 14.975,8.629 13.325,8.629C11.675,8.629 10.055,8.812 8.57,9.161C7.963,9.304 7.489,9.767 7.343,10.359C6.986,11.808 6.797,13.413 6.797,15C6.797,16.586 6.986,18.191 7.343,19.64C7.489,20.232 7.963,20.695 8.57,20.837C10.076,21.192 11.677,21.371 13.325,21.371C14.974,21.371 16.596,21.187 18.08,20.838C18.688,20.696 19.162,20.233 19.308,19.641C19.543,18.684 19.702,17.688 19.785,16.665V16.587C19.785,16.365 19.618,16.168 19.38,16.168H15.774C15.536,16.168 15.362,16.365 15.353,16.587L15.327,17.233C15.3,18.148 15.26,19.036 15.208,19.247C15.178,19.371 15.066,19.468 14.922,19.494C14.418,19.587 13.881,19.635 13.325,19.635C12.77,19.635 12.233,19.587 11.728,19.494C11.585,19.468 11.472,19.371 11.442,19.247C11.335,18.81 11.28,15.481 11.28,15C11.28,14.52 11.334,11.19 11.442,10.755C11.472,10.63 11.585,10.533 11.728,10.507C12.233,10.414 12.77,10.367 13.325,10.367C13.881,10.367 14.418,10.413 14.922,10.507C15.066,10.533 15.177,10.63 15.208,10.755C15.264,10.976 15.305,11.948 15.332,12.913L15.354,13.458C15.363,13.681 15.537,13.879 15.775,13.879H16.808H18.348H19.381C19.619,13.879 19.787,13.681 19.787,13.458V13.363L19.785,13.362Z" fill-opacity="1" fill="#1657E0"/><path d="M31.098,15C31.098,15.481 31.044,18.811 30.935,19.246C30.905,19.37 30.793,19.468 30.649,19.494C30.145,19.587 29.608,19.634 29.052,19.634C28.497,19.634 27.96,19.588 27.455,19.494C27.312,19.468 27.199,19.371 27.169,19.246C27.062,18.81 27.008,15.481 27.008,15C27.008,14.519 27.062,11.191 27.169,10.754C27.199,10.63 27.312,10.533 27.455,10.507C27.96,10.414 28.497,10.366 29.052,10.366C29.608,10.366 30.145,10.414 30.649,10.507C30.793,10.533 30.904,10.63 30.935,10.754C31.044,11.19 31.098,14.519 31.098,15ZM35.58,15C35.58,13.413 35.391,11.809 35.035,10.36C34.889,9.768 34.415,9.305 33.807,9.162C32.302,8.809 30.702,8.63 29.052,8.63C27.402,8.63 25.782,8.813 24.297,9.162C23.69,9.305 23.217,9.768 23.071,10.36C22.713,11.809 22.525,13.413 22.525,15C22.525,16.587 22.714,18.192 23.071,19.641C23.217,20.233 23.691,20.696 24.298,20.838C25.803,21.192 27.403,21.371 29.053,21.371C30.703,21.371 32.324,21.186 33.808,20.838C34.416,20.696 34.89,20.233 35.036,19.641C35.398,18.171 35.582,16.61 35.582,15M40.799,8.841H40.834H40.872C41.311,8.845 42.09,8.849 42.523,8.876C42.906,8.9 43.203,9.211 43.203,9.585V14.94V20.415C43.203,20.792 42.903,21.103 42.518,21.125C42.064,21.15 41.269,21.163 40.806,21.163C40.344,21.163 39.867,21.15 39.384,21.123C39,21.102 38.698,20.791 38.698,20.413V15.003V9.583C38.698,9.208 38.995,8.898 39.378,8.874C39.833,8.846 40.307,8.844 40.772,8.841H40.799ZM19.785,13.362C19.702,12.327 19.541,11.309 19.308,10.359C19.162,9.767 18.688,9.304 18.08,9.161C16.575,8.808 14.975,8.629 13.325,8.629C11.675,8.629 10.055,8.812 8.57,9.161C7.963,9.304 7.489,9.767 7.343,10.359C6.986,11.808 6.797,13.413 6.797,15C6.797,16.586 6.986,18.191 7.343,19.64C7.489,20.232 7.963,20.695 8.57,20.837C10.076,21.192 11.677,21.371 13.325,21.371C14.974,21.371 16.596,21.187 18.08,20.838C18.688,20.696 19.162,20.233 19.308,19.641C19.543,18.684 19.702,17.688 19.785,16.665V16.587C19.785,16.365 19.618,16.168 19.38,16.168H15.774C15.536,16.168 15.362,16.365 15.353,16.587L15.327,17.233C15.3,18.148 15.26,19.036 15.208,19.247C15.178,19.371 15.066,19.468 14.922,19.494C14.418,19.587 13.881,19.635 13.325,19.635C12.77,19.635 12.233,19.587 11.728,19.494C11.585,19.468 11.472,19.371 11.442,19.247C11.335,18.81 11.28,15.481 11.28,15C11.28,14.52 11.334,11.19 11.442,10.755C11.472,10.63 11.585,10.533 11.728,10.507C12.233,10.414 12.77,10.367 13.325,10.367C13.881,10.367 14.418,10.413 14.922,10.507C15.066,10.533 15.177,10.63 15.208,10.755C15.264,10.976 15.305,11.948 15.332,12.913L15.354,13.458C15.363,13.681 15.537,13.879 15.775,13.879H16.808H18.348H19.381C19.619,13.879 19.787,13.681 19.787,13.458V13.363L19.785,13.362Z" fill-opacity="1" fill="#1657E0"/></svg>