<?xml version="1.0" encoding="UTF-8"?>
<svg xmlns="http://www.w3.org/2000/svg" width="24.0" height="24.0" viewBox="0 0 24.0 24.0"><path d="m13.09,7.29c-0.28,-0.28 -0.78,-0.28 -1.06,0l-7.88,7.89c-0.2,0.2 -0.34,0.46 -0.39,0.73l-0.64,3.43c-0.08,0.43 0.05,0.88 0.36,1.18 0.25,0.25 0.58,0.38 0.93,0.38 0.08,0 0.17,0 0.25,-0.02l3.43,-0.64c0.28,-0.05 0.53,-0.18 0.73,-0.39l7.89,-7.88c0.14,-0.14 0.22,-0.33 0.22,-0.53s-0.08,-0.39 -0.22,-0.53l-3.62,-3.62ZM7.78,18.77l-3.14,0.59 0.57,-3.12 7.35,-7.36 2.56,2.56 -7.34,7.33ZM20.69,6.93l-3.61,-3.61c-0.29,-0.29 -0.77,-0.29 -1.06,0l-2.14,2.14c-0.29,0.29 -0.29,0.77 0,1.06l3.61,3.61c0.15,0.15 0.34,0.22 0.53,0.22s0.38,-0.07 0.53,-0.22l2.14,-2.14c0.29,-0.29 0.29,-0.77 0,-1.06ZM18.02,8.54l-2.55,-2.55 1.08,-1.08 2.55,2.55 -1.08,1.08Z" fill-opacity="1" fill="#1657E0"/></svg>