<?xml version="1.0" encoding="UTF-8"?>
<svg xmlns="http://www.w3.org/2000/svg" width="24.0" height="24.0" viewBox="0 0 24.0 24.0"><path d="M19.2,7.7L14,2.8C13.5,2.3 12.8,2 12.1,2H5.7c-1,0 -1.8,0.8 -1.8,1.8v4.7c0,0.4 0.3,0.8 0.8,0.8s0.8,-0.3 0.8,-0.8V3.7c0,-0.1 0.1,-0.2 0.2,-0.2h6.4c0,0 0,0 0.1,0v4.3c0,1 0.8,1.8 1.8,1.8h4.4c0,0 0.1,0 0.1,0c0,0 0,0 0,0l0,10.7c0,0.1 -0.1,0.2 -0.2,0.2H5.7c-0.1,0 -0.2,-0.1 -0.2,-0.2v-1.4c0,-0.4 -0.3,-0.8 -0.8,-0.8c-0.4,0 -0.8,0.3 -0.8,0.8v1.4c0,1 0.8,1.8 1.8,1.8h12.5v0c1,0 1.8,-0.8 1.8,-1.8l0,-10.7C20,8.8 19.7,8.2 19.2,7.7zM13.7,7.8V4.5L17.4,8H14C13.8,8 13.7,7.9 13.7,7.8zM5.2,15.5L3,13.3c-0.3,-0.3 -0.3,-0.8 0,-1.1c0.3,-0.3 0.8,-0.3 1.1,0l1.7,1.7L9.7,10c0.3,-0.3 0.8,-0.3 1.1,0c0.3,0.3 0.3,0.8 0,1.1l-4.5,4.5c-0.2,0.1 -0.3,0.2 -0.5,0.2C5.6,15.8 5.4,15.7 5.2,15.5z" fill-opacity="1" fill="#1657E0"/></svg>