<?xml version="1.0" encoding="UTF-8"?>
<svg xmlns="http://www.w3.org/2000/svg" width="48.0" height="30.0" viewBox="0 0 48.0 30.0"><g><defs><clipPath id="cp0e4c640b"><path d="M4,5h40v20h-40z"/></clipPath></defs><path d="M43.862,23.627H4.138V24.869H43.862V23.627Z" fill-opacity="1" fill="#e30613"/><path d="M43.862,22.386H4.138V23.628H43.862V22.386Z" fill-opacity="1" fill="#ffffff"/><path d="M43.862,22.301H4.138V22.385H43.862V22.301Z" fill-opacity="1" fill="#1d1d1b"/><g><defs><clipPath id="cp3e0727e2"><path d="M49,0H-1V30H49V0Z"/></clipPath></defs><path d="M9.278,5.236V10.216H8.686V6.557C8.686,6.508 8.69,6.457 8.693,6.4C8.696,6.345 8.699,6.288 8.705,6.23L6.995,9.343C6.941,9.448 6.862,9.5 6.75,9.5H6.654C6.545,9.5 6.463,9.448 6.409,9.343L4.666,6.215C4.681,6.339 4.687,6.451 4.687,6.557V10.216H4.095V5.236H4.591C4.651,5.236 4.697,5.242 4.73,5.254C4.763,5.266 4.793,5.3 4.823,5.351L6.542,8.415C6.569,8.469 6.596,8.53 6.624,8.59C6.651,8.651 6.675,8.711 6.699,8.775C6.723,8.711 6.747,8.651 6.772,8.587C6.796,8.524 6.826,8.466 6.856,8.412L8.545,5.351C8.572,5.297 8.602,5.266 8.635,5.254C8.668,5.242 8.717,5.236 8.777,5.236H9.278Z" fill-opacity="1" fill="#1d1d1b"/><path d="M11.139,5.592C11.139,5.653 11.127,5.71 11.103,5.762C11.078,5.813 11.045,5.861 11.006,5.901C10.967,5.94 10.918,5.973 10.864,5.997C10.81,6.022 10.752,6.034 10.692,6.034C10.631,6.034 10.574,6.022 10.523,5.997C10.471,5.973 10.426,5.943 10.387,5.901C10.347,5.858 10.317,5.813 10.293,5.762C10.269,5.71 10.257,5.653 10.257,5.592C10.257,5.532 10.269,5.475 10.293,5.42C10.317,5.366 10.347,5.317 10.387,5.278C10.426,5.239 10.471,5.206 10.523,5.181C10.574,5.157 10.631,5.148 10.692,5.148C10.752,5.148 10.81,5.16 10.864,5.181C10.918,5.203 10.967,5.236 11.006,5.278C11.045,5.317 11.078,5.366 11.103,5.42C11.127,5.475 11.139,5.532 11.139,5.592ZM11.009,6.695V10.216H10.39V6.695H11.009Z" fill-opacity="1" fill="#1d1d1b"/><path d="M12.604,7.209C12.679,7.124 12.761,7.045 12.849,6.976C12.936,6.906 13.024,6.846 13.12,6.798C13.217,6.749 13.32,6.71 13.425,6.683C13.534,6.656 13.649,6.644 13.776,6.644C13.969,6.644 14.138,6.677 14.286,6.74C14.434,6.804 14.555,6.894 14.655,7.012C14.755,7.13 14.827,7.269 14.878,7.435C14.93,7.598 14.954,7.783 14.954,7.982V10.224H14.332V7.976C14.332,7.71 14.271,7.502 14.15,7.357C14.03,7.212 13.845,7.136 13.598,7.136C13.413,7.136 13.244,7.181 13.084,7.269C12.924,7.357 12.779,7.478 12.643,7.626V10.218H12.021V6.695H12.392C12.48,6.695 12.535,6.737 12.556,6.825L12.604,7.209Z" fill-opacity="1" fill="#1d1d1b"/><path d="M16.685,5.592C16.685,5.653 16.673,5.71 16.648,5.762C16.624,5.813 16.591,5.861 16.552,5.901C16.512,5.94 16.464,5.973 16.41,5.997C16.355,6.022 16.298,6.034 16.238,6.034C16.177,6.034 16.12,6.022 16.068,5.997C16.017,5.973 15.972,5.943 15.932,5.901C15.893,5.858 15.863,5.813 15.839,5.762C15.815,5.71 15.803,5.653 15.803,5.592C15.803,5.532 15.815,5.475 15.839,5.42C15.863,5.366 15.893,5.317 15.932,5.278C15.972,5.239 16.017,5.206 16.068,5.181C16.12,5.157 16.177,5.148 16.238,5.148C16.298,5.148 16.355,5.16 16.41,5.181C16.464,5.203 16.512,5.236 16.552,5.278C16.591,5.317 16.624,5.366 16.648,5.42C16.673,5.475 16.685,5.532 16.685,5.592ZM16.552,6.695V10.216H15.932V6.695H16.552Z" fill-opacity="1" fill="#1d1d1b"/><path d="M19.615,7.278C19.587,7.33 19.545,7.354 19.485,7.354C19.448,7.354 19.409,7.342 19.367,7.314C19.324,7.287 19.27,7.26 19.207,7.23C19.143,7.2 19.068,7.169 18.98,7.142C18.893,7.115 18.787,7.103 18.669,7.103C18.563,7.103 18.47,7.115 18.388,7.142C18.304,7.169 18.234,7.206 18.174,7.251C18.113,7.296 18.071,7.351 18.038,7.411C18.008,7.472 17.99,7.538 17.99,7.611C17.99,7.701 18.017,7.777 18.068,7.837C18.119,7.898 18.189,7.949 18.273,7.994C18.358,8.04 18.458,8.076 18.566,8.112C18.675,8.145 18.787,8.182 18.902,8.221C19.016,8.26 19.128,8.303 19.237,8.348C19.346,8.393 19.442,8.454 19.53,8.523C19.618,8.593 19.684,8.677 19.735,8.78C19.787,8.88 19.814,9.001 19.814,9.143C19.814,9.306 19.784,9.454 19.726,9.593C19.669,9.732 19.581,9.85 19.469,9.949C19.358,10.049 19.216,10.131 19.053,10.188C18.887,10.243 18.699,10.273 18.482,10.273C18.237,10.273 18.014,10.233 17.814,10.152C17.615,10.073 17.446,9.971 17.307,9.844L17.452,9.608C17.47,9.578 17.491,9.554 17.518,9.538C17.542,9.523 17.576,9.514 17.615,9.514C17.657,9.514 17.699,9.529 17.748,9.563C17.793,9.596 17.851,9.632 17.917,9.671C17.983,9.711 18.062,9.747 18.159,9.78C18.252,9.813 18.373,9.829 18.512,9.829C18.633,9.829 18.739,9.813 18.829,9.78C18.92,9.75 18.995,9.708 19.056,9.653C19.116,9.599 19.161,9.538 19.189,9.469C19.216,9.399 19.231,9.324 19.231,9.245C19.231,9.149 19.204,9.067 19.152,9.004C19.101,8.94 19.031,8.886 18.947,8.84C18.862,8.795 18.763,8.756 18.654,8.723C18.545,8.689 18.431,8.653 18.316,8.617C18.201,8.581 18.089,8.538 17.977,8.49C17.869,8.442 17.769,8.384 17.684,8.312C17.6,8.239 17.53,8.151 17.479,8.046C17.428,7.94 17.4,7.813 17.4,7.662C17.4,7.529 17.428,7.399 17.485,7.275C17.542,7.151 17.621,7.043 17.73,6.949C17.836,6.855 17.968,6.78 18.122,6.725C18.276,6.671 18.455,6.641 18.654,6.641C18.887,6.641 19.095,6.677 19.276,6.749C19.46,6.822 19.621,6.922 19.753,7.049L19.615,7.278Z" fill-opacity="1" fill="#1d1d1b"/><path d="M21.653,10.273C21.376,10.273 21.161,10.194 21.013,10.04C20.865,9.886 20.79,9.662 20.79,9.369V7.215H20.367C20.33,7.215 20.297,7.202 20.273,7.181C20.249,7.16 20.234,7.124 20.234,7.079V6.831L20.811,6.758L20.953,5.67C20.959,5.634 20.974,5.607 21.001,5.586C21.028,5.565 21.059,5.553 21.098,5.553H21.412V6.764H22.43V7.212H21.412V9.324C21.412,9.472 21.448,9.581 21.521,9.653C21.593,9.726 21.684,9.762 21.799,9.762C21.862,9.762 21.919,9.753 21.968,9.735C22.016,9.717 22.055,9.698 22.091,9.677C22.125,9.656 22.155,9.638 22.179,9.62C22.203,9.602 22.224,9.593 22.243,9.593C22.276,9.593 22.303,9.611 22.33,9.653L22.511,9.949C22.406,10.049 22.276,10.127 22.125,10.185C21.968,10.242 21.814,10.273 21.653,10.273Z" fill-opacity="1" fill="#1d1d1b"/><path d="M25.906,9.723C25.83,9.816 25.736,9.895 25.631,9.965C25.525,10.034 25.41,10.088 25.289,10.134C25.169,10.179 25.042,10.209 24.912,10.233C24.782,10.258 24.655,10.267 24.525,10.267C24.284,10.267 24.057,10.224 23.852,10.143C23.646,10.061 23.468,9.94 23.32,9.78C23.172,9.623 23.054,9.427 22.97,9.191C22.885,8.958 22.846,8.689 22.846,8.384C22.846,8.139 22.882,7.91 22.958,7.695C23.033,7.481 23.142,7.296 23.284,7.142C23.426,6.988 23.598,6.864 23.8,6.774C24.003,6.683 24.232,6.641 24.489,6.641C24.701,6.641 24.894,6.677 25.075,6.746C25.253,6.816 25.41,6.919 25.54,7.052C25.67,7.185 25.773,7.351 25.848,7.544C25.924,7.741 25.96,7.964 25.96,8.212C25.96,8.309 25.951,8.375 25.93,8.405C25.909,8.439 25.869,8.454 25.812,8.454H23.459C23.465,8.677 23.495,8.871 23.55,9.034C23.604,9.197 23.68,9.336 23.776,9.445C23.873,9.554 23.991,9.638 24.124,9.693C24.257,9.747 24.407,9.774 24.577,9.774C24.731,9.774 24.867,9.756 24.978,9.72C25.09,9.684 25.187,9.644 25.268,9.602C25.35,9.56 25.416,9.52 25.471,9.484C25.525,9.448 25.57,9.43 25.613,9.43C25.664,9.43 25.703,9.451 25.73,9.49L25.906,9.723ZM25.404,8.073C25.404,7.928 25.383,7.798 25.344,7.677C25.305,7.559 25.244,7.453 25.166,7.369C25.087,7.284 24.993,7.215 24.882,7.166C24.77,7.118 24.643,7.094 24.504,7.094C24.208,7.094 23.973,7.182 23.8,7.354C23.628,7.526 23.52,7.765 23.48,8.07H25.404V8.073Z" fill-opacity="1" fill="#1d1d1b"/><path d="M27.305,7.402C27.416,7.161 27.552,6.973 27.715,6.837C27.878,6.701 28.075,6.635 28.31,6.635C28.386,6.635 28.455,6.644 28.525,6.659C28.594,6.674 28.655,6.701 28.706,6.734L28.661,7.197C28.646,7.254 28.612,7.284 28.558,7.284C28.525,7.284 28.48,7.278 28.416,7.263C28.353,7.248 28.283,7.242 28.205,7.242C28.093,7.242 27.993,7.257 27.909,7.29C27.821,7.324 27.746,7.372 27.676,7.436C27.607,7.499 27.546,7.578 27.492,7.671C27.438,7.765 27.389,7.874 27.344,7.992V10.215H26.722V6.695H27.075C27.142,6.695 27.19,6.707 27.214,6.734C27.238,6.759 27.256,6.804 27.265,6.867L27.305,7.402Z" fill-opacity="1" fill="#1d1d1b"/><path d="M31.282,7.278C31.255,7.329 31.213,7.354 31.152,7.354C31.119,7.354 31.077,7.342 31.035,7.314C30.992,7.287 30.938,7.26 30.871,7.23C30.805,7.2 30.732,7.169 30.645,7.142C30.557,7.115 30.451,7.103 30.331,7.103C30.228,7.103 30.131,7.115 30.05,7.142C29.965,7.169 29.896,7.206 29.835,7.251C29.775,7.296 29.733,7.351 29.699,7.411C29.669,7.472 29.651,7.538 29.651,7.611C29.651,7.701 29.678,7.777 29.73,7.837C29.781,7.898 29.851,7.949 29.935,7.994C30.02,8.04 30.119,8.076 30.228,8.112C30.337,8.145 30.448,8.182 30.563,8.221C30.678,8.26 30.79,8.302 30.899,8.348C31.007,8.393 31.104,8.454 31.191,8.523C31.276,8.593 31.346,8.677 31.397,8.78C31.448,8.88 31.476,9.001 31.476,9.143C31.476,9.306 31.445,9.454 31.388,9.593C31.33,9.732 31.243,9.85 31.131,9.949C31.016,10.049 30.88,10.131 30.714,10.188C30.551,10.245 30.361,10.276 30.143,10.276C29.899,10.276 29.675,10.236 29.476,10.155C29.277,10.076 29.107,9.974 28.969,9.847L29.114,9.611C29.132,9.581 29.153,9.557 29.18,9.541C29.204,9.526 29.237,9.517 29.277,9.517C29.319,9.517 29.361,9.532 29.41,9.566C29.455,9.599 29.512,9.635 29.579,9.674C29.645,9.714 29.724,9.75 29.82,9.783C29.914,9.816 30.035,9.832 30.174,9.832C30.295,9.832 30.4,9.816 30.491,9.783C30.581,9.75 30.657,9.711 30.717,9.656C30.778,9.602 30.823,9.541 30.85,9.472C30.88,9.402 30.892,9.327 30.892,9.248C30.892,9.152 30.865,9.07 30.814,9.007C30.763,8.943 30.693,8.889 30.609,8.843C30.524,8.798 30.424,8.759 30.316,8.726C30.207,8.692 30.092,8.656 29.977,8.62C29.862,8.584 29.751,8.541 29.639,8.493C29.53,8.445 29.431,8.387 29.346,8.315C29.261,8.242 29.192,8.154 29.141,8.049C29.089,7.943 29.062,7.816 29.062,7.665C29.062,7.532 29.089,7.402 29.147,7.278C29.201,7.154 29.283,7.045 29.388,6.952C29.494,6.858 29.627,6.783 29.781,6.728C29.935,6.674 30.113,6.644 30.313,6.644C30.545,6.644 30.754,6.68 30.935,6.752C31.119,6.825 31.279,6.925 31.412,7.051L31.282,7.278Z" fill-opacity="1" fill="#1d1d1b"/><path d="M33.321,10.273C33.043,10.273 32.828,10.194 32.681,10.04C32.533,9.886 32.457,9.662 32.457,9.369V7.215H32.034C31.998,7.215 31.965,7.202 31.941,7.181C31.916,7.16 31.901,7.124 31.901,7.079V6.831L32.478,6.758L32.62,5.67C32.626,5.634 32.641,5.607 32.668,5.586C32.693,5.565 32.726,5.553 32.765,5.553H33.079V6.764H34.097V7.212H33.079V9.324C33.079,9.472 33.116,9.581 33.188,9.653C33.26,9.726 33.351,9.762 33.466,9.762C33.529,9.762 33.587,9.753 33.635,9.735C33.683,9.717 33.723,9.698 33.759,9.677C33.795,9.656 33.822,9.638 33.846,9.62C33.871,9.602 33.892,9.593 33.91,9.593C33.943,9.593 33.97,9.611 33.997,9.653L34.179,9.949C34.073,10.049 33.943,10.127 33.792,10.185C33.635,10.242 33.481,10.273 33.321,10.273Z" fill-opacity="1" fill="#1d1d1b"/><path d="M39.582,6.695L38.443,10.215H37.954C37.894,10.215 37.851,10.176 37.83,10.098L37.051,7.71C37.033,7.656 37.018,7.605 37.006,7.55C36.993,7.496 36.981,7.442 36.972,7.39C36.96,7.445 36.948,7.496 36.936,7.55C36.924,7.605 36.909,7.659 36.891,7.716L36.099,10.101C36.078,10.179 36.033,10.219 35.96,10.219H35.495L34.357,6.698H34.843C34.891,6.698 34.934,6.71 34.967,6.737C35,6.765 35.024,6.792 35.033,6.828L35.707,9.094C35.746,9.261 35.776,9.418 35.8,9.566C35.822,9.49 35.843,9.412 35.864,9.333C35.885,9.255 35.909,9.176 35.936,9.094L36.679,6.816C36.692,6.783 36.71,6.753 36.74,6.728C36.77,6.704 36.803,6.695 36.846,6.695H37.117C37.163,6.695 37.202,6.707 37.232,6.728C37.262,6.75 37.284,6.78 37.296,6.816L38.021,9.094C38.045,9.176 38.069,9.255 38.09,9.333C38.111,9.412 38.129,9.49 38.15,9.566C38.162,9.49 38.178,9.412 38.193,9.336C38.208,9.261 38.229,9.179 38.25,9.094L38.939,6.828C38.951,6.792 38.972,6.762 39.005,6.737C39.038,6.713 39.075,6.701 39.12,6.701H39.582V6.695Z" fill-opacity="1" fill="#1d1d1b"/><path d="M41.63,6.641C41.887,6.641 42.119,6.683 42.325,6.771C42.53,6.855 42.705,6.979 42.853,7.136C42.998,7.293 43.11,7.484 43.189,7.707C43.267,7.931 43.306,8.182 43.306,8.457C43.306,8.735 43.267,8.986 43.189,9.206C43.11,9.43 42.998,9.617 42.853,9.777C42.708,9.934 42.53,10.055 42.325,10.14C42.119,10.224 41.887,10.267 41.63,10.267C41.37,10.267 41.138,10.224 40.929,10.14C40.721,10.055 40.546,9.934 40.401,9.777C40.256,9.62 40.144,9.43 40.066,9.206C39.987,8.982 39.948,8.735 39.948,8.457C39.948,8.182 39.987,7.931 40.066,7.707C40.144,7.484 40.256,7.293 40.401,7.136C40.546,6.979 40.724,6.858 40.929,6.771C41.135,6.683 41.37,6.641 41.63,6.641ZM41.63,9.783C41.978,9.783 42.237,9.665 42.409,9.433C42.582,9.2 42.666,8.874 42.666,8.457C42.666,8.037 42.582,7.71 42.409,7.478C42.237,7.245 41.978,7.127 41.63,7.127C41.455,7.127 41.301,7.157 41.171,7.218C41.041,7.278 40.932,7.366 40.845,7.478C40.757,7.592 40.694,7.731 40.652,7.898C40.609,8.064 40.588,8.251 40.588,8.46C40.588,8.877 40.676,9.203 40.848,9.436C41.02,9.668 41.277,9.783 41.63,9.783Z" fill-opacity="1" fill="#1d1d1b"/></g><g><defs><clipPath id="cp98bb54e4"><path d="M49,0H-1V30H49V0Z"/></clipPath></defs><path d="M7.593,16.952C7.63,16.952 7.663,16.968 7.69,16.998L7.959,17.288C7.756,17.524 7.509,17.708 7.216,17.841C6.926,17.974 6.572,18.04 6.162,18.04C5.805,18.04 5.482,17.977 5.189,17.853C4.896,17.729 4.648,17.557 4.443,17.333C4.238,17.11 4.078,16.84 3.963,16.529C3.848,16.215 3.794,15.874 3.794,15.496C3.794,15.121 3.854,14.777 3.972,14.462C4.09,14.148 4.256,13.882 4.47,13.656C4.685,13.429 4.941,13.257 5.24,13.133C5.54,13.009 5.869,12.946 6.231,12.946C6.585,12.946 6.899,13.003 7.168,13.115C7.439,13.229 7.678,13.384 7.883,13.577L7.66,13.885C7.645,13.909 7.627,13.928 7.605,13.943C7.584,13.958 7.554,13.964 7.518,13.964C7.476,13.964 7.424,13.943 7.364,13.897C7.303,13.852 7.225,13.801 7.128,13.746C7.032,13.692 6.911,13.641 6.763,13.595C6.615,13.55 6.437,13.529 6.225,13.529C5.968,13.529 5.733,13.574 5.521,13.662C5.307,13.749 5.126,13.879 4.972,14.048C4.818,14.218 4.697,14.423 4.612,14.668C4.528,14.913 4.482,15.185 4.482,15.493C4.482,15.804 4.528,16.079 4.615,16.324C4.706,16.566 4.827,16.774 4.981,16.94C5.135,17.107 5.316,17.236 5.527,17.324C5.736,17.412 5.962,17.457 6.207,17.457C6.355,17.457 6.488,17.448 6.609,17.43C6.73,17.412 6.838,17.385 6.938,17.348C7.038,17.312 7.131,17.264 7.219,17.206C7.306,17.149 7.391,17.082 7.479,17.004C7.515,16.971 7.554,16.952 7.593,16.952Z" fill-opacity="1" fill="#1d1d1b"/><path d="M11.51,14.462L9.547,19.022C9.526,19.067 9.499,19.106 9.469,19.133C9.439,19.161 9.39,19.176 9.324,19.176H8.865L9.508,17.78L8.055,14.465H8.59C8.644,14.465 8.686,14.477 8.717,14.504C8.747,14.531 8.768,14.562 8.78,14.592L9.722,16.81C9.759,16.906 9.792,17.009 9.816,17.115C9.849,17.006 9.883,16.903 9.922,16.807L10.834,14.592C10.849,14.556 10.87,14.525 10.906,14.501C10.94,14.477 10.979,14.465 11.018,14.465H11.51V14.462Z" fill-opacity="1" fill="#1d1d1b"/><path d="M12.287,17.983V14.992L11.897,14.946C11.849,14.934 11.81,14.916 11.777,14.892C11.746,14.868 11.728,14.832 11.728,14.786V14.533H12.284V14.191C12.284,13.989 12.311,13.81 12.369,13.653C12.426,13.496 12.507,13.366 12.613,13.257C12.719,13.149 12.846,13.067 12.994,13.012C13.142,12.958 13.308,12.928 13.495,12.928C13.652,12.928 13.797,12.952 13.93,12.997L13.915,13.306C13.909,13.36 13.879,13.39 13.824,13.396C13.767,13.402 13.691,13.402 13.598,13.402C13.492,13.402 13.396,13.417 13.308,13.445C13.22,13.472 13.145,13.517 13.084,13.581C13.021,13.644 12.973,13.726 12.939,13.828C12.906,13.931 12.888,14.058 12.888,14.206V14.529H13.903V14.977H12.909V17.98H12.287V17.983Z" fill-opacity="1" fill="#1d1d1b"/><path d="M15.078,15.166C15.19,14.924 15.326,14.737 15.489,14.601C15.652,14.465 15.848,14.399 16.084,14.399C16.159,14.399 16.229,14.408 16.298,14.423C16.368,14.438 16.428,14.465 16.479,14.498L16.434,14.961C16.419,15.018 16.386,15.048 16.329,15.048C16.295,15.048 16.25,15.042 16.187,15.027C16.123,15.012 16.054,15.006 15.975,15.006C15.863,15.006 15.764,15.021 15.679,15.054C15.592,15.088 15.516,15.136 15.446,15.199C15.377,15.263 15.317,15.341 15.262,15.435C15.208,15.529 15.16,15.637 15.114,15.755V17.979H14.492V14.462H14.845C14.912,14.462 14.96,14.474 14.984,14.501C15.009,14.529 15.027,14.571 15.036,14.634L15.078,15.166Z" fill-opacity="1" fill="#1d1d1b"/><path d="M20.056,14.462L18.092,19.022C18.071,19.067 18.044,19.106 18.014,19.133C17.984,19.161 17.935,19.176 17.869,19.176H17.41L18.053,17.78L16.6,14.465H17.135C17.189,14.465 17.232,14.477 17.262,14.504C17.292,14.531 17.313,14.562 17.325,14.592L18.268,16.81C18.304,16.906 18.337,17.009 18.361,17.115C18.395,17.006 18.428,16.903 18.467,16.807L19.379,14.592C19.394,14.556 19.415,14.525 19.452,14.501C19.485,14.477 19.524,14.465 19.563,14.465H20.056V14.462Z" fill-opacity="1" fill="#1d1d1b"/><path d="M23.031,14.726C23.031,14.771 23.025,14.813 23.01,14.856C22.995,14.898 22.974,14.934 22.949,14.965L21.044,17.503H22.968V17.986H20.319V17.729C20.319,17.699 20.325,17.663 20.34,17.624C20.355,17.584 20.376,17.545 20.403,17.509L22.321,14.955H20.427V14.469H23.037V14.726H23.031Z" fill-opacity="1" fill="#1d1d1b"/><path d="M23.65,14.958C23.843,14.77 24.055,14.631 24.278,14.538C24.502,14.444 24.753,14.399 25.024,14.399C25.221,14.399 25.396,14.432 25.55,14.495C25.704,14.559 25.831,14.649 25.937,14.767C26.039,14.882 26.121,15.024 26.172,15.187C26.226,15.351 26.251,15.532 26.251,15.728V17.979H25.976C25.915,17.979 25.87,17.97 25.837,17.949C25.804,17.928 25.779,17.892 25.761,17.831L25.692,17.499C25.598,17.584 25.508,17.659 25.42,17.726C25.332,17.792 25.239,17.846 25.142,17.892C25.045,17.937 24.943,17.97 24.831,17.997C24.722,18.022 24.598,18.034 24.466,18.034C24.33,18.034 24.2,18.016 24.079,17.976C23.958,17.937 23.852,17.88 23.765,17.804C23.677,17.729 23.605,17.632 23.553,17.514C23.502,17.396 23.475,17.257 23.475,17.1C23.475,16.961 23.514,16.828 23.59,16.698C23.665,16.568 23.789,16.456 23.961,16.357C24.133,16.257 24.357,16.175 24.632,16.112C24.906,16.049 25.245,16.012 25.646,16.003V15.728C25.646,15.456 25.586,15.248 25.468,15.109C25.351,14.97 25.178,14.897 24.952,14.897C24.798,14.897 24.671,14.915 24.568,14.955C24.466,14.994 24.375,15.036 24.299,15.085C24.224,15.133 24.16,15.175 24.106,15.215C24.052,15.254 23.997,15.272 23.946,15.272C23.904,15.272 23.868,15.26 23.837,15.239C23.807,15.217 23.783,15.19 23.762,15.157L23.65,14.958ZM25.65,16.396C25.366,16.405 25.121,16.429 24.922,16.462C24.722,16.499 24.559,16.544 24.432,16.604C24.306,16.665 24.215,16.731 24.157,16.81C24.1,16.889 24.073,16.976 24.073,17.073C24.073,17.167 24.088,17.245 24.118,17.312C24.148,17.378 24.191,17.433 24.242,17.478C24.293,17.52 24.357,17.553 24.426,17.572C24.496,17.593 24.574,17.602 24.653,17.602C24.762,17.602 24.861,17.59 24.952,17.568C25.042,17.547 25.127,17.514 25.209,17.472C25.29,17.429 25.366,17.381 25.438,17.321C25.511,17.263 25.583,17.197 25.653,17.121V16.396H25.65Z" fill-opacity="1" fill="#1d1d1b"/><path d="M29.643,15.087C29.625,15.112 29.607,15.133 29.588,15.148C29.57,15.163 29.543,15.169 29.513,15.169C29.477,15.169 29.44,15.154 29.398,15.127C29.356,15.097 29.304,15.066 29.244,15.03C29.184,14.994 29.108,14.964 29.017,14.933C28.927,14.903 28.818,14.891 28.688,14.891C28.513,14.891 28.362,14.921 28.229,14.982C28.096,15.042 27.987,15.133 27.897,15.248C27.806,15.362 27.74,15.501 27.694,15.668C27.649,15.831 27.628,16.015 27.628,16.221C27.628,16.435 27.652,16.622 27.701,16.789C27.749,16.955 27.818,17.094 27.906,17.206C27.994,17.317 28.102,17.405 28.229,17.462C28.356,17.523 28.498,17.55 28.655,17.55C28.806,17.55 28.93,17.532 29.027,17.496C29.123,17.459 29.205,17.42 29.268,17.375C29.332,17.33 29.386,17.29 29.428,17.254C29.471,17.218 29.513,17.2 29.555,17.2C29.607,17.2 29.646,17.221 29.673,17.26L29.848,17.487C29.773,17.58 29.685,17.662 29.588,17.728C29.492,17.795 29.386,17.852 29.274,17.898C29.163,17.943 29.045,17.976 28.921,17.997C28.797,18.018 28.673,18.028 28.546,18.028C28.326,18.028 28.12,17.988 27.933,17.907C27.746,17.825 27.58,17.707 27.441,17.553C27.302,17.399 27.193,17.209 27.115,16.985C27.036,16.761 26.997,16.505 26.997,16.218C26.997,15.955 27.033,15.713 27.106,15.492C27.178,15.269 27.284,15.078 27.426,14.918C27.568,14.758 27.74,14.631 27.942,14.54C28.148,14.45 28.383,14.405 28.649,14.405C28.897,14.405 29.114,14.444 29.304,14.525C29.492,14.604 29.661,14.719 29.806,14.864L29.643,15.087Z" fill-opacity="1" fill="#1d1d1b"/><path d="M31.164,14.462V18.243C31.164,18.385 31.146,18.514 31.11,18.638C31.074,18.759 31.014,18.865 30.932,18.956C30.85,19.046 30.748,19.119 30.621,19.17C30.494,19.222 30.343,19.249 30.168,19.249C30.092,19.249 30.026,19.243 29.962,19.231C29.899,19.219 29.839,19.2 29.775,19.179L29.799,18.847C29.805,18.826 29.811,18.811 29.823,18.799C29.833,18.789 29.848,18.78 29.866,18.78C29.884,18.777 29.908,18.777 29.938,18.777C29.969,18.777 30.005,18.78 30.047,18.78C30.228,18.78 30.355,18.738 30.434,18.653C30.509,18.569 30.548,18.433 30.548,18.246V14.462H31.164ZM31.291,13.356C31.291,13.417 31.279,13.474 31.255,13.526C31.231,13.577 31.198,13.625 31.159,13.665C31.119,13.704 31.071,13.737 31.017,13.761C30.962,13.785 30.908,13.797 30.847,13.797C30.787,13.797 30.73,13.785 30.678,13.761C30.627,13.737 30.582,13.707 30.539,13.665C30.5,13.625 30.47,13.577 30.446,13.526C30.421,13.474 30.413,13.417 30.413,13.356C30.413,13.296 30.424,13.238 30.446,13.184C30.47,13.13 30.5,13.081 30.539,13.042C30.579,13.003 30.624,12.969 30.678,12.945C30.73,12.921 30.787,12.912 30.847,12.912C30.908,12.912 30.965,12.924 31.017,12.945C31.071,12.969 31.116,13 31.159,13.042C31.198,13.081 31.231,13.13 31.255,13.184C31.279,13.238 31.291,13.296 31.291,13.356Z" fill-opacity="1" fill="#1d1d1b"/><path d="M32.962,13.356C32.962,13.417 32.95,13.474 32.926,13.526C32.902,13.577 32.868,13.625 32.829,13.665C32.79,13.704 32.742,13.737 32.687,13.761C32.633,13.785 32.575,13.797 32.515,13.797C32.455,13.797 32.397,13.785 32.346,13.761C32.294,13.737 32.249,13.707 32.207,13.665C32.168,13.625 32.138,13.577 32.113,13.526C32.089,13.474 32.08,13.417 32.08,13.356C32.08,13.296 32.092,13.238 32.113,13.184C32.138,13.13 32.168,13.081 32.207,13.042C32.246,13.003 32.292,12.969 32.346,12.945C32.397,12.921 32.455,12.912 32.515,12.912C32.575,12.912 32.633,12.924 32.687,12.945C32.742,12.969 32.79,13 32.829,13.042C32.868,13.081 32.902,13.13 32.926,13.184C32.95,13.238 32.962,13.296 32.962,13.356ZM32.832,14.462V17.983H32.213V14.462H32.832Z" fill-opacity="1" fill="#1d1d1b"/></g></g></svg>