<?xml version="1.0" encoding="UTF-8"?>
<svg xmlns="http://www.w3.org/2000/svg" width="24.0" height="24.0" viewBox="0 0 24.0 24.0"><path d="M12,23.224V6.093ZM24,8.439C24,4.999 21.208,2.211 17.772,2.211C15.237,2.211 12.956,3.746 12.004,6.093V23.224C19.438,16.836 22.313,13.494 23.337,11.242C23.544,10.833 23.707,10.402 23.815,9.96C23.877,9.764 23.917,9.562 23.935,9.355C23.978,9.051 24,8.743 24,8.439Z" fill="#1657E0"/><path d="M12,6.093C10.704,2.906 7.075,1.371 3.885,2.667C1.535,3.62 0,5.905 0,8.439C0,8.747 0.022,9.051 0.069,9.355C0.087,9.558 0.13,9.761 0.188,9.96C0.301,10.406 0.46,10.833 0.666,11.242C1.687,13.498 4.566,16.84 12,23.224" fill="#1657E0"/></svg>