<?xml version="1.0" encoding="UTF-8"?>
<svg xmlns="http://www.w3.org/2000/svg" width="96.0" height="96.0" viewBox="0 0 96.0 96.0"><path stroke-width="0.0" fill-opacity="1" d="m79,20.56c-0.38,-1.58 -1.73,-2.81 -3.34,-3.06 -12.43,-2.17 -21.28,-6.75 -25.43,-9.28 -1.37,-0.87 -3.03,-0.88 -4.4,-0.01 -4.17,2.54 -13.01,7.12 -25.42,9.29 -1.64,0.25 -2.98,1.44 -3.41,3.05 -5.07,19.86 -1.48,38.43 10.12,52.3 7.67,9.13 16.51,13.89 18.97,15.09 0.59,0.32 1.27,0.5 1.92,0.5s1.26,-0.15 1.89,-0.47c2.53,-1.24 11.37,-6 19.04,-15.13 11.6,-13.87 15.18,-32.44 10.08,-52.28ZM66.62,70.91c-7.29,8.67 -15.67,13.19 -18.07,14.37 -0.29,0.14 -0.45,0.16 -0.56,0.16 -0.14,0 -0.33,-0.05 -0.53,-0.16 -2.39,-1.18 -10.77,-5.69 -18.06,-14.36 -10.96,-13.1 -14.33,-30.73 -9.51,-49.61 0.12,-0.43 0.5,-0.77 0.99,-0.85 12.93,-2.26 22.15,-7.04 26.52,-9.7 0.21,-0.13 0.41,-0.2 0.59,-0.2 0.21,0 0.41,0.07 0.65,0.22 4.35,2.65 13.58,7.43 26.53,9.69 0.45,0.07 0.82,0.39 0.91,0.79v0.03c4.87,18.89 1.51,36.51 -9.46,49.62Z" fill="#1657E0"/><path stroke-width="0.0" fill-opacity="1" d="m63.8,35.67l-21.48,21.48 -10.12,-10.12c-0.59,-0.59 -1.54,-0.59 -2.12,0s-0.59,1.54 0,2.12l11.18,11.18c0.28,0.28 0.66,0.44 1.06,0.44s0.78,-0.16 1.06,-0.44l22.54,-22.54c0.59,-0.59 0.59,-1.54 0,-2.12s-1.54,-0.59 -2.12,0Z" fill="#1657E0"/></svg>