<?xml version="1.0" encoding="UTF-8"?>
<svg xmlns="http://www.w3.org/2000/svg" width="24.0" height="24.0" viewBox="0 0 24.0 24.0"><path d="M13,18.6c0,0.5 -0.4,1 -1,1s-1,-0.4 -1,-1s0.4,-1 1,-1S13,18.1 13,18.6zM17.8,3.8v16.5c0,1 -0.8,1.8 -1.8,1.8H8c-1,0 -1.8,-0.8 -1.8,-1.8V3.8c0,-0.5 0.2,-0.9 0.5,-1.2C7.1,2.2 7.5,2 8,2h8C17,2 17.8,2.8 17.8,3.8zM7.8,15.5C7.8,15.5 7.8,15.5 7.8,15.5l8.5,0v-9H7.8V15.5zM7.8,3.7v1.2h8.5V3.8c0,-0.1 -0.1,-0.2 -0.2,-0.2H8c-0.1,0 -0.1,0 -0.2,0.1C7.8,3.6 7.8,3.7 7.8,3.7zM16.2,20.3V17H7.8c0,0 0,0 -0.1,0v3.3c0,0.1 0.1,0.2 0.2,0.2h8C16.1,20.5 16.2,20.4 16.2,20.3z" fill-opacity="1" fill="#1657E0"/></svg>