<?xml version="1.0" encoding="UTF-8"?>
<svg xmlns="http://www.w3.org/2000/svg" width="24.0" height="24.0" viewBox="0 0 24.0 24.0"><path d="M3.797,10.2C3.797,5.7 7.497,2 11.997,2C16.497,2 20.197,5.7 20.197,10.2C20.197,13.6 15.597,19 13.297,21.5C12.897,21.9 12.497,22.1 11.997,22.1C11.497,22.1 10.997,21.9 10.697,21.5C8.397,19 3.797,13.6 3.797,10.2ZM11.997,13C13.654,13 14.997,11.657 14.997,10C14.997,8.343 13.654,7 11.997,7C10.34,7 8.997,8.343 8.997,10C8.997,11.657 10.34,13 11.997,13Z" fill-opacity="1" fill-rule="evenodd" fill="#1657E0"/></svg>