<?xml version="1.0" encoding="UTF-8"?>
<svg xmlns="http://www.w3.org/2000/svg" width="96.0" height="96.0" viewBox="0 0 96.0 96.0"><path d="M47.996,5.813L47.966,4.5H48.034L48,6C48.033,4.522 48.033,4.5 48.034,4.5H48.037C48.038,4.5 48.04,4.501 48.041,4.501C48.044,4.501 48.047,4.501 48.051,4.501C48.058,4.501 48.067,4.502 48.077,4.502C48.098,4.503 48.127,4.504 48.161,4.506C48.23,4.51 48.323,4.516 48.438,4.526C48.669,4.548 48.988,4.586 49.367,4.656C50.118,4.796 51.142,5.067 52.183,5.599C53.228,6.133 54.321,6.948 55.151,8.184C55.989,9.43 56.5,11.02 56.5,13V31.97C56.5,32.131 56.578,32.283 56.71,32.377L88.032,54.707C88.953,55.364 89.5,56.425 89.5,57.557V64.236C89.5,66.613 87.174,68.316 84.9,67.546C74.379,63.984 61.429,59.071 56.5,57.183V72.021C56.5,72.176 56.572,72.322 56.693,72.417L64.148,78.216C65.001,78.879 65.5,79.898 65.5,80.979V86.849C65.5,89.414 62.831,91.108 60.51,90.016L48.141,84.194C48.008,84.132 47.862,84.131 47.735,84.187C45.078,85.353 40.048,87.602 35.642,89.807C33.32,90.968 30.5,89.315 30.5,86.656V80.979C30.5,79.898 30.999,78.879 31.852,78.216L39.307,72.417C39.428,72.322 39.5,72.176 39.5,72.021V57.142L11.196,67.434C8.914,68.264 6.5,66.573 6.5,64.145V57.557C6.5,56.425 7.047,55.364 7.968,54.707L39.29,32.377C39.422,32.283 39.5,32.131 39.5,31.97V13C39.5,11.02 40.011,9.43 40.849,8.184C41.679,6.948 42.772,6.133 43.817,5.599C44.858,5.067 45.882,4.796 46.633,4.656C47.012,4.586 47.331,4.548 47.562,4.526C47.677,4.516 47.77,4.51 47.839,4.506C47.873,4.504 47.902,4.503 47.923,4.502C47.933,4.502 47.942,4.501 47.949,4.501C47.953,4.501 47.956,4.501 47.959,4.501C47.96,4.501 47.962,4.5 47.963,4.5H47.966C47.967,4.5 47.967,4.52 47.996,5.813ZM47.837,7.514C47.684,7.528 47.457,7.555 47.18,7.606C46.619,7.711 45.892,7.907 45.183,8.27C44.478,8.63 43.821,9.138 43.339,9.856C42.864,10.564 42.5,11.559 42.5,13V31.97C42.5,33.101 41.953,34.162 41.032,34.819L9.71,57.149C9.578,57.243 9.5,57.395 9.5,57.557V64.145C9.5,64.492 9.845,64.733 10.171,64.614L39.144,54.078C40.77,53.487 42.5,54.689 42.5,56.428V72.021C42.5,73.102 42.001,74.121 41.148,74.784L33.693,80.583C33.572,80.678 33.5,80.824 33.5,80.979V86.656C33.5,87.022 33.916,87.315 34.299,87.124C38.774,84.885 43.86,82.611 46.529,81.439C47.457,81.032 48.509,81.052 49.418,81.479L61.787,87.301C62.119,87.457 62.5,87.215 62.5,86.849V80.979C62.5,80.824 62.428,80.679 62.307,80.584L54.852,74.784C53.999,74.121 53.5,73.102 53.5,72.021V56.46L53.505,56.297C53.606,54.686 55.201,53.586 56.744,54.07L56.898,54.124L61.695,55.952C67.873,58.289 77.624,61.917 85.862,64.705C86.168,64.809 86.5,64.584 86.5,64.236V57.557C86.5,57.395 86.422,57.243 86.29,57.149L54.968,34.819C54.047,34.162 53.5,33.101 53.5,31.97V13C53.5,11.559 53.136,10.564 52.661,9.856C52.179,9.138 51.522,8.63 50.817,8.27C50.108,7.907 49.381,7.711 48.82,7.606C48.543,7.555 48.316,7.528 48.163,7.514C48.09,7.507 48.034,7.503 48,7.501C47.966,7.503 47.91,7.507 47.837,7.514Z" fill-opacity="1" fill-rule="evenodd" fill="#1657E0"/></svg>