<?xml version="1.0" encoding="UTF-8"?>
<svg xmlns="http://www.w3.org/2000/svg" width="24.0" height="24.0" viewBox="0 0 24.0 24.0"><path d="m12,2C6.48,2 2,6.48 2,12s4.48,10 10,10 10,-4.48 10,-10S17.52,2 12,2ZM12,20.5c-4.69,0 -8.5,-3.81 -8.5,-8.5S7.31,3.5 12,3.5s8.5,3.81 8.5,8.5 -3.81,8.5 -8.5,8.5ZM16.48,8.83c0.29,0.29 0.29,0.77 0,1.06l-5.29,5.29c-0.15,0.15 -0.34,0.22 -0.53,0.22s-0.38,-0.07 -0.53,-0.22l-2.62,-2.62c-0.29,-0.29 -0.29,-0.77 0,-1.06s0.77,-0.29 1.06,0l2.09,2.09 4.76,-4.76c0.29,-0.29 0.77,-0.29 1.06,0Z" fill-opacity="1" fill="#338636"/></svg>